<svg xmlns:xlink="http://www.w3.org/1999/xlink" xmlns="http://www.w3.org/2000/svg" overflow="visible" viewBox="0 0 443 398" width="443" height="398"><defs><linearGradient id="a" x1=".05" x2="1" y1=".498" y2=".502"><stop offset="0" stop-color="var(--token-f2370f02-750f-42d4-a35f-448981918c73, rgba(255, 255, 255, 0.05)) "></stop><stop offset=".671" stop-color="var(--token-60e5d7bd-2ecf-44e9-98a4-66d3d9d0efe9, rgba(62, 123, 250, 0.3)) "></stop><stop offset="1" stop-color="var(--token-f2370f02-750f-42d4-a35f-448981918c73, rgba(255, 255, 255, 0.05)) "></stop></linearGradient></defs><path fill="url(#a)" d="M262.5 0c3.278 0 6.553 1.508 9.053 4.524 43.806 94.451 77.021 134.801 152.196 183.556 2.499 3.016 3.751 6.965 3.751 10.92 0 3.952-1.252 7.904-3.751 10.92-75.175 48.755-108.39 89.105-152.196 183.556-2.5 3.016-5.775 4.524-9.053 4.524-3.278 0-6.553-1.508-9.053-4.524-43.809-94.451-77.021-134.801-152.196-183.556-2.499-3.016-3.751-6.965-3.751-10.92 0-3.952 1.252-7.904 3.751-10.92 75.175-48.755 108.39-89.105 152.196-183.556C255.947 1.508 259.222 0 262.5 0Z"></path><g transform="rotate(90 149.25 293.75)"><defs><linearGradient id="b" x1=".498" x2=".502" y1="0" y2="1"><stop offset="0" stop-color="var(--token-0f725f6a-9fd4-44a9-ba92-f64e06c2c0de, rgb(255, 74, 174)) "></stop><stop offset="1" stop-color="var(--token-741777c4-06ee-4c87-8233-8ff57bde7fbd, rgb(110, 69, 226)) "></stop></linearGradient></defs><path fill="url(#b)" d="M54.5 0c2.6 0 5.2 1.28 6.683 3.849l45.428 78.693c6.811 11.802-1.766 26.39-15.298 26.392h-9.281a2.271 2.271 0 0 1-1.967-1.134L56.467 66.951a2.273 2.273 0 0 0-3.933 0L28.935 107.8a2.27 2.27 0 0 1-1.966 1.134h-9.281c-13.535 0-22.109-14.59-15.299-26.392L47.817 3.849A7.64 7.64 0 0 1 54.5 0Z"></path></g><g transform="rotate(90 149.25 293.75)"><defs><linearGradient id="c" x1=".498" x2=".502" y1="0" y2="1"><stop offset="0" stop-color="var(--token-741777c4-06ee-4c87-8233-8ff57bde7fbd, rgb(110, 69, 226)) "></stop><stop offset="1" stop-color="var(--token-f2370f02-750f-42d4-a35f-448981918c73, rgba(255, 255, 255, 0.05)) "></stop></linearGradient></defs><path fill="url(#c)" d="M68.093 118.133a2.27 2.27 0 0 1 1.967 1.135l3.02 5.231c12.022 20.804-4.678 48.436-5.355 72.452L56.471 443h-4.383L40.836 196.951c-.674-24.016-17.376-51.648-5.354-72.452l3.02-5.231a2.27 2.27 0 0 1 1.967-1.135h27.627Z"></path></g></svg>