<svg xmlns="http://www.w3.org/2000/svg" overflow="visible" viewBox="0 0 436 425"><defs><linearGradient id="a" x1=".498" x2=".502" y1="0" y2="1"><stop offset="0" stop-color="var(--token-60e5d7bd-2ecf-44e9-98a4-66d3d9d0efe9, rgba(62, 123, 250, 0.3)) "></stop><stop offset="1" stop-color="var(--token-f2370f02-750f-42d4-a35f-448981918c73, rgba(255, 255, 255, 0.05)) "></stop></linearGradient></defs><path fill="url(#a)" d="M436 425a217.992 217.992 0 0 0-218-218C97.602 207 0 304.602 0 425Z"></path><g transform="translate(99 118)"><defs><linearGradient id="b" x1=".498" x2=".502" y1="0" y2="1"><stop offset="0" stop-color="var(--token-5d5e2be5-6861-47aa-bc6f-4d604e2da01a, rgb(255, 209, 73)) "></stop><stop offset="1" stop-color="var(--token-0f725f6a-9fd4-44a9-ba92-f64e06c2c0de, rgb(255, 74, 174)) "></stop></linearGradient></defs><path fill="url(#b)" d="M24 0c1.145 0 2.29.564 2.943 1.696L46.948 36.37c2.999 5.2-.778 11.628-6.737 11.629h-4.087c-.357 0-.687-.191-.866-.5L24.866 29.5a1.002 1.002 0 0 0-1.732 0L12.742 47.499c-.179.309-.509.5-.866.5H7.789c-5.96 0-9.736-6.429-6.737-11.629L21.057 1.696A3.362 3.362 0 0 1 24 0Z"></path></g><g transform="translate(99 118)"><defs><linearGradient id="c" x1=".498" x2=".502" y1="0" y2="1"><stop offset="0" stop-color="var(--token-0f725f6a-9fd4-44a9-ba92-f64e06c2c0de, rgb(255, 74, 174)) "></stop><stop offset="1" stop-color="var(--token-f2370f02-750f-42d4-a35f-448981918c73, rgba(255, 255, 255, 0.05)) "></stop></linearGradient></defs><path fill="url(#c)" d="M30.272 52c.357 0 .687.191.866.5l1.33 2.305c5.294 9.167-2.06 21.342-2.358 31.924L25.154 263h-1.93L18.269 86.729c-.297-10.582-7.652-22.757-2.358-31.924l1.33-2.305a1 1 0 0 1 .866-.5h12.166Z"></path></g><g transform="translate(183)"><defs><linearGradient id="d" x1=".498" x2=".502" y1="0" y2="1"><stop offset="0" stop-color="var(--token-741777c4-06ee-4c87-8233-8ff57bde7fbd, rgb(110, 69, 226)) "></stop><stop offset="1" stop-color="var(--token-75ea2d1d-2dd3-420a-aacd-e19ffe595b35, rgb(62, 123, 250)) "></stop></linearGradient></defs><path fill="url(#d)" d="M35 0c1.67 0 3.34.817 4.292 2.457l29.174 50.231c4.374 7.533-1.135 16.845-9.825 16.847h-5.96a1.46 1.46 0 0 1-1.263-.725L36.263 42.736A1.461 1.461 0 0 0 35 42.012c-.521 0-1.002.276-1.263.724L18.582 68.81c-.26.449-.742.725-1.263.725h-5.96c-8.692 0-14.198-9.314-9.825-16.847L30.708 2.457A4.911 4.911 0 0 1 35 0Z"></path></g><g transform="translate(183)"><defs><linearGradient id="e" x1=".498" x2=".502" y1="0" y2="1"><stop offset="0" stop-color="var(--token-75ea2d1d-2dd3-420a-aacd-e19ffe595b35, rgb(62, 123, 250)) "></stop><stop offset="1" stop-color="var(--token-f2370f02-750f-42d4-a35f-448981918c73, rgba(255, 255, 255, 0.05)) "></stop></linearGradient></defs><path fill="url(#e)" d="M43.73 75.5c.521 0 1.002.276 1.263.724l1.939 3.34c7.721 13.279-3.004 30.917-3.439 46.247l-7.227 255.358h-2.815l-7.226-255.358c-.433-15.33-11.159-32.968-3.439-46.247l1.94-3.34a1.461 1.461 0 0 1 1.263-.724h17.742Z"></path></g><g transform="translate(289 118)"><defs><linearGradient id="f" x1=".498" x2=".502" y1="0" y2="1"><stop offset="0" stop-color="var(--token-75ea2d1d-2dd3-420a-aacd-e19ffe595b35, rgb(62, 123, 250)) "></stop><stop offset="1" stop-color="var(--token-0f725f6a-9fd4-44a9-ba92-f64e06c2c0de, rgb(255, 74, 174)) "></stop></linearGradient></defs><path fill="url(#f)" d="M24 0c1.145 0 2.29.564 2.943 1.696L46.948 36.37c2.999 5.2-.778 11.628-6.737 11.629h-4.087c-.357 0-.687-.191-.866-.5L24.866 29.5a1.002 1.002 0 0 0-1.732 0L12.742 47.499c-.179.309-.509.5-.866.5H7.789c-5.96 0-9.736-6.429-6.737-11.629L21.057 1.696A3.362 3.362 0 0 1 24 0Z"></path></g><g transform="translate(289 118)"><defs><linearGradient id="g" x1=".498" x2=".502" y1="0" y2="1"><stop offset="0" stop-color="var(--token-0f725f6a-9fd4-44a9-ba92-f64e06c2c0de, rgb(255, 74, 174)) "></stop><stop offset="1" stop-color="var(--token-f2370f02-750f-42d4-a35f-448981918c73, rgba(255, 255, 255, 0.05)) "></stop></linearGradient></defs><path fill="url(#g)" d="M30.272 52c.357 0 .687.191.866.5l1.33 2.305c5.294 9.167-2.06 21.342-2.358 31.924L25.154 263h-1.93L18.269 86.729c-.297-10.582-7.652-22.757-2.358-31.924l1.33-2.305a1 1 0 0 1 .866-.5h12.166Z"></path></g><g transform="translate(380 189)"><defs><linearGradient id="h" x1=".498" x2=".502" y1="0" y2="1"><stop offset="0" stop-color="var(--token-5d5e2be5-6861-47aa-bc6f-4d604e2da01a, rgb(255, 209, 73)) "></stop><stop offset="1" stop-color="var(--token-741777c4-06ee-4c87-8233-8ff57bde7fbd, rgb(110, 69, 226)) "></stop></linearGradient></defs><path fill="url(#h)" d="M17.5 0c.835 0 1.67.412 2.146 1.238l14.587 25.314c2.187 3.796-.567 8.488-4.912 8.489H26.34a.728.728 0 0 1-.631-.365l-7.577-13.14a.73.73 0 0 0-1.263 0l-7.578 13.14a.728.728 0 0 1-.631.365H5.68c-4.346 0-7.1-4.693-4.913-8.489L15.354 1.238A2.453 2.453 0 0 1 17.5 0Z"></path></g><g transform="translate(380 189)"><defs><linearGradient id="i" x1=".498" x2=".502" y1="0" y2="1"><stop offset="0" stop-color="var(--token-741777c4-06ee-4c87-8233-8ff57bde7fbd, rgb(110, 69, 226)) "></stop><stop offset="1" stop-color="var(--token-f2370f02-750f-42d4-a35f-448981918c73, rgba(255, 255, 255, 0.05)) "></stop></linearGradient></defs><path fill="url(#i)" d="M21.865 38c.26 0 .501.139.631.365l.97 1.683c3.86 6.692-1.502 15.58-1.719 23.305l-3.614 128.685h-1.407L13.113 63.353c-.217-7.725-5.58-16.613-1.72-23.305l.97-1.683a.728.728 0 0 1 .631-.365h8.872Z"></path></g><g transform="translate(21 189)"><defs><linearGradient id="j" x1=".498" x2=".502" y1="0" y2="1"><stop offset="0" stop-color="var(--token-0f725f6a-9fd4-44a9-ba92-f64e06c2c0de, rgb(255, 74, 174)) "></stop><stop offset="1" stop-color="var(--token-741777c4-06ee-4c87-8233-8ff57bde7fbd, rgb(110, 69, 226)) "></stop></linearGradient></defs><path fill="url(#j)" d="M17.5 0c.835 0 1.67.412 2.146 1.238l14.587 25.314c2.187 3.796-.567 8.488-4.912 8.489H26.34a.728.728 0 0 1-.631-.365l-7.577-13.14a.73.73 0 0 0-1.263 0l-7.578 13.14a.728.728 0 0 1-.631.365H5.68c-4.346 0-7.1-4.693-4.913-8.489L15.354 1.238A2.453 2.453 0 0 1 17.5 0Z"></path></g><g transform="translate(21 189)"><defs><linearGradient id="k" x1=".498" x2=".502" y1="0" y2="1"><stop offset="0" stop-color="var(--token-741777c4-06ee-4c87-8233-8ff57bde7fbd, rgb(110, 69, 226)) "></stop><stop offset="1" stop-color="var(--token-f2370f02-750f-42d4-a35f-448981918c73, rgba(255, 255, 255, 0.05)) "></stop></linearGradient></defs><path fill="url(#k)" d="M21.865 38c.26 0 .501.139.631.365l.97 1.683c3.86 6.692-1.502 15.58-1.719 23.305l-3.614 128.685h-1.407L13.113 63.353c-.217-7.725-5.58-16.613-1.72-23.305l.97-1.683a.728.728 0 0 1 .631-.365h8.872Z"></path></g></svg>