<svg xmlns:xlink="http://www.w3.org/1999/xlink" xmlns="http://www.w3.org/2000/svg" width="35" height="34" viewBox="0 0 35 34" fill="none"><g clip-path="url(#clip0_2001_45)" fill="none"><path opacity="0.3" d="M32.75 17C32.75 24.071 32.75 27.607 30.553 29.803C28.357 32 24.821 32 17.75 32C10.679 32 7.143 32 4.947 29.803C2.75 27.607 2.75 24.071 2.75 17C2.75 9.929 2.75 6.393 4.947 4.197C7.143 2 10.679 2 17.75 2C24.821 2 28.357 2 30.553 4.197C32.75 6.393 32.75 9.929 32.75 17Z" fill="#FFFFFF"></path><path d="M17.955 17.296C17.515 16.856 17.515 16.144 17.955 15.704L29.534 4.125H24.234C23.613 4.125 23.109 3.621 23.109 3C23.109 2.379 23.613 1.875 24.234 1.875H32.25C32.871 1.875 33.375 2.379 33.375 3V11.016C33.375 11.637 32.871 12.141 32.25 12.141C31.629 12.141 31.125 11.637 31.125 11.016V5.716L19.545 17.296C19.106 17.735 18.394 17.735 17.955 17.296Z" fill="#FFFFFF"></path></g><defs><clipPath id="clip0_2001_45"><rect width="35" height="34" fill="white"></rect></clipPath></defs></svg>