<svg xmlns:xlink="http://www.w3.org/1999/xlink" xmlns="http://www.w3.org/2000/svg" width="33" height="32" viewBox="0 0 33 32" fill="none"><path d="M29.75 6.5C29.75 8.985 27.735 11 25.25 11C22.765 11 20.75 8.985 20.75 6.5C20.75 4.015 22.765 2 25.25 2C27.735 2 29.75 4.015 29.75 6.5Z" fill="#FFFFFF"></path><path d="M5.25 25.125C4.629 25.125 4.125 25.629 4.125 26.25C4.125 26.871 4.629 27.375 5.25 27.375H14.25C14.871 27.375 15.375 26.871 15.375 26.25C15.375 25.629 14.871 25.125 14.25 25.125H5.25Z" fill="#FFFFFF"></path><path d="M5.25 19.875C4.629 19.875 4.125 20.379 4.125 21C4.125 21.621 4.629 22.125 5.25 22.125H18.75C19.371 22.125 19.875 21.621 19.875 21C19.875 20.379 19.371 19.875 18.75 19.875H5.25Z" fill="#FFFFFF"></path><path opacity="0.3" d="M30 17C30 24.071 30 27.607 27.803 29.803C25.607 32 22.071 32 15 32C7.929 32 4.393 32 2.197 29.803C0 27.607 0 24.071 0 17C0 9.929 0 6.393 2.197 4.197C4.393 2 7.929 2 15 2C22.071 2 25.607 2 27.803 4.197C30 6.393 30 9.929 30 17Z" fill="#FFFFFF"></path></svg>