<svg width="281" height="184" viewBox="0 0 281 184" fill="none" xmlns="http://www.w3.org/2000/svg">
<path d="M152.898 68.5053C154.196 70.7523 154.24 73.5105 153.015 75.7977L140.049 100L127.083 75.7977C125.858 73.5105 125.902 70.7523 127.199 68.5053L128.863 65.6249C129.086 65.2382 129.499 65 129.945 65H150.152C150.599 65 151.012 65.2382 151.235 65.6249L152.898 68.5053Z" fill="#0A0A0A"/>
<path d="M146.905 58.125C147.386 58.9583 146.784 60 145.822 60H134.276C133.313 60 132.712 58.9583 133.193 58.125L138.966 48.1251C139.447 47.2917 140.65 47.2917 141.131 48.1251L146.905 58.125Z" fill="#0A0A0A"/>
<path d="M140.049 2.89296e-07C141.48 -0.000521708 142.912 0.705362 143.728 2.12036L168.734 45.4626C172.483 51.9627 167.762 59.9979 160.313 59.9988H155.204C154.758 59.9988 154.345 59.7605 154.122 59.3738L141.131 36.8749C140.65 36.0416 139.447 36.0416 138.966 36.8749L125.976 59.3738C125.753 59.7605 125.34 59.9988 124.894 59.9988H119.785C112.336 59.9978 107.615 51.9627 111.364 45.4626L136.37 2.12036C137.186 0.705385 138.618 -0.00048422 140.049 2.89296e-07Z" fill="#0A0A0A"/>
<path d="M0 152.181L13.9942 116.56H21.0676L34.8583 152.181H28.2937L24.6298 142.207H10.0249L6.361 152.181H0ZM11.806 137.424H22.9505L17.3528 122.361L11.806 137.424Z" fill="#0A0A0A"/>
<path d="M39.4517 152.181V116.56H45.5583V146.889H64.5395V152.181H39.4517Z" fill="#0A0A0A"/>
<path d="M71.3064 152.181V116.56H87.2344C89.6431 116.56 91.7295 117.035 93.4936 117.985C95.2916 118.901 96.6826 120.19 97.6664 121.852C98.6503 123.514 99.1422 125.448 99.1422 127.653C99.1422 129.757 98.6503 131.64 97.6664 133.302C96.6826 134.964 95.2916 136.27 93.4936 137.22C91.7295 138.136 89.6431 138.594 87.2344 138.594H77.413V152.181H71.3064ZM77.413 133.607H86.2675C88.4387 133.607 90.1011 133.064 91.2545 131.979C92.408 130.859 92.9847 129.401 92.9847 127.602C92.9847 125.838 92.408 124.43 91.2545 123.379C90.1011 122.293 88.4557 121.75 86.3184 121.75H77.413V133.607Z" fill="#0A0A0A"/>
<path d="M105.59 152.181V116.56H111.697V131.521H129.406V116.56H135.512V152.181H129.406V136.966H111.697V152.181H105.59Z" fill="#0A0A0A"/>
<path d="M139.843 152.181L153.837 116.56H160.91L167.806 134.371L174.701 152.181H168.136L164.472 142.207H149.868L146.204 152.181H139.843ZM151.649 137.424H162.793L157.195 122.361L151.649 137.424Z" fill="#0A0A0A"/>
<path d="M187.114 152.181V121.852H175.207V116.56H205.129V121.852H193.221V152.181H187.114Z" fill="#0A0A0A"/>
<path d="M225.009 152.741C222.498 152.741 220.14 152.283 217.935 151.367C215.764 150.417 213.847 149.111 212.185 147.449C210.556 145.753 209.284 143.802 208.368 141.597C207.452 139.358 206.994 136.949 206.994 134.371C206.994 131.792 207.452 129.401 208.368 127.195C209.284 124.956 210.556 123.006 212.185 121.343C213.847 119.647 215.764 118.341 217.935 117.425C220.14 116.475 222.498 116 225.009 116C227.519 116 229.86 116.475 232.031 117.425C234.236 118.341 236.153 119.647 237.781 121.343C239.444 123.006 240.733 124.956 241.649 127.195C242.565 129.401 243.023 131.792 243.023 134.371C243.023 136.949 242.565 139.358 241.649 141.597C240.733 143.802 239.444 145.753 237.781 147.449C236.153 149.111 234.236 150.417 232.031 151.367C229.86 152.283 227.519 152.741 225.009 152.741ZM225.009 147.245C226.671 147.245 228.214 146.923 229.639 146.278C231.064 145.634 232.302 144.735 233.354 143.581C234.44 142.394 235.271 141.02 235.848 139.459C236.458 137.899 236.764 136.203 236.764 134.371C236.764 132.539 236.458 130.842 235.848 129.282C235.271 127.721 234.44 126.364 233.354 125.211C232.302 124.023 231.064 123.107 229.639 122.463C228.214 121.818 226.671 121.496 225.009 121.496C223.346 121.496 221.803 121.818 220.378 122.463C218.953 123.107 217.698 124.023 216.612 125.211C215.56 126.364 214.729 127.721 214.118 129.282C213.508 130.842 213.202 132.539 213.202 134.371C213.202 136.203 213.508 137.899 214.118 139.459C214.729 141.02 215.56 142.394 216.612 143.581C217.698 144.735 218.953 145.634 220.378 146.278C221.803 146.923 223.346 147.245 225.009 147.245Z" fill="#0A0A0A"/>
<path d="M249.919 152.181V116.56H255.873L274.447 142.462L274.346 116.56H280.096V152.181H274.651L255.568 125.567L255.67 152.181H249.919Z" fill="#0A0A0A"/>
<path d="M82.4529 183.698C80.7356 183.698 79.1313 183.394 77.6401 182.786C76.1488 182.156 74.8382 181.289 73.7085 180.185C72.6013 179.06 71.7314 177.765 71.0987 176.302C70.4886 174.816 70.1836 173.217 70.1836 171.506C70.1836 169.795 70.4886 168.207 71.0987 166.744C71.7314 165.258 72.6013 163.963 73.7085 162.86C74.8382 161.734 76.1488 160.868 77.6401 160.26C79.1313 159.629 80.7356 159.314 82.4529 159.314C83.673 159.314 84.848 159.483 85.9777 159.821C87.1075 160.158 88.1582 160.642 89.1298 161.273C90.124 161.881 90.9826 162.635 91.7057 163.536L88.9942 166.17C88.1582 165.112 87.1753 164.312 86.0455 163.772C84.9158 163.232 83.7182 162.961 82.4529 162.961C81.3005 162.961 80.2272 163.175 79.233 163.603C78.2614 164.031 77.4028 164.639 76.6572 165.427C75.9341 166.192 75.3692 167.093 74.9625 168.129C74.5558 169.164 74.3524 170.29 74.3524 171.506C74.3524 172.722 74.5558 173.847 74.9625 174.883C75.3692 175.919 75.9341 176.831 76.6572 177.619C77.4028 178.384 78.2614 178.981 79.233 179.409C80.2272 179.836 81.3005 180.05 82.4529 180.05C83.7182 180.05 84.9158 179.78 86.0455 179.24C87.1753 178.677 88.1582 177.878 88.9942 176.842L91.7057 179.476C90.9826 180.354 90.124 181.109 89.1298 181.739C88.1582 182.369 87.1075 182.853 85.9777 183.191C84.848 183.529 83.673 183.698 82.4529 183.698Z" fill="#0A0A0A"/>
<path d="M93.1514 183.326L102.472 159.685H107.183L116.368 183.326H111.996L109.556 176.707H99.8283L97.388 183.326H93.1514ZM101.015 173.532H108.437L104.709 163.536L101.015 173.532Z" fill="#0A0A0A"/>
<path d="M119.427 183.326V159.685H130.036C131.64 159.685 133.03 160.001 134.205 160.631C135.402 161.239 136.329 162.095 136.984 163.198C137.639 164.301 137.967 165.584 137.967 167.048C137.967 168.444 137.639 169.693 136.984 170.797C136.329 171.9 135.402 172.767 134.205 173.397C133.03 174.005 131.64 174.309 130.036 174.309H123.495V183.326H119.427ZM123.495 170.999H129.392C130.838 170.999 131.945 170.639 132.714 169.919C133.482 169.176 133.866 168.207 133.866 167.014C133.866 165.843 133.482 164.909 132.714 164.211C131.945 163.491 130.849 163.13 129.426 163.13H123.495V170.999Z" fill="#0A0A0A"/>
<path d="M142.262 183.326V159.685H146.329V183.326H142.262Z" fill="#0A0A0A"/>
<path d="M157.795 183.326V163.198H149.864V159.685H169.794V163.198H161.863V183.326H157.795Z" fill="#0A0A0A"/>
<path d="M166.928 183.326L176.249 159.685H180.96L190.145 183.326H185.773L183.332 176.707H173.605L171.165 183.326H166.928ZM174.791 173.532H182.214L178.486 163.536L174.791 173.532Z" fill="#0A0A0A"/>
<path d="M193.204 183.326V159.685H197.271V179.814H209.914V183.326H193.204Z" fill="#0A0A0A"/>
</svg>
