<svg width="338" height="68" viewBox="0 0 338 68" fill="none" xmlns="http://www.w3.org/2000/svg">
<path d="M29.0737 46.4813C29.9542 48.0059 29.984 49.8773 29.1526 51.4293L20.3552 67.8507L11.5578 51.4293C10.7264 49.8774 10.7563 48.0059 11.6368 46.4813L12.7654 44.5269C12.9169 44.2646 13.1969 44.1029 13.4999 44.1029H27.2106C27.5136 44.1029 27.7935 44.2646 27.945 44.5269L29.0737 46.4813Z" fill="#0A0A0A"/>
<path d="M25.0069 39.4382C25.3333 40.0036 24.9253 40.7104 24.2724 40.7104H16.4381C15.7852 40.7104 15.3771 40.0036 15.7035 39.4382L19.6207 32.6532C19.9472 32.0878 20.7633 32.0878 21.0897 32.6532L25.0069 39.4382Z" fill="#0A0A0A"/>
<path d="M20.3552 1.96289e-07C21.3261 -0.000353982 22.2978 0.478593 22.8516 1.43868L39.8184 30.8467C42.3617 35.2571 39.1587 40.709 34.1043 40.7096H30.6382C30.3352 40.7096 30.0552 40.5479 29.9037 40.2855L21.0897 25.0199C20.7633 24.4545 19.9472 24.4545 19.6207 25.0199L10.8068 40.2855C10.6553 40.5479 10.3753 40.7096 10.0723 40.7096H6.60618C1.55186 40.7089 -1.65123 35.257 0.892051 30.8467L17.8589 1.43868C18.4126 0.478609 19.3843 -0.000328547 20.3552 1.96289e-07Z" fill="#0A0A0A"/>
<path d="M57.6738 36.2575L71.668 0.635939H78.7415L92.5321 36.2575H85.9676L82.3036 26.2835H67.6988L64.0348 36.2575H57.6738ZM69.4798 21.5H80.6243L75.0266 6.43717L69.4798 21.5Z" fill="#0A0A0A"/>
<path d="M97.1256 36.2575V0.635939H103.232V30.9652H122.213V36.2575H97.1256Z" fill="#0A0A0A"/>
<path d="M128.98 36.2575V0.635939H144.908C147.317 0.635939 149.403 1.11089 151.167 2.0608C152.965 2.97679 154.356 4.26595 155.34 5.92829C156.324 7.59063 156.816 9.52438 156.816 11.7295C156.816 13.8329 156.324 15.7158 155.34 17.3781C154.356 19.0404 152.965 20.3466 151.167 21.2965C149.403 22.2125 147.317 22.6704 144.908 22.6704H135.087V36.2575H128.98ZM135.087 17.6834H143.941C146.113 17.6834 147.775 17.1406 148.928 16.055C150.082 14.9355 150.659 13.4767 150.659 11.6786C150.659 9.91452 150.082 8.50662 148.928 7.45493C147.775 6.36932 146.13 5.82652 143.992 5.82652H135.087V17.6834Z" fill="#0A0A0A"/>
<path d="M163.264 36.2575V0.635939H169.371V15.597H187.08V0.635939H193.186V36.2575H187.08V21.042H169.371V36.2575H163.264Z" fill="#0A0A0A"/>
<path d="M197.516 36.2575L211.511 0.635939H218.584L225.479 18.4467L232.375 36.2575H225.81L222.146 26.2835H207.541L203.877 36.2575H197.516ZM209.322 21.5H220.467L214.869 6.43717L209.322 21.5Z" fill="#0A0A0A"/>
<path d="M244.788 36.2575V5.92829H232.88V0.635939H262.803V5.92829H250.895V36.2575H244.788Z" fill="#0A0A0A"/>
<path d="M282.682 36.8173C280.172 36.8173 277.814 36.3593 275.609 35.4433C273.438 34.4934 271.521 33.1873 269.859 31.525C268.23 29.8287 266.958 27.878 266.042 25.6728C265.126 23.4338 264.668 21.0251 264.668 18.4467C264.668 15.8684 265.126 13.4767 266.042 11.2715C266.958 9.03246 268.23 7.08175 269.859 5.41941C271.521 3.72315 273.438 2.41702 275.609 1.50104C277.814 0.551127 280.172 0.0761719 282.682 0.0761719C285.193 0.0761719 287.534 0.551127 289.705 1.50104C291.91 2.41702 293.827 3.72315 295.455 5.41941C297.118 7.08175 298.407 9.03246 299.323 11.2715C300.239 13.4767 300.697 15.8684 300.697 18.4467C300.697 21.0251 300.239 23.4338 299.323 25.6728C298.407 27.878 297.118 29.8287 295.455 31.525C293.827 33.1873 291.91 34.4934 289.705 35.4433C287.534 36.3593 285.193 36.8173 282.682 36.8173ZM282.682 31.3214C284.345 31.3214 285.888 30.9991 287.313 30.3545C288.738 29.71 289.976 28.8109 291.028 27.6575C292.114 26.4701 292.945 25.0961 293.521 23.5355C294.132 21.975 294.437 20.2787 294.437 18.4467C294.437 16.6148 294.132 14.9185 293.521 13.3579C292.945 11.7974 292.114 10.4404 291.028 9.2869C289.976 8.09952 288.738 7.18353 287.313 6.53895C285.888 5.89437 284.345 5.57208 282.682 5.57208C281.02 5.57208 279.476 5.89437 278.052 6.53895C276.627 7.18353 275.371 8.09952 274.286 9.2869C273.234 10.4404 272.403 11.7974 271.792 13.3579C271.182 14.9185 270.876 16.6148 270.876 18.4467C270.876 20.2787 271.182 21.975 271.792 23.5355C272.403 25.0961 273.234 26.4701 274.286 27.6575C275.371 28.8109 276.627 29.71 278.052 30.3545C279.476 30.9991 281.02 31.3214 282.682 31.3214Z" fill="#0A0A0A"/>
<path d="M307.593 36.2575V0.635939H313.547L332.121 26.5379L332.019 0.635939H337.77V36.2575H332.325L313.242 9.64312L313.344 36.2575H307.593Z" fill="#0A0A0A"/>
<path d="M210.308 67.7745C208.591 67.7745 206.987 67.4705 205.496 66.8626C204.004 66.2322 202.694 65.3653 201.564 64.2621C200.457 63.1364 199.587 61.8417 198.954 60.3783C198.344 58.8923 198.039 57.2937 198.039 55.5825C198.039 53.8714 198.344 52.2841 198.954 50.8206C199.587 49.3346 200.457 48.04 201.564 46.9368C202.694 45.811 204.004 44.9442 205.496 44.3363C206.987 43.7058 208.591 43.3906 210.308 43.3906C211.528 43.3906 212.703 43.5595 213.833 43.8972C214.963 44.2349 216.014 44.719 216.985 45.3494C217.979 45.9573 218.838 46.7116 219.561 47.6122L216.85 50.2465C216.014 49.1883 215.031 48.389 213.901 47.8486C212.771 47.3082 211.574 47.0381 210.308 47.0381C209.156 47.0381 208.083 47.252 207.088 47.6797C206.117 48.1075 205.258 48.7154 204.513 49.5035C203.79 50.269 203.225 51.1696 202.818 52.2053C202.411 53.241 202.208 54.3667 202.208 55.5825C202.208 56.7984 202.411 57.9241 202.818 58.9598C203.225 59.9955 203.79 60.9074 204.513 61.6954C205.258 62.4609 206.117 63.0576 207.088 63.4853C208.083 63.9131 209.156 64.127 210.308 64.127C211.574 64.127 212.771 63.8568 213.901 63.3165C215.031 62.7536 216.014 61.9543 216.85 60.9186L219.561 63.5529C218.838 64.431 217.979 65.1852 216.985 65.8156C216.014 66.4461 214.963 66.9301 213.833 67.2679C212.703 67.6056 211.528 67.7745 210.308 67.7745Z" fill="#0A0A0A"/>
<path d="M221.007 67.403L230.327 43.7621H235.039L244.224 67.403H239.851L237.411 60.7835H227.684L225.243 67.403H221.007ZM228.87 57.6089H236.293L232.564 47.6122L228.87 57.6089Z" fill="#0A0A0A"/>
<path d="M247.283 67.403V43.7621H257.891C259.496 43.7621 260.885 44.0773 262.06 44.7078C263.258 45.3157 264.184 46.1712 264.84 47.2745C265.495 48.3777 265.822 49.6611 265.822 51.1246C265.822 52.5205 265.495 53.7701 264.84 54.8733C264.184 55.9766 263.258 56.8434 262.06 57.4738C260.885 58.0817 259.496 58.3857 257.891 58.3857H251.35V67.403H247.283ZM251.35 55.076H257.247C258.694 55.076 259.801 54.7157 260.569 53.9952C261.337 53.2522 261.721 52.2841 261.721 51.0908C261.721 49.92 261.337 48.9856 260.569 48.2877C259.801 47.5672 258.705 47.2069 257.281 47.2069H251.35V55.076Z" fill="#0A0A0A"/>
<path d="M270.117 67.403V43.7621H274.184V67.403H270.117Z" fill="#0A0A0A"/>
<path d="M285.651 67.403V47.2745H277.72V43.7621H297.649V47.2745H289.718V67.403H285.651Z" fill="#0A0A0A"/>
<path d="M294.784 67.403L304.104 43.7621H308.815L318 67.403H313.628L311.188 60.7835H301.461L299.02 67.403H294.784ZM302.647 57.6089H310.069L306.341 47.6122L302.647 57.6089Z" fill="#0A0A0A"/>
<path d="M321.06 67.403V43.7621H325.127V63.8906H337.769V67.403H321.06Z" fill="#0A0A0A"/>
</svg>
