<svg width="281" height="212" viewBox="0 0 281 212" fill="none" xmlns="http://www.w3.org/2000/svg">
<path d="M152.898 68.5053C154.196 70.7523 154.24 73.5105 153.015 75.7977L140.049 100L127.083 75.7977C125.858 73.5105 125.902 70.7523 127.199 68.5053L128.863 65.6249C129.086 65.2382 129.499 65 129.945 65H150.152C150.599 65 151.012 65.2382 151.235 65.6249L152.898 68.5053Z" fill="#0A0A0A"/>
<path d="M146.905 58.125C147.386 58.9583 146.784 60 145.822 60H134.276C133.313 60 132.712 58.9583 133.193 58.125L138.966 48.1251C139.447 47.2917 140.65 47.2917 141.131 48.1251L146.905 58.125Z" fill="#0A0A0A"/>
<path d="M140.049 2.89296e-07C141.48 -0.000521708 142.912 0.705362 143.728 2.12036L168.734 45.4626C172.483 51.9627 167.762 59.9979 160.313 59.9988H155.204C154.758 59.9988 154.345 59.7605 154.122 59.3738L141.131 36.8749C140.65 36.0416 139.447 36.0416 138.966 36.8749L125.976 59.3738C125.753 59.7605 125.34 59.9988 124.894 59.9988H119.785C112.336 59.9978 107.615 51.9627 111.364 45.4626L136.37 2.12036C137.186 0.705385 138.618 -0.00048422 140.049 2.89296e-07Z" fill="#0A0A0A"/>
<path d="M0 152.181L13.9942 116.56H21.0676L34.8583 152.181H28.2937L24.6298 142.207H10.0249L6.361 152.181H0ZM11.806 137.424H22.9505L17.3528 122.361L11.806 137.424Z" fill="#0A0A0A"/>
<path d="M39.4517 152.181V116.56H45.5583V146.889H64.5395V152.181H39.4517Z" fill="#0A0A0A"/>
<path d="M71.3064 152.181V116.56H87.2344C89.6431 116.56 91.7295 117.035 93.4936 117.985C95.2916 118.901 96.6826 120.19 97.6664 121.852C98.6503 123.514 99.1422 125.448 99.1422 127.653C99.1422 129.757 98.6503 131.64 97.6664 133.302C96.6826 134.964 95.2916 136.27 93.4936 137.22C91.7295 138.136 89.6431 138.594 87.2344 138.594H77.413V152.181H71.3064ZM77.413 133.607H86.2675C88.4387 133.607 90.1011 133.064 91.2545 131.979C92.408 130.859 92.9847 129.401 92.9847 127.602C92.9847 125.838 92.408 124.43 91.2545 123.379C90.1011 122.293 88.4557 121.75 86.3184 121.75H77.413V133.607Z" fill="#0A0A0A"/>
<path d="M105.59 152.181V116.56H111.697V131.521H129.406V116.56H135.512V152.181H129.406V136.966H111.697V152.181H105.59Z" fill="#0A0A0A"/>
<path d="M139.843 152.181L153.837 116.56H160.91L167.806 134.371L174.701 152.181H168.136L164.472 142.207H149.868L146.204 152.181H139.843ZM151.649 137.424H162.793L157.195 122.361L151.649 137.424Z" fill="#0A0A0A"/>
<path d="M187.114 152.181V121.852H175.207V116.56H205.129V121.852H193.221V152.181H187.114Z" fill="#0A0A0A"/>
<path d="M225.009 152.741C222.498 152.741 220.14 152.283 217.935 151.367C215.764 150.417 213.847 149.111 212.185 147.449C210.556 145.753 209.284 143.802 208.368 141.597C207.452 139.358 206.994 136.949 206.994 134.371C206.994 131.792 207.452 129.401 208.368 127.195C209.284 124.956 210.556 123.006 212.185 121.343C213.847 119.647 215.764 118.341 217.935 117.425C220.14 116.475 222.498 116 225.009 116C227.519 116 229.86 116.475 232.031 117.425C234.236 118.341 236.153 119.647 237.781 121.343C239.444 123.006 240.733 124.956 241.649 127.195C242.565 129.401 243.023 131.792 243.023 134.371C243.023 136.949 242.565 139.358 241.649 141.597C240.733 143.802 239.444 145.753 237.781 147.449C236.153 149.111 234.236 150.417 232.031 151.367C229.86 152.283 227.519 152.741 225.009 152.741ZM225.009 147.245C226.671 147.245 228.214 146.923 229.639 146.278C231.064 145.634 232.302 144.735 233.354 143.581C234.44 142.394 235.271 141.02 235.848 139.459C236.458 137.899 236.764 136.203 236.764 134.371C236.764 132.539 236.458 130.842 235.848 129.282C235.271 127.721 234.44 126.364 233.354 125.211C232.302 124.023 231.064 123.107 229.639 122.463C228.214 121.818 226.671 121.496 225.009 121.496C223.346 121.496 221.803 121.818 220.378 122.463C218.953 123.107 217.698 124.023 216.612 125.211C215.56 126.364 214.729 127.721 214.118 129.282C213.508 130.842 213.202 132.539 213.202 134.371C213.202 136.203 213.508 137.899 214.118 139.459C214.729 141.02 215.56 142.394 216.612 143.581C217.698 144.735 218.953 145.634 220.378 146.278C221.803 146.923 223.346 147.245 225.009 147.245Z" fill="#0A0A0A"/>
<path d="M249.919 152.181V116.56H255.873L274.447 142.462L274.346 116.56H280.096V152.181H274.651L255.568 125.567L255.67 152.181H249.919Z" fill="#0A0A0A"/>
<path d="M82.4529 183.698C80.7356 183.698 79.1313 183.394 77.6401 182.786C76.1488 182.156 74.8382 181.289 73.7085 180.185C72.6013 179.06 71.7314 177.765 71.0987 176.302C70.4886 174.816 70.1836 173.217 70.1836 171.506C70.1836 169.795 70.4886 168.207 71.0987 166.744C71.7314 165.258 72.6013 163.963 73.7085 162.86C74.8382 161.734 76.1488 160.868 77.6401 160.26C79.1313 159.629 80.7356 159.314 82.4529 159.314C83.673 159.314 84.848 159.483 85.9777 159.821C87.1075 160.158 88.1582 160.642 89.1298 161.273C90.124 161.881 90.9826 162.635 91.7057 163.536L88.9942 166.17C88.1582 165.112 87.1753 164.312 86.0455 163.772C84.9158 163.232 83.7182 162.961 82.4529 162.961C81.3005 162.961 80.2272 163.175 79.233 163.603C78.2614 164.031 77.4028 164.639 76.6572 165.427C75.9341 166.192 75.3692 167.093 74.9625 168.129C74.5558 169.164 74.3524 170.29 74.3524 171.506C74.3524 172.722 74.5558 173.847 74.9625 174.883C75.3692 175.919 75.9341 176.831 76.6572 177.619C77.4028 178.384 78.2614 178.981 79.233 179.409C80.2272 179.836 81.3005 180.05 82.4529 180.05C83.7182 180.05 84.9158 179.78 86.0455 179.24C87.1753 178.677 88.1582 177.878 88.9942 176.842L91.7057 179.476C90.9826 180.354 90.124 181.109 89.1298 181.739C88.1582 182.369 87.1075 182.853 85.9777 183.191C84.848 183.529 83.673 183.698 82.4529 183.698Z" fill="#0A0A0A"/>
<path d="M93.1514 183.326L102.472 159.685H107.183L116.368 183.326H111.996L109.556 176.707H99.8283L97.388 183.326H93.1514ZM101.015 173.532H108.437L104.709 163.536L101.015 173.532Z" fill="#0A0A0A"/>
<path d="M119.427 183.326V159.685H130.036C131.64 159.685 133.03 160.001 134.205 160.631C135.402 161.239 136.329 162.095 136.984 163.198C137.639 164.301 137.967 165.584 137.967 167.048C137.967 168.444 137.639 169.693 136.984 170.797C136.329 171.9 135.402 172.767 134.205 173.397C133.03 174.005 131.64 174.309 130.036 174.309H123.495V183.326H119.427ZM123.495 170.999H129.392C130.838 170.999 131.945 170.639 132.714 169.919C133.482 169.176 133.866 168.207 133.866 167.014C133.866 165.843 133.482 164.909 132.714 164.211C131.945 163.491 130.849 163.13 129.426 163.13H123.495V170.999Z" fill="#0A0A0A"/>
<path d="M142.262 183.326V159.685H146.329V183.326H142.262Z" fill="#0A0A0A"/>
<path d="M157.795 183.326V163.198H149.864V159.685H169.794V163.198H161.863V183.326H157.795Z" fill="#0A0A0A"/>
<path d="M166.928 183.326L176.249 159.685H180.96L190.145 183.326H185.773L183.332 176.707H173.605L171.165 183.326H166.928ZM174.791 173.532H182.214L178.486 163.536L174.791 173.532Z" fill="#0A0A0A"/>
<path d="M193.204 183.326V159.685H197.271V179.814H209.914V183.326H193.204Z" fill="#0A0A0A"/>
<path d="M87.8613 195.114C87.8613 192.439 90.0295 190.271 92.7042 190.271H149.547V211.957H92.7042C90.0295 211.957 87.8613 209.788 87.8613 207.114V195.114Z" fill="#9CA3AF" fill-opacity="0.1"/>
<path d="M92.7041 190.574H149.244V211.654H92.7041C90.1967 211.654 88.1641 209.621 88.1641 207.114V195.114C88.1641 192.606 90.1967 190.574 92.7041 190.574Z" stroke="#9CA3AF" stroke-opacity="0.6" stroke-width="0.605357"/>
<path d="M94.3576 205.114V196.639H95.5926L100.326 202.934V196.639H101.525V205.114H100.411L95.5684 198.624V205.114H94.3576ZM102.413 205.114L105.912 196.639H107.413L110.876 205.114H109.496L108.515 202.632H104.726L103.733 205.114H102.413ZM105.137 201.578H108.103L106.626 197.849L105.137 201.578ZM114.797 205.235C114.119 205.235 113.465 205.102 112.835 204.835C112.206 204.569 111.649 204.194 111.164 203.709L111.939 202.813C112.399 203.265 112.867 203.6 113.344 203.818C113.828 204.036 114.332 204.145 114.857 204.145C115.269 204.145 115.628 204.089 115.935 203.976C116.249 203.855 116.492 203.685 116.661 203.467C116.831 203.249 116.915 203.003 116.915 202.729C116.915 202.349 116.782 202.059 116.516 201.857C116.249 201.655 115.81 201.502 115.196 201.397L113.78 201.167C113.005 201.03 112.424 200.779 112.036 200.416C111.657 200.053 111.467 199.569 111.467 198.963C111.467 198.479 111.596 198.055 111.855 197.692C112.113 197.321 112.476 197.034 112.944 196.832C113.42 196.631 113.969 196.53 114.591 196.53C115.204 196.53 115.805 196.631 116.395 196.832C116.992 197.026 117.529 197.309 118.005 197.68L117.303 198.649C116.391 197.954 115.466 197.607 114.53 197.607C114.159 197.607 113.836 197.66 113.562 197.765C113.287 197.87 113.073 198.019 112.92 198.213C112.767 198.398 112.69 198.616 112.69 198.866C112.69 199.214 112.807 199.48 113.041 199.666C113.275 199.843 113.663 199.972 114.203 200.053L115.571 200.283C116.467 200.428 117.125 200.691 117.545 201.07C117.965 201.449 118.174 201.97 118.174 202.632C118.174 203.148 118.033 203.604 117.751 204C117.468 204.387 117.073 204.69 116.564 204.908C116.056 205.126 115.466 205.235 114.797 205.235ZM120.624 203.976H122.367C122.811 203.976 123.223 203.899 123.602 203.746C123.981 203.584 124.312 203.366 124.595 203.092C124.885 202.809 125.107 202.482 125.261 202.111C125.422 201.732 125.503 201.32 125.503 200.876C125.503 200.44 125.422 200.033 125.261 199.653C125.107 199.274 124.885 198.947 124.595 198.673C124.312 198.39 123.981 198.172 123.602 198.019C123.223 197.858 122.811 197.777 122.367 197.777H120.624V203.976ZM119.352 205.114V196.639H122.343C122.98 196.639 123.57 196.748 124.11 196.966C124.651 197.176 125.123 197.47 125.527 197.849C125.93 198.229 126.245 198.677 126.471 199.193C126.697 199.71 126.81 200.271 126.81 200.876C126.81 201.49 126.697 202.055 126.471 202.571C126.253 203.08 125.943 203.524 125.539 203.903C125.135 204.282 124.659 204.581 124.11 204.799C123.57 205.009 122.98 205.114 122.343 205.114H119.352ZM126.864 205.114L130.363 196.639H131.864L135.327 205.114H133.947L132.966 202.632H129.176L128.184 205.114H126.864ZM129.588 201.578H132.554L131.077 197.849L129.588 201.578ZM142.555 205.392L141.974 204.69C141.659 204.86 141.32 204.997 140.957 205.102C140.594 205.199 140.214 205.247 139.819 205.247C139.197 205.247 138.616 205.138 138.076 204.92C137.543 204.694 137.075 204.383 136.671 203.988C136.268 203.584 135.953 203.12 135.727 202.595C135.509 202.063 135.4 201.49 135.4 200.876C135.4 200.263 135.509 199.694 135.727 199.169C135.953 198.636 136.268 198.172 136.671 197.777C137.075 197.373 137.543 197.063 138.076 196.845C138.616 196.619 139.197 196.506 139.819 196.506C140.432 196.506 141.005 196.619 141.538 196.845C142.071 197.063 142.539 197.373 142.943 197.777C143.346 198.172 143.661 198.636 143.887 199.169C144.113 199.694 144.226 200.263 144.226 200.876C144.226 201.498 144.105 202.083 143.863 202.632C143.621 203.181 143.29 203.653 142.87 204.048L143.742 205.114L142.555 205.392ZM139.819 204.073C140.069 204.073 140.307 204.044 140.533 203.988C140.767 203.931 140.985 203.847 141.187 203.734L140.097 202.414L141.296 202.123L142.083 203.08C142.349 202.797 142.555 202.466 142.7 202.087C142.854 201.708 142.931 201.304 142.931 200.876C142.931 200.416 142.85 199.992 142.688 199.605C142.527 199.218 142.305 198.883 142.022 198.6C141.74 198.31 141.409 198.084 141.03 197.922C140.658 197.761 140.255 197.68 139.819 197.68C139.375 197.68 138.963 197.761 138.584 197.922C138.205 198.084 137.874 198.31 137.591 198.6C137.309 198.883 137.087 199.218 136.925 199.605C136.772 199.992 136.695 200.416 136.695 200.876C136.695 201.328 136.772 201.752 136.925 202.148C137.087 202.535 137.309 202.874 137.591 203.165C137.874 203.447 138.205 203.669 138.584 203.83C138.963 203.992 139.375 204.073 139.819 204.073Z" fill="#9CA3AF"/>
<mask id="path-7-inside-1_2114_248" fill="white">
<path d="M149.547 190.271H187.39C190.064 190.271 192.233 192.439 192.233 195.114V207.114C192.233 209.788 190.064 211.957 187.39 211.957H149.547V190.271Z"/>
</mask>
<path d="M149.547 190.271H187.39C190.064 190.271 192.233 192.439 192.233 195.114V207.114C192.233 209.788 190.064 211.957 187.39 211.957H149.547V190.271Z" fill="#9CA3AF" fill-opacity="0.3"/>
<path d="M149.547 189.666H187.39C190.399 189.666 192.838 192.105 192.838 195.114L191.627 195.114C191.627 192.774 189.73 190.876 187.39 190.876H149.547V189.666ZM192.838 207.114C192.838 210.123 190.399 212.562 187.39 212.562H149.547V211.351H187.39C189.73 211.351 191.627 209.454 191.627 207.114L192.838 207.114ZM149.547 211.957V190.271V211.957ZM187.39 189.666C190.399 189.666 192.838 192.105 192.838 195.114V207.114C192.838 210.123 190.399 212.562 187.39 212.562L187.39 211.351C189.73 211.351 191.627 209.454 191.627 207.114V195.114C191.627 192.774 189.73 190.876 187.39 190.876L187.39 189.666Z" fill="#9CA3AF" fill-opacity="0.6" mask="url(#path-7-inside-1_2114_248)"/>
<path d="M154.676 205.114L158.175 196.639H159.676L163.139 205.114H161.758L160.778 202.632H156.988L155.995 205.114H154.676ZM157.4 201.578H160.366L158.889 197.849L157.4 201.578ZM164.812 205.114V197.765H161.833V196.639H169.061V197.765H166.083V205.114H164.812ZM173.589 205.247C172.976 205.247 172.403 205.138 171.87 204.92C171.338 204.694 170.865 204.383 170.454 203.988C170.05 203.584 169.735 203.12 169.509 202.595C169.291 202.063 169.182 201.49 169.182 200.876C169.182 200.263 169.291 199.694 169.509 199.169C169.735 198.636 170.05 198.172 170.454 197.777C170.865 197.373 171.338 197.063 171.87 196.845C172.403 196.619 172.976 196.506 173.589 196.506C174.203 196.506 174.776 196.619 175.309 196.845C175.849 197.063 176.322 197.373 176.725 197.777C177.129 198.172 177.444 198.636 177.67 199.169C177.896 199.694 178.009 200.263 178.009 200.876C178.009 201.49 177.896 202.063 177.67 202.595C177.444 203.12 177.129 203.584 176.725 203.988C176.322 204.383 175.849 204.694 175.309 204.92C174.776 205.138 174.203 205.247 173.589 205.247ZM173.602 204.073C174.037 204.073 174.441 203.992 174.812 203.83C175.192 203.669 175.523 203.447 175.805 203.165C176.088 202.874 176.31 202.535 176.471 202.148C176.632 201.752 176.713 201.328 176.713 200.876C176.713 200.416 176.632 199.992 176.471 199.605C176.31 199.218 176.088 198.883 175.805 198.6C175.523 198.31 175.192 198.084 174.812 197.922C174.441 197.761 174.037 197.68 173.602 197.68C173.158 197.68 172.746 197.761 172.367 197.922C171.987 198.084 171.656 198.31 171.374 198.6C171.091 198.883 170.869 199.218 170.708 199.605C170.555 199.992 170.478 200.416 170.478 200.876C170.478 201.328 170.555 201.752 170.708 202.148C170.869 202.535 171.091 202.874 171.374 203.165C171.656 203.447 171.987 203.669 172.367 203.83C172.746 203.992 173.158 204.073 173.602 204.073ZM179.347 205.114V196.639H180.582L185.316 202.934V196.639H186.515V205.114H185.401L180.558 198.624V205.114H179.347Z" fill="#9CA3AF"/>
</svg>
