<svg width="338" height="68" viewBox="0 0 338 68" fill="none" xmlns="http://www.w3.org/2000/svg">
<path d="M29.0737 46.4813C29.9542 48.0059 29.984 49.8773 29.1526 51.4293L20.3552 67.8507L11.5578 51.4293C10.7264 49.8774 10.7563 48.0059 11.6368 46.4813L12.7654 44.5269C12.9169 44.2646 13.1969 44.1029 13.4999 44.1029H27.2106C27.5136 44.1029 27.7935 44.2646 27.945 44.5269L29.0737 46.4813Z" fill="white"/>
<path d="M25.0069 39.4382C25.3333 40.0036 24.9253 40.7104 24.2724 40.7104H16.4381C15.7852 40.7104 15.3771 40.0036 15.7035 39.4382L19.6207 32.6532C19.9472 32.0878 20.7633 32.0878 21.0897 32.6532L25.0069 39.4382Z" fill="white"/>
<path d="M20.3552 1.96289e-07C21.3261 -0.000353982 22.2978 0.478593 22.8516 1.43868L39.8184 30.8467C42.3617 35.2571 39.1587 40.709 34.1043 40.7096H30.6382C30.3352 40.7096 30.0552 40.5479 29.9037 40.2855L21.0897 25.0199C20.7633 24.4545 19.9472 24.4545 19.6207 25.0199L10.8068 40.2855C10.6553 40.5479 10.3753 40.7096 10.0723 40.7096H6.60618C1.55186 40.7089 -1.65123 35.257 0.892051 30.8467L17.8589 1.43868C18.4126 0.478609 19.3843 -0.000328547 20.3552 1.96289e-07Z" fill="white"/>
<path d="M57.6738 36.2575L71.668 0.635939H78.7415L92.5321 36.2575H85.9676L82.3036 26.2835H67.6988L64.0348 36.2575H57.6738ZM69.4798 21.5H80.6243L75.0266 6.43717L69.4798 21.5Z" fill="white"/>
<path d="M97.1256 36.2575V0.635939H103.232V30.9652H122.213V36.2575H97.1256Z" fill="white"/>
<path d="M128.98 36.2575V0.635939H144.908C147.317 0.635939 149.403 1.11089 151.167 2.0608C152.965 2.97679 154.356 4.26595 155.34 5.92829C156.324 7.59063 156.816 9.52438 156.816 11.7295C156.816 13.8329 156.324 15.7158 155.34 17.3781C154.356 19.0404 152.965 20.3466 151.167 21.2965C149.403 22.2125 147.317 22.6704 144.908 22.6704H135.087V36.2575H128.98ZM135.087 17.6834H143.941C146.113 17.6834 147.775 17.1406 148.928 16.055C150.082 14.9355 150.659 13.4767 150.659 11.6786C150.659 9.91452 150.082 8.50662 148.928 7.45493C147.775 6.36932 146.13 5.82652 143.992 5.82652H135.087V17.6834Z" fill="white"/>
<path d="M163.264 36.2575V0.635939H169.371V15.597H187.08V0.635939H193.186V36.2575H187.08V21.042H169.371V36.2575H163.264Z" fill="white"/>
<path d="M197.516 36.2575L211.511 0.635939H218.584L225.479 18.4467L232.375 36.2575H225.81L222.146 26.2835H207.541L203.877 36.2575H197.516ZM209.322 21.5H220.467L214.869 6.43717L209.322 21.5Z" fill="white"/>
<path d="M244.788 36.2575V5.92829H232.88V0.635939H262.803V5.92829H250.895V36.2575H244.788Z" fill="white"/>
<path d="M282.682 36.8173C280.172 36.8173 277.814 36.3593 275.609 35.4433C273.438 34.4934 271.521 33.1873 269.859 31.525C268.23 29.8287 266.958 27.878 266.042 25.6728C265.126 23.4338 264.668 21.0251 264.668 18.4467C264.668 15.8684 265.126 13.4767 266.042 11.2715C266.958 9.03246 268.23 7.08175 269.859 5.41941C271.521 3.72315 273.438 2.41702 275.609 1.50104C277.814 0.551127 280.172 0.0761719 282.682 0.0761719C285.193 0.0761719 287.534 0.551127 289.705 1.50104C291.91 2.41702 293.827 3.72315 295.455 5.41941C297.118 7.08175 298.407 9.03246 299.323 11.2715C300.239 13.4767 300.697 15.8684 300.697 18.4467C300.697 21.0251 300.239 23.4338 299.323 25.6728C298.407 27.878 297.118 29.8287 295.455 31.525C293.827 33.1873 291.91 34.4934 289.705 35.4433C287.534 36.3593 285.193 36.8173 282.682 36.8173ZM282.682 31.3214C284.345 31.3214 285.888 30.9991 287.313 30.3545C288.738 29.71 289.976 28.8109 291.028 27.6575C292.114 26.4701 292.945 25.0961 293.521 23.5355C294.132 21.975 294.437 20.2787 294.437 18.4467C294.437 16.6148 294.132 14.9185 293.521 13.3579C292.945 11.7974 292.114 10.4404 291.028 9.2869C289.976 8.09952 288.738 7.18353 287.313 6.53895C285.888 5.89437 284.345 5.57208 282.682 5.57208C281.02 5.57208 279.476 5.89437 278.052 6.53895C276.627 7.18353 275.371 8.09952 274.286 9.2869C273.234 10.4404 272.403 11.7974 271.792 13.3579C271.182 14.9185 270.876 16.6148 270.876 18.4467C270.876 20.2787 271.182 21.975 271.792 23.5355C272.403 25.0961 273.234 26.4701 274.286 27.6575C275.371 28.8109 276.627 29.71 278.052 30.3545C279.476 30.9991 281.02 31.3214 282.682 31.3214Z" fill="white"/>
<path d="M307.593 36.2575V0.635939H313.547L332.121 26.5379L332.019 0.635939H337.77V36.2575H332.325L313.242 9.64312L313.344 36.2575H307.593Z" fill="white"/>
<path d="M57.6738 49.5826C57.6738 46.908 59.842 44.7397 62.5167 44.7397H119.36V66.4255H62.5167C59.842 66.4255 57.6738 64.2572 57.6738 61.5826V49.5826Z" fill="white" fill-opacity="0.1"/>
<path d="M62.5166 45.0425H119.057V66.1226H62.5166C60.0092 66.1225 57.9766 64.09 57.9766 61.5825V49.5825C57.9766 47.0751 60.0092 45.0425 62.5166 45.0425Z" stroke="white" stroke-opacity="0.6" stroke-width="0.605357"/>
<path d="M64.1701 59.5825V51.1075H65.4051L70.139 57.4032V51.1075H71.3376V59.5825H70.2237L65.3809 53.0931V59.5825H64.1701ZM72.2256 59.5825L75.7246 51.1075H77.2259L80.6885 59.5825H79.3083L78.3276 57.1006H74.5381L73.5453 59.5825H72.2256ZM74.9497 56.0472H77.916L76.4389 52.3182L74.9497 56.0472ZM84.6091 59.7036C83.9311 59.7036 83.2773 59.5704 82.6477 59.3041C82.0181 59.0377 81.4612 58.6624 80.9769 58.1781L81.7518 57.2822C82.2119 57.7342 82.68 58.0691 83.1562 58.2871C83.6405 58.505 84.145 58.6139 84.6696 58.6139C85.0812 58.6139 85.4404 58.5574 85.7471 58.4444C86.0619 58.3234 86.3041 58.1539 86.4736 57.9359C86.6431 57.718 86.7278 57.4718 86.7278 57.1974C86.7278 56.8181 86.5946 56.5275 86.3283 56.3257C86.0619 56.1239 85.622 55.9706 85.0086 55.8656L83.5921 55.6356C82.8172 55.4984 82.2361 55.2482 81.8486 54.8849C81.4693 54.5217 81.2796 54.0374 81.2796 53.4321C81.2796 52.9478 81.4087 52.5241 81.667 52.1608C81.9253 51.7896 82.2885 51.503 82.7567 51.3012C83.2329 51.0995 83.7817 50.9986 84.4032 50.9986C85.0167 50.9986 85.618 51.0995 86.2072 51.3012C86.8045 51.495 87.3412 51.7775 87.8175 52.1487L87.1152 53.1173C86.2032 52.4232 85.279 52.0761 84.3427 52.0761C83.9714 52.0761 83.6486 52.1286 83.3741 52.2335C83.0997 52.3384 82.8858 52.4877 82.7325 52.6814C82.5791 52.8671 82.5024 53.085 82.5024 53.3352C82.5024 53.6823 82.6195 53.9487 82.8535 54.1343C83.0876 54.3119 83.475 54.441 84.0158 54.5217L85.3839 54.7518C86.2799 54.8971 86.9377 55.1594 87.3574 55.5387C87.7771 55.9181 87.987 56.4387 87.987 57.1006C87.987 57.6171 87.8457 58.0732 87.5632 58.4687C87.2807 58.8561 86.8852 59.1588 86.3767 59.3767C85.8682 59.5946 85.279 59.7036 84.6091 59.7036ZM90.436 58.4444H92.1794C92.6234 58.4444 93.035 58.3678 93.4144 58.2144C93.7937 58.053 94.1247 57.8351 94.4072 57.5606C94.6977 57.2781 94.9197 56.9512 95.073 56.5799C95.2345 56.2006 95.3152 55.7889 95.3152 55.345C95.3152 54.9092 95.2345 54.5016 95.073 54.1222C94.9197 53.7428 94.6977 53.416 94.4072 53.1415C94.1247 52.859 93.7937 52.6411 93.4144 52.4877C93.035 52.3263 92.6234 52.2456 92.1794 52.2456H90.436V58.4444ZM89.1648 59.5825V51.1075H92.1552C92.7929 51.1075 93.3821 51.2165 93.9229 51.4344C94.4637 51.6443 94.9358 51.9389 95.3394 52.3182C95.743 52.6976 96.0578 53.1456 96.2838 53.6621C96.5098 54.1787 96.6228 54.7397 96.6228 55.345C96.6228 55.9584 96.5098 56.5234 96.2838 57.04C96.0658 57.5485 95.7551 57.9924 95.3515 58.3718C94.9479 58.7512 94.4717 59.0498 93.9229 59.2677C93.3821 59.4776 92.7929 59.5825 92.1552 59.5825H89.1648ZM96.6764 59.5825L100.175 51.1075H101.677L105.139 59.5825H103.759L102.778 57.1006H98.9889L97.9961 59.5825H96.6764ZM99.4005 56.0472H102.367L100.89 52.3182L99.4005 56.0472ZM112.368 59.861L111.787 59.1588C111.472 59.3283 111.133 59.4655 110.77 59.5704C110.406 59.6673 110.027 59.7157 109.631 59.7157C109.01 59.7157 108.429 59.6067 107.888 59.3888C107.355 59.1628 106.887 58.8521 106.484 58.4566C106.08 58.053 105.765 57.5889 105.539 57.0642C105.321 56.5315 105.212 55.9584 105.212 55.345C105.212 54.7316 105.321 54.1626 105.539 53.6379C105.765 53.1052 106.08 52.6411 106.484 52.2456C106.887 51.842 107.355 51.5313 107.888 51.3133C108.429 51.0873 109.01 50.9743 109.631 50.9743C110.245 50.9743 110.818 51.0873 111.351 51.3133C111.883 51.5313 112.352 51.842 112.755 52.2456C113.159 52.6411 113.473 53.1052 113.699 53.6379C113.925 54.1626 114.038 54.7316 114.038 55.345C114.038 55.9665 113.917 56.5517 113.675 57.1006C113.433 57.6494 113.102 58.1216 112.682 58.5171L113.554 59.5825L112.368 59.861ZM109.631 58.5413C109.882 58.5413 110.12 58.5131 110.346 58.4566C110.58 58.4001 110.798 58.3153 111 58.2023L109.91 56.8826L111.109 56.5921L111.896 57.5485C112.162 57.266 112.368 56.9351 112.513 56.5557C112.666 56.1764 112.743 55.7728 112.743 55.345C112.743 54.8849 112.662 54.4612 112.501 54.0738C112.339 53.6863 112.117 53.3514 111.835 53.0689C111.552 52.7783 111.222 52.5523 110.842 52.3909C110.471 52.2295 110.067 52.1487 109.631 52.1487C109.188 52.1487 108.776 52.2295 108.397 52.3909C108.017 52.5523 107.686 52.7783 107.404 53.0689C107.121 53.3514 106.899 53.6863 106.738 54.0738C106.585 54.4612 106.508 54.8849 106.508 55.345C106.508 55.797 106.585 56.2208 106.738 56.6163C106.899 57.0037 107.121 57.3427 107.404 57.6333C107.686 57.9158 108.017 58.1377 108.397 58.2992C108.776 58.4606 109.188 58.5413 109.631 58.5413Z" fill="white"/>
<mask id="path-6-inside-1_2114_288" fill="white">
<path d="M119.359 44.7397H157.202C159.877 44.7397 162.045 46.908 162.045 49.5826V61.5826C162.045 64.2572 159.877 66.4255 157.202 66.4255H119.359V44.7397Z"/>
</mask>
<path d="M119.359 44.7397H157.202C159.877 44.7397 162.045 46.908 162.045 49.5826V61.5826C162.045 64.2572 159.877 66.4255 157.202 66.4255H119.359V44.7397Z" fill="white" fill-opacity="0.3"/>
<path d="M119.359 44.1344H157.202C160.211 44.1344 162.65 46.5736 162.65 49.5826L161.44 49.5826C161.44 47.2423 159.543 45.3451 157.202 45.3451H119.359V44.1344ZM162.65 61.5826C162.65 64.5916 160.211 67.0308 157.202 67.0308H119.359V65.8201H157.202C159.543 65.8201 161.44 63.9229 161.44 61.5826L162.65 61.5826ZM119.359 66.4255V44.7397V66.4255ZM157.202 44.1344C160.211 44.1344 162.65 46.5736 162.65 49.5826V61.5826C162.65 64.5916 160.211 67.0308 157.202 67.0308L157.202 65.8201C159.543 65.8201 161.44 63.9229 161.44 61.5826V49.5826C161.44 47.2423 159.543 45.3451 157.202 45.3451L157.202 44.1344Z" fill="white" fill-opacity="0.6" mask="url(#path-6-inside-1_2114_288)"/>
<path d="M124.488 59.5825L127.987 51.1075H129.488L132.951 59.5825H131.571L130.59 57.1006H126.801L125.808 59.5825H124.488ZM127.212 56.0472H130.178L128.701 52.3182L127.212 56.0472ZM134.624 59.5825V52.2335H131.646V51.1075H138.874V52.2335H135.895V59.5825H134.624ZM143.402 59.7157C142.789 59.7157 142.215 59.6067 141.683 59.3888C141.15 59.1628 140.678 58.8521 140.266 58.4566C139.863 58.053 139.548 57.5889 139.322 57.0642C139.104 56.5315 138.995 55.9584 138.995 55.345C138.995 54.7316 139.104 54.1626 139.322 53.6379C139.548 53.1052 139.863 52.6411 140.266 52.2456C140.678 51.842 141.15 51.5313 141.683 51.3133C142.215 51.0873 142.789 50.9743 143.402 50.9743C144.015 50.9743 144.588 51.0873 145.121 51.3133C145.662 51.5313 146.134 51.842 146.538 52.2456C146.941 52.6411 147.256 53.1052 147.482 53.6379C147.708 54.1626 147.821 54.7316 147.821 55.345C147.821 55.9584 147.708 56.5315 147.482 57.0642C147.256 57.5889 146.941 58.053 146.538 58.4566C146.134 58.8521 145.662 59.1628 145.121 59.3888C144.588 59.6067 144.015 59.7157 143.402 59.7157ZM143.414 58.5413C143.85 58.5413 144.253 58.4606 144.625 58.2992C145.004 58.1377 145.335 57.9158 145.618 57.6333C145.9 57.3427 146.122 57.0037 146.283 56.6163C146.445 56.2208 146.526 55.797 146.526 55.345C146.526 54.8849 146.445 54.4612 146.283 54.0738C146.122 53.6863 145.9 53.3514 145.618 53.0689C145.335 52.7783 145.004 52.5523 144.625 52.3909C144.253 52.2295 143.85 52.1487 143.414 52.1487C142.97 52.1487 142.558 52.2295 142.179 52.3909C141.8 52.5523 141.469 52.7783 141.186 53.0689C140.904 53.3514 140.682 53.6863 140.52 54.0738C140.367 54.4612 140.29 54.8849 140.29 55.345C140.29 55.797 140.367 56.2208 140.52 56.6163C140.682 57.0037 140.904 57.3427 141.186 57.6333C141.469 57.9158 141.8 58.1377 142.179 58.2992C142.558 58.4606 142.97 58.5413 143.414 58.5413ZM149.16 59.5825V51.1075H150.395L155.129 57.4032V51.1075H156.327V59.5825H155.213L150.37 53.0931V59.5825H149.16Z" fill="white"/>
<path d="M210.308 67.7745C208.591 67.7745 206.987 67.4705 205.496 66.8626C204.004 66.2322 202.694 65.3653 201.564 64.2621C200.457 63.1364 199.587 61.8417 198.954 60.3783C198.344 58.8923 198.039 57.2937 198.039 55.5825C198.039 53.8714 198.344 52.2841 198.954 50.8206C199.587 49.3346 200.457 48.04 201.564 46.9368C202.694 45.811 204.004 44.9442 205.496 44.3363C206.987 43.7058 208.591 43.3906 210.308 43.3906C211.528 43.3906 212.703 43.5595 213.833 43.8972C214.963 44.2349 216.014 44.719 216.985 45.3494C217.979 45.9573 218.838 46.7116 219.561 47.6122L216.85 50.2465C216.014 49.1883 215.031 48.389 213.901 47.8486C212.771 47.3082 211.574 47.0381 210.308 47.0381C209.156 47.0381 208.083 47.252 207.088 47.6797C206.117 48.1075 205.258 48.7154 204.513 49.5035C203.79 50.269 203.225 51.1696 202.818 52.2053C202.411 53.241 202.208 54.3667 202.208 55.5825C202.208 56.7984 202.411 57.9241 202.818 58.9598C203.225 59.9955 203.79 60.9074 204.513 61.6954C205.258 62.4609 206.117 63.0576 207.088 63.4853C208.083 63.9131 209.156 64.127 210.308 64.127C211.574 64.127 212.771 63.8568 213.901 63.3165C215.031 62.7536 216.014 61.9543 216.85 60.9186L219.561 63.5529C218.838 64.431 217.979 65.1852 216.985 65.8156C216.014 66.4461 214.963 66.9301 213.833 67.2679C212.703 67.6056 211.528 67.7745 210.308 67.7745Z" fill="white"/>
<path d="M221.007 67.403L230.327 43.7621H235.039L244.224 67.403H239.851L237.411 60.7835H227.684L225.243 67.403H221.007ZM228.87 57.6089H236.293L232.564 47.6122L228.87 57.6089Z" fill="white"/>
<path d="M247.283 67.403V43.7621H257.891C259.496 43.7621 260.885 44.0773 262.06 44.7078C263.258 45.3157 264.184 46.1712 264.84 47.2745C265.495 48.3777 265.822 49.6611 265.822 51.1246C265.822 52.5205 265.495 53.7701 264.84 54.8733C264.184 55.9766 263.258 56.8434 262.06 57.4738C260.885 58.0817 259.496 58.3857 257.891 58.3857H251.35V67.403H247.283ZM251.35 55.076H257.247C258.694 55.076 259.801 54.7157 260.569 53.9952C261.337 53.2522 261.721 52.2841 261.721 51.0908C261.721 49.92 261.337 48.9856 260.569 48.2877C259.801 47.5672 258.705 47.2069 257.281 47.2069H251.35V55.076Z" fill="white"/>
<path d="M270.117 67.403V43.7621H274.184V67.403H270.117Z" fill="white"/>
<path d="M285.651 67.403V47.2745H277.72V43.7621H297.649V47.2745H289.718V67.403H285.651Z" fill="white"/>
<path d="M294.784 67.403L304.104 43.7621H308.815L318 67.403H313.628L311.188 60.7835H301.461L299.02 67.403H294.784ZM302.647 57.6089H310.069L306.341 47.6122L302.647 57.6089Z" fill="white"/>
<path d="M321.06 67.403V43.7621H325.127V63.8906H337.769V67.403H321.06Z" fill="white"/>
</svg>
