<svg width="338" height="68" viewBox="0 0 338 68" fill="none" xmlns="http://www.w3.org/2000/svg">
<path d="M29.0737 46.4813C29.9542 48.0059 29.984 49.8773 29.1526 51.4293L20.3552 67.8507L11.5578 51.4293C10.7264 49.8774 10.7563 48.0059 11.6368 46.4813L12.7654 44.5269C12.9169 44.2646 13.1969 44.1029 13.4999 44.1029H27.2106C27.5136 44.1029 27.7935 44.2646 27.945 44.5269L29.0737 46.4813Z" fill="#0A0A0A"/>
<path d="M25.0069 39.4382C25.3333 40.0036 24.9253 40.7104 24.2724 40.7104H16.4381C15.7852 40.7104 15.3771 40.0036 15.7035 39.4382L19.6207 32.6532C19.9472 32.0878 20.7633 32.0878 21.0897 32.6532L25.0069 39.4382Z" fill="#0A0A0A"/>
<path d="M20.3552 1.96289e-07C21.3261 -0.000353982 22.2978 0.478593 22.8516 1.43868L39.8184 30.8467C42.3617 35.2571 39.1587 40.709 34.1043 40.7096H30.6382C30.3352 40.7096 30.0552 40.5479 29.9037 40.2855L21.0897 25.0199C20.7633 24.4545 19.9472 24.4545 19.6207 25.0199L10.8068 40.2855C10.6553 40.5479 10.3753 40.7096 10.0723 40.7096H6.60618C1.55186 40.7089 -1.65123 35.257 0.892051 30.8467L17.8589 1.43868C18.4126 0.478609 19.3843 -0.000328547 20.3552 1.96289e-07Z" fill="#0A0A0A"/>
<path d="M57.6738 36.2575L71.668 0.635939H78.7415L92.5321 36.2575H85.9676L82.3036 26.2835H67.6988L64.0348 36.2575H57.6738ZM69.4798 21.5H80.6243L75.0266 6.43717L69.4798 21.5Z" fill="#0A0A0A"/>
<path d="M97.1256 36.2575V0.635939H103.232V30.9652H122.213V36.2575H97.1256Z" fill="#0A0A0A"/>
<path d="M128.98 36.2575V0.635939H144.908C147.317 0.635939 149.403 1.11089 151.167 2.0608C152.965 2.97679 154.356 4.26595 155.34 5.92829C156.324 7.59063 156.816 9.52438 156.816 11.7295C156.816 13.8329 156.324 15.7158 155.34 17.3781C154.356 19.0404 152.965 20.3466 151.167 21.2965C149.403 22.2125 147.317 22.6704 144.908 22.6704H135.087V36.2575H128.98ZM135.087 17.6834H143.941C146.113 17.6834 147.775 17.1406 148.928 16.055C150.082 14.9355 150.659 13.4767 150.659 11.6786C150.659 9.91452 150.082 8.50662 148.928 7.45493C147.775 6.36932 146.13 5.82652 143.992 5.82652H135.087V17.6834Z" fill="#0A0A0A"/>
<path d="M163.264 36.2575V0.635939H169.371V15.597H187.08V0.635939H193.186V36.2575H187.08V21.042H169.371V36.2575H163.264Z" fill="#0A0A0A"/>
<path d="M197.516 36.2575L211.511 0.635939H218.584L225.479 18.4467L232.375 36.2575H225.81L222.146 26.2835H207.541L203.877 36.2575H197.516ZM209.322 21.5H220.467L214.869 6.43717L209.322 21.5Z" fill="#0A0A0A"/>
<path d="M244.788 36.2575V5.92829H232.88V0.635939H262.803V5.92829H250.895V36.2575H244.788Z" fill="#0A0A0A"/>
<path d="M282.682 36.8173C280.172 36.8173 277.814 36.3593 275.609 35.4433C273.438 34.4934 271.521 33.1873 269.859 31.525C268.23 29.8287 266.958 27.878 266.042 25.6728C265.126 23.4338 264.668 21.0251 264.668 18.4467C264.668 15.8684 265.126 13.4767 266.042 11.2715C266.958 9.03246 268.23 7.08175 269.859 5.41941C271.521 3.72315 273.438 2.41702 275.609 1.50104C277.814 0.551127 280.172 0.0761719 282.682 0.0761719C285.193 0.0761719 287.534 0.551127 289.705 1.50104C291.91 2.41702 293.827 3.72315 295.455 5.41941C297.118 7.08175 298.407 9.03246 299.323 11.2715C300.239 13.4767 300.697 15.8684 300.697 18.4467C300.697 21.0251 300.239 23.4338 299.323 25.6728C298.407 27.878 297.118 29.8287 295.455 31.525C293.827 33.1873 291.91 34.4934 289.705 35.4433C287.534 36.3593 285.193 36.8173 282.682 36.8173ZM282.682 31.3214C284.345 31.3214 285.888 30.9991 287.313 30.3545C288.738 29.71 289.976 28.8109 291.028 27.6575C292.114 26.4701 292.945 25.0961 293.521 23.5355C294.132 21.975 294.437 20.2787 294.437 18.4467C294.437 16.6148 294.132 14.9185 293.521 13.3579C292.945 11.7974 292.114 10.4404 291.028 9.2869C289.976 8.09952 288.738 7.18353 287.313 6.53895C285.888 5.89437 284.345 5.57208 282.682 5.57208C281.02 5.57208 279.476 5.89437 278.052 6.53895C276.627 7.18353 275.371 8.09952 274.286 9.2869C273.234 10.4404 272.403 11.7974 271.792 13.3579C271.182 14.9185 270.876 16.6148 270.876 18.4467C270.876 20.2787 271.182 21.975 271.792 23.5355C272.403 25.0961 273.234 26.4701 274.286 27.6575C275.371 28.8109 276.627 29.71 278.052 30.3545C279.476 30.9991 281.02 31.3214 282.682 31.3214Z" fill="#0A0A0A"/>
<path d="M307.593 36.2575V0.635939H313.547L332.121 26.5379L332.019 0.635939H337.77V36.2575H332.325L313.242 9.64312L313.344 36.2575H307.593Z" fill="#0A0A0A"/>
<path d="M57.6738 49.5821C57.6738 46.9075 59.842 44.7393 62.5167 44.7393H119.36V66.425H62.5167C59.842 66.425 57.6738 64.2567 57.6738 61.5821V49.5821Z" fill="#9CA3AF" fill-opacity="0.1"/>
<path d="M62.5166 45.042H119.057V66.1221H62.5166C60.0092 66.122 57.9766 64.0895 57.9766 61.582V49.582C57.9766 47.0746 60.0092 45.042 62.5166 45.042Z" stroke="#9CA3AF" stroke-opacity="0.6" stroke-width="0.605357"/>
<path d="M64.1701 59.582V51.107H65.4051L70.139 57.4027V51.107H71.3376V59.582H70.2237L65.3809 53.0926V59.582H64.1701ZM72.2256 59.582L75.7246 51.107H77.2259L80.6885 59.582H79.3083L78.3276 57.1001H74.5381L73.5453 59.582H72.2256ZM74.9497 56.0467H77.916L76.4389 52.3177L74.9497 56.0467ZM84.6091 59.7031C83.9311 59.7031 83.2773 59.5699 82.6477 59.3036C82.0181 59.0372 81.4612 58.6619 80.9769 58.1776L81.7518 57.2817C82.2119 57.7337 82.68 58.0686 83.1562 58.2866C83.6405 58.5045 84.145 58.6135 84.6696 58.6135C85.0812 58.6135 85.4404 58.557 85.7471 58.444C86.0619 58.3229 86.3041 58.1534 86.4736 57.9355C86.6431 57.7175 86.7278 57.4714 86.7278 57.1969C86.7278 56.8176 86.5946 56.527 86.3283 56.3252C86.0619 56.1234 85.622 55.9701 85.0086 55.8651L83.5921 55.6351C82.8172 55.4979 82.2361 55.2477 81.8486 54.8845C81.4693 54.5212 81.2796 54.037 81.2796 53.4316C81.2796 52.9473 81.4087 52.5236 81.667 52.1604C81.9253 51.7891 82.2885 51.5025 82.7567 51.3007C83.2329 51.099 83.7817 50.9981 84.4032 50.9981C85.0167 50.9981 85.618 51.099 86.2072 51.3007C86.8045 51.4945 87.3412 51.777 87.8175 52.1482L87.1152 53.1168C86.2032 52.4227 85.279 52.0756 84.3427 52.0756C83.9714 52.0756 83.6486 52.1281 83.3741 52.233C83.0997 52.3379 82.8858 52.4872 82.7325 52.681C82.5791 52.8666 82.5024 53.0845 82.5024 53.3347C82.5024 53.6818 82.6195 53.9482 82.8535 54.1338C83.0876 54.3114 83.475 54.4405 84.0158 54.5212L85.3839 54.7513C86.2799 54.8966 86.9377 55.1589 87.3574 55.5382C87.7771 55.9176 87.987 56.4382 87.987 57.1001C87.987 57.6166 87.8457 58.0727 87.5632 58.4682C87.2807 58.8556 86.8852 59.1583 86.3767 59.3762C85.8682 59.5941 85.279 59.7031 84.6091 59.7031ZM90.436 58.444H92.1794C92.6234 58.444 93.035 58.3673 93.4144 58.2139C93.7937 58.0525 94.1247 57.8346 94.4072 57.5601C94.6977 57.2776 94.9197 56.9507 95.073 56.5795C95.2345 56.2001 95.3152 55.7885 95.3152 55.3445C95.3152 54.9087 95.2345 54.5011 95.073 54.1217C94.9197 53.7424 94.6977 53.4155 94.4072 53.141C94.1247 52.8585 93.7937 52.6406 93.4144 52.4872C93.035 52.3258 92.6234 52.2451 92.1794 52.2451H90.436V58.444ZM89.1648 59.582V51.107H92.1552C92.7929 51.107 93.3821 51.216 93.9229 51.4339C94.4637 51.6438 94.9358 51.9384 95.3394 52.3177C95.743 52.6971 96.0578 53.1451 96.2838 53.6616C96.5098 54.1782 96.6228 54.7392 96.6228 55.3445C96.6228 55.958 96.5098 56.523 96.2838 57.0395C96.0658 57.548 95.7551 57.992 95.3515 58.3713C94.9479 58.7507 94.4717 59.0493 93.9229 59.2672C93.3821 59.4771 92.7929 59.582 92.1552 59.582H89.1648ZM96.6764 59.582L100.175 51.107H101.677L105.139 59.582H103.759L102.778 57.1001H98.9889L97.9961 59.582H96.6764ZM99.4005 56.0467H102.367L100.89 52.3177L99.4005 56.0467ZM112.368 59.8605L111.787 59.1583C111.472 59.3278 111.133 59.465 110.77 59.5699C110.406 59.6668 110.027 59.7152 109.631 59.7152C109.01 59.7152 108.429 59.6062 107.888 59.3883C107.355 59.1623 106.887 58.8516 106.484 58.4561C106.08 58.0525 105.765 57.5884 105.539 57.0637C105.321 56.531 105.212 55.958 105.212 55.3445C105.212 54.7311 105.321 54.1621 105.539 53.6374C105.765 53.1047 106.08 52.6406 106.484 52.2451C106.887 51.8415 107.355 51.5308 107.888 51.3129C108.429 51.0869 109.01 50.9739 109.631 50.9739C110.245 50.9739 110.818 51.0869 111.351 51.3129C111.883 51.5308 112.352 51.8415 112.755 52.2451C113.159 52.6406 113.473 53.1047 113.699 53.6374C113.925 54.1621 114.038 54.7311 114.038 55.3445C114.038 55.966 113.917 56.5512 113.675 57.1001C113.433 57.6489 113.102 58.1211 112.682 58.5166L113.554 59.582L112.368 59.8605ZM109.631 58.5408C109.882 58.5408 110.12 58.5126 110.346 58.4561C110.58 58.3996 110.798 58.3148 111 58.2018L109.91 56.8821L111.109 56.5916L111.896 57.548C112.162 57.2655 112.368 56.9346 112.513 56.5552C112.666 56.1759 112.743 55.7723 112.743 55.3445C112.743 54.8845 112.662 54.4607 112.501 54.0733C112.339 53.6859 112.117 53.3509 111.835 53.0684C111.552 52.7778 111.222 52.5518 110.842 52.3904C110.471 52.229 110.067 52.1482 109.631 52.1482C109.188 52.1482 108.776 52.229 108.397 52.3904C108.017 52.5518 107.686 52.7778 107.404 53.0684C107.121 53.3509 106.899 53.6859 106.738 54.0733C106.585 54.4607 106.508 54.8845 106.508 55.3445C106.508 55.7965 106.585 56.2203 106.738 56.6158C106.899 57.0032 107.121 57.3422 107.404 57.6328C107.686 57.9153 108.017 58.1372 108.397 58.2987C108.776 58.4601 109.188 58.5408 109.631 58.5408Z" fill="#9CA3AF"/>
<mask id="path-6-inside-1_2114_235" fill="white">
<path d="M119.359 44.7393H157.202C159.877 44.7393 162.045 46.9075 162.045 49.5821V61.5821C162.045 64.2568 159.877 66.425 157.202 66.425H119.359V44.7393Z"/>
</mask>
<path d="M119.359 44.7393H157.202C159.877 44.7393 162.045 46.9075 162.045 49.5821V61.5821C162.045 64.2568 159.877 66.425 157.202 66.425H119.359V44.7393Z" fill="#9CA3AF" fill-opacity="0.3"/>
<path d="M119.359 44.1339H157.202C160.211 44.1339 162.65 46.5731 162.65 49.5821L161.44 49.5821C161.44 47.2418 159.543 45.3446 157.202 45.3446H119.359V44.1339ZM162.65 61.5821C162.65 64.5911 160.211 67.0303 157.202 67.0303H119.359V65.8196H157.202C159.543 65.8196 161.44 63.9224 161.44 61.5821L162.65 61.5821ZM119.359 66.425V44.7393V66.425ZM157.202 44.1339C160.211 44.1339 162.65 46.5731 162.65 49.5821V61.5821C162.65 64.5911 160.211 67.0303 157.202 67.0303L157.202 65.8196C159.543 65.8196 161.44 63.9224 161.44 61.5821V49.5821C161.44 47.2418 159.543 45.3446 157.202 45.3446L157.202 44.1339Z" fill="#9CA3AF" fill-opacity="0.6" mask="url(#path-6-inside-1_2114_235)"/>
<path d="M124.488 59.582L127.987 51.107H129.488L132.951 59.582H131.571L130.59 57.1001H126.801L125.808 59.582H124.488ZM127.212 56.0467H130.178L128.701 52.3177L127.212 56.0467ZM134.624 59.582V52.233H131.646V51.107H138.874V52.233H135.895V59.582H134.624ZM143.402 59.7152C142.789 59.7152 142.215 59.6062 141.683 59.3883C141.15 59.1623 140.678 58.8516 140.266 58.4561C139.863 58.0525 139.548 57.5884 139.322 57.0637C139.104 56.531 138.995 55.958 138.995 55.3445C138.995 54.7311 139.104 54.1621 139.322 53.6374C139.548 53.1047 139.863 52.6406 140.266 52.2451C140.678 51.8415 141.15 51.5308 141.683 51.3129C142.215 51.0869 142.789 50.9739 143.402 50.9739C144.015 50.9739 144.588 51.0869 145.121 51.3129C145.662 51.5308 146.134 51.8415 146.538 52.2451C146.941 52.6406 147.256 53.1047 147.482 53.6374C147.708 54.1621 147.821 54.7311 147.821 55.3445C147.821 55.958 147.708 56.531 147.482 57.0637C147.256 57.5884 146.941 58.0525 146.538 58.4561C146.134 58.8516 145.662 59.1623 145.121 59.3883C144.588 59.6062 144.015 59.7152 143.402 59.7152ZM143.414 58.5408C143.85 58.5408 144.253 58.4601 144.625 58.2987C145.004 58.1372 145.335 57.9153 145.618 57.6328C145.9 57.3422 146.122 57.0032 146.283 56.6158C146.445 56.2203 146.526 55.7965 146.526 55.3445C146.526 54.8845 146.445 54.4607 146.283 54.0733C146.122 53.6859 145.9 53.3509 145.618 53.0684C145.335 52.7778 145.004 52.5518 144.625 52.3904C144.253 52.229 143.85 52.1482 143.414 52.1482C142.97 52.1482 142.558 52.229 142.179 52.3904C141.8 52.5518 141.469 52.7778 141.186 53.0684C140.904 53.3509 140.682 53.6859 140.52 54.0733C140.367 54.4607 140.29 54.8845 140.29 55.3445C140.29 55.7965 140.367 56.2203 140.52 56.6158C140.682 57.0032 140.904 57.3422 141.186 57.6328C141.469 57.9153 141.8 58.1372 142.179 58.2987C142.558 58.4601 142.97 58.5408 143.414 58.5408ZM149.16 59.582V51.107H150.395L155.129 57.4027V51.107H156.327V59.582H155.213L150.37 53.0926V59.582H149.16Z" fill="#9CA3AF"/>
<path d="M210.308 67.774C208.591 67.774 206.987 67.47 205.496 66.8621C204.004 66.2317 202.694 65.3649 201.564 64.2616C200.457 63.1359 199.587 61.8412 198.954 60.3778C198.344 58.8918 198.039 57.2932 198.039 55.5821C198.039 53.8709 198.344 52.2836 198.954 50.8201C199.587 49.3341 200.457 48.0395 201.564 46.9363C202.694 45.8105 204.004 44.9437 205.496 44.3358C206.987 43.7053 208.591 43.3901 210.308 43.3901C211.528 43.3901 212.703 43.559 213.833 43.8967C214.963 44.2345 216.014 44.7185 216.985 45.3489C217.979 45.9569 218.838 46.7111 219.561 47.6117L216.85 50.246C216.014 49.1878 215.031 48.3885 213.901 47.8481C212.771 47.3078 211.574 47.0376 210.308 47.0376C209.156 47.0376 208.083 47.2515 207.088 47.6793C206.117 48.107 205.258 48.715 204.513 49.503C203.79 50.2685 203.225 51.1691 202.818 52.2048C202.411 53.2405 202.208 54.3662 202.208 55.5821C202.208 56.7979 202.411 57.9236 202.818 58.9593C203.225 59.995 203.79 60.9069 204.513 61.6949C205.258 62.4604 206.117 63.0571 207.088 63.4848C208.083 63.9126 209.156 64.1265 210.308 64.1265C211.574 64.1265 212.771 63.8563 213.901 63.316C215.031 62.7531 216.014 61.9538 216.85 60.9181L219.561 63.5524C218.838 64.4305 217.979 65.1847 216.985 65.8152C216.014 66.4456 214.963 66.9297 213.833 67.2674C212.703 67.6051 211.528 67.774 210.308 67.774Z" fill="#0A0A0A"/>
<path d="M221.007 67.4025L230.327 43.7616H235.039L244.224 67.4025H239.851L237.411 60.783H227.684L225.243 67.4025H221.007ZM228.87 57.6084H236.293L232.564 47.6117L228.87 57.6084Z" fill="#0A0A0A"/>
<path d="M247.283 67.4025V43.7616H257.891C259.496 43.7616 260.885 44.0768 262.06 44.7073C263.258 45.3152 264.184 46.1707 264.84 47.274C265.495 48.3772 265.822 49.6606 265.822 51.1241C265.822 52.52 265.495 53.7696 264.84 54.8728C264.184 55.9761 263.258 56.8429 262.06 57.4733C260.885 58.0812 259.496 58.3852 257.891 58.3852H251.35V67.4025H247.283ZM251.35 55.0755H257.247C258.694 55.0755 259.801 54.7152 260.569 53.9947C261.337 53.2517 261.721 52.2836 261.721 51.0903C261.721 49.9195 261.337 48.9851 260.569 48.2872C259.801 47.5667 258.705 47.2064 257.281 47.2064H251.35V55.0755Z" fill="#0A0A0A"/>
<path d="M270.117 67.4025V43.7616H274.184V67.4025H270.117Z" fill="#0A0A0A"/>
<path d="M285.651 67.4025V47.274H277.72V43.7616H297.649V47.274H289.718V67.4025H285.651Z" fill="#0A0A0A"/>
<path d="M294.784 67.4025L304.104 43.7616H308.815L318 67.4025H313.628L311.188 60.783H301.461L299.02 67.4025H294.784ZM302.647 57.6084H310.069L306.341 47.6117L302.647 57.6084Z" fill="#0A0A0A"/>
<path d="M321.06 67.4025V43.7616H325.127V63.8901H337.769V67.4025H321.06Z" fill="#0A0A0A"/>
</svg>
