<svg width="90" height="149" viewBox="0 0 90 149" fill="none" xmlns="http://www.w3.org/2000/svg">
<path d="M63.7022 101.843C65.6314 105.184 65.6968 109.284 63.8751 112.685L44.5995 148.665L25.3239 112.685C23.5023 109.284 23.5677 105.184 25.4968 101.843L27.9698 97.5612C28.3018 96.9863 28.9152 96.6322 29.579 96.6322H59.6201C60.2839 96.6322 60.8973 96.9863 61.2293 97.5612L63.7022 101.843Z" fill="white"/>
<path d="M54.7916 86.4115C55.5069 87.6504 54.6128 89.199 53.1823 89.199H36.0168C34.5863 89.199 33.6922 87.6504 34.4074 86.4115L42.9902 71.5452C43.7054 70.3062 45.4936 70.3062 46.2089 71.5452L54.7916 86.4115Z" fill="white"/>
<path d="M44.5995 4.30082e-07C46.7268 -0.000775596 48.8558 1.04863 50.0692 3.15223L87.2445 67.587C92.8171 77.2504 85.799 89.1959 74.7245 89.1972H67.1301C66.4662 89.1972 65.8527 88.843 65.5208 88.268L46.2089 54.8201C45.4936 53.5812 43.7055 53.5812 42.9902 54.8201L23.6783 88.268C23.3463 88.843 22.7329 89.1972 22.069 89.1972H14.4746C3.40021 89.1957 -3.61795 77.2503 1.95454 67.587L39.1299 3.15223C40.3432 1.04866 42.4723 -0.000719866 44.5995 4.30082e-07Z" fill="white"/>
</svg>
