<svg xmlns:xlink="http://www.w3.org/1999/xlink" xmlns="http://www.w3.org/2000/svg" style="width:100%;height:100%;" preserveAspectRatio="none" width="62" height="35"><defs><svg viewBox="0 0 62 35" overflow="visible" id="svg368443239_10623"><path d="M 58.944 0.024 C 58.322 0.105 57.701 0.155 57.089 0.308 C 56.832 0.373 56.536 0.427 56.383 0.669 C 56.231 0.91 56.28 1.322 56.297 1.595 C 56.334 2.19 56.87 2.044 57.266 1.954 C 58.076 1.771 60.178 1.334 59.954 2.832 C 59.898 3.205 59.011 3.122 58.723 3.149 C 57.53 3.265 56.335 3.346 55.463 4.291 C 54.263 5.593 54.521 7.803 56.295 8.44 C 57.238 8.779 58.287 8.544 59.254 8.452 C 59.982 8.382 60.794 8.417 61.506 8.244 C 61.895 8.149 61.947 7.817 61.948 7.472 L 61.948 5.44 C 61.948 3.532 62.508 0.542 59.96 0.063 C 59.629 0 59.279 -0.021 58.944 0.024 M 38.365 1.595 L 38.585 2.877 L 38.541 2.921 C 37.761 2.575 36.749 2.48 36.03 2.025 C 35.684 1.805 35.881 1.27 35.317 1.168 C 34.586 1.036 33.87 1.911 34.383 2.554 C 34.594 2.818 35.014 2.876 35.317 2.764 C 35.45 2.714 35.616 2.539 35.763 2.607 C 35.978 2.706 36.167 2.976 36.333 3.142 C 36.767 3.576 37.26 4.01 37.614 4.512 C 37.287 4.561 36.972 4.793 36.643 4.805 C 36.446 4.812 36.33 4.587 36.156 4.518 C 35.688 4.333 35.133 4.709 35.152 5.219 C 35.185 6.063 36.24 5.919 36.51 5.307 C 36.796 5.426 37.445 5.629 37.613 5.894 C 37.75 6.11 37.72 6.515 37.753 6.765 C 37.804 7.153 37.933 7.524 38.111 7.87 C 38.646 8.911 39.567 9.565 40.661 9.917 C 41.002 10.027 41.327 10.009 41.677 10.042 C 45.671 10.422 48.336 5.141 45.677 2.171 C 44.56 0.924 42.722 0.678 41.191 1.155 C 40.836 1.265 40.492 1.402 40.175 1.598 C 40.023 1.693 39.838 1.89 39.645 1.866 C 39.413 1.837 38.859 1.463 38.786 1.238 C 38.636 0.776 38.891 0.089 38.055 0.19 C 37.481 0.259 37.111 1.02 37.574 1.453 C 37.808 1.671 38.076 1.632 38.365 1.595 M 19.728 0.466 C 19.242 0.529 18.422 0.421 18.01 0.705 C 17.678 0.934 17.629 2.049 18.007 2.251 C 18.436 2.479 19.529 2.257 19.993 2.16 C 20.729 2.009 20.667 0.342 19.728 0.466 M 51.26 0.731 C 50.698 0.804 50.166 0.817 49.626 1.024 C 49.357 1.128 49.102 1.287 48.875 1.464 C 47.51 2.53 47.727 4.069 47.727 5.617 C 47.727 6.643 47.59 7.733 48.402 8.514 C 49.593 9.659 51.817 9.304 53.203 8.709 C 53.635 8.524 53.966 7.359 53.419 7.112 C 53.149 6.991 52.806 7.16 52.541 7.223 C 51.849 7.386 50.499 7.818 49.95 7.203 C 49.647 6.864 49.714 6.39 49.714 5.97 C 49.714 5.025 49.308 3.009 50.421 2.573 C 51.026 2.336 51.856 2.42 52.497 2.436 C 52.781 2.443 53.164 2.575 53.422 2.403 C 53.773 2.167 53.769 1.154 53.422 0.921 C 52.932 0.592 51.821 0.657 51.26 0.731 M 31.122 2.542 C 30.484 2.626 29.837 2.611 29.223 2.827 C 28.897 2.942 28.484 3.349 28.163 3.374 C 27.988 3.388 27.791 3.225 27.633 3.163 C 27.367 3.059 27.076 3.012 26.794 2.978 C 26.414 2.933 26.023 3.01 25.645 3.046 C 24.441 3.161 23.341 3.329 22.524 4.336 C 21.916 5.084 21.936 5.944 21.936 6.854 L 21.936 9.991 C 21.936 10.497 21.677 11.83 22.466 11.794 C 22.845 11.776 23.557 11.807 23.816 11.489 C 24.047 11.205 23.923 10.56 23.923 10.212 L 23.923 6.854 C 23.923 6.13 23.812 5.297 24.585 4.91 C 24.845 4.78 25.185 4.794 25.469 4.773 C 25.912 4.741 26.41 4.578 26.793 4.883 C 27.239 5.238 27.147 5.771 27.147 6.279 L 27.147 9.593 C 27.147 10.006 26.988 10.852 27.293 11.174 C 27.561 11.458 28.304 11.282 28.648 11.219 C 29.482 11.068 29.179 9.504 29.179 8.886 L 29.179 6.059 C 29.179 5.458 29.13 4.934 29.664 4.531 C 30.081 4.216 31.012 4.211 31.519 4.218 C 31.924 4.223 32.331 4.549 32.393 4.954 C 32.464 5.42 32.402 5.94 32.402 6.412 L 32.402 9.284 C 32.402 9.875 32.187 10.839 33.021 10.831 C 33.362 10.827 33.985 10.838 34.247 10.592 C 34.485 10.369 34.434 9.977 34.434 9.682 L 34.434 7.517 C 34.434 5.894 34.871 3.602 33.065 2.774 C 32.826 2.663 32.574 2.585 32.314 2.543 C 31.942 2.485 31.494 2.493 31.122 2.542 M 19.374 3.603 C 18.988 3.653 18.368 3.575 18.158 3.982 C 17.932 4.42 18.094 5.263 18.094 5.749 L 18.094 10.079 C 18.094 10.545 17.899 11.599 18.205 11.973 C 18.455 12.279 19.206 12.106 19.551 12.054 C 20.371 11.933 20.125 10.818 20.125 10.212 L 20.125 5.086 C 20.125 4.434 20.318 3.478 19.374 3.602 M 13.103 4.177 C 12.471 4.26 11.817 4.235 11.204 4.439 C 10.89 4.544 10.594 4.685 10.321 4.874 C 8.755 5.96 9.04 7.788 9.04 9.461 L 9.04 12.112 C 9.04 12.447 9.014 12.875 9.438 12.942 C 9.822 13.003 10.763 12.968 10.977 12.596 C 11.225 12.166 11.072 11.357 11.072 10.874 L 11.072 7.826 C 11.072 7.404 10.978 6.865 11.233 6.5 C 11.595 5.982 12.134 5.968 12.706 5.922 C 13.009 5.897 13.381 5.812 13.677 5.912 C 14.259 6.109 14.296 6.695 14.296 7.207 L 14.296 10.874 C 14.296 11.527 14.058 12.487 14.958 12.465 C 15.327 12.456 16.018 12.488 16.219 12.11 C 16.343 11.876 16.283 11.529 16.283 11.272 L 16.283 9.461 C 16.283 7.738 16.79 5.369 14.958 4.428 C 14.72 4.306 14.47 4.232 14.207 4.185 C 13.862 4.124 13.451 4.131 13.103 4.177 M 59.96 4.777 L 59.96 6.677 C 59.296 6.69 58.636 6.83 57.973 6.854 C 57.697 6.864 57.439 6.923 57.178 6.789 C 56.494 6.438 56.631 5.483 57.223 5.12 C 57.566 4.91 58.026 4.934 58.414 4.905 C 58.93 4.868 59.443 4.777 59.96 4.777 M 4.359 4.972 C 3.676 5.062 3.002 5.113 2.328 5.273 C 1.958 5.361 1.604 5.491 1.579 5.926 C 1.562 6.21 1.494 6.708 1.727 6.919 C 1.932 7.106 2.228 6.98 2.46 6.926 C 3.034 6.795 3.641 6.733 4.226 6.685 C 4.788 6.638 5.38 7.242 5.228 7.823 C 5.141 8.157 4.238 8.08 3.962 8.116 C 2.763 8.273 1.643 8.287 0.745 9.241 C -0.467 10.529 -0.198 12.708 1.533 13.374 C 2.498 13.746 3.585 13.496 4.58 13.401 C 5.298 13.332 6.085 13.364 6.788 13.199 C 7.102 13.125 7.221 12.85 7.229 12.553 C 7.247 11.862 7.23 11.168 7.23 10.477 C 7.23 8.536 7.797 5.723 5.375 5.055 C 5.053 4.966 4.691 4.929 4.359 4.972 M 43.178 7.09 C 43.961 6.942 44.021 8.095 43.311 8.25 C 42.525 8.421 42.431 7.23 43.178 7.089 M 41.103 7.266 C 41.89 7.128 41.905 8.332 41.191 8.435 C 40.411 8.547 40.37 7.394 41.103 7.266 M 5.242 11.626 C 4.453 11.66 3.402 12.015 2.637 11.806 C 1.831 11.585 1.834 10.602 2.416 10.141 C 2.884 9.77 3.705 9.863 4.271 9.807 C 4.459 9.788 5.067 9.633 5.197 9.797 C 5.289 9.911 5.242 10.163 5.242 10.3 L 5.242 11.626 M 46.005 11.184 L 46.005 11.228 C 48.258 11.275 49.187 13.675 49.14 15.603 C 49.1 17.24 48.49 18.999 46.976 19.83 C 46.318 20.192 45.593 20.311 44.857 20.382 C 43.996 20.466 43.071 20.631 42.207 20.594 C 41.821 20.577 41.474 20.417 41.364 20.021 C 41.216 19.487 41.279 18.89 41.279 18.342 L 41.279 15.381 C 41.279 14.396 41.077 13.15 41.358 12.2 C 41.438 11.931 41.64 11.773 41.765 11.537 L 39.027 11.803 C 39.406 12.642 39.248 13.678 39.248 14.586 C 39.248 16.367 39.374 18.201 39.244 19.977 C 39.191 20.694 38.647 21.178 37.923 21.073 C 37.23 20.971 36.81 20.093 36.447 19.579 C 35.406 18.103 34.382 16.615 33.374 15.116 L 33.33 15.116 C 33.33 16.84 33.338 18.563 33.33 20.286 C 33.327 20.883 33.03 21.616 32.314 21.563 C 31.357 21.493 31.563 20.096 31.563 19.447 L 31.563 15.47 C 31.563 14.397 31.505 13.432 31.873 12.421 C 30.236 12.628 28.488 12.862 26.838 12.863 C 26.944 13.114 27.131 13.319 27.241 13.57 C 28.002 15.308 28.68 17.085 29.431 18.828 C 29.687 19.421 30.395 20.518 30.129 21.17 C 29.927 21.666 29.261 22.053 28.782 21.682 C 28.169 21.207 28.304 20.186 27.779 19.694 C 27.615 19.541 27.092 19.655 26.882 19.68 C 26.271 19.752 25.642 19.815 25.027 19.842 C 24.769 19.854 24.336 19.814 24.11 19.947 C 23.928 20.054 23.878 20.367 23.809 20.551 C 23.588 21.146 23.402 22.266 22.643 22.368 C 21.252 22.553 21.874 20.888 22.13 20.242 C 23.082 17.842 23.882 15.37 24.983 13.04 L 19.065 13.57 L 19.065 13.614 C 20.753 14.015 20.983 16.31 19.973 17.457 C 19.503 17.99 18.828 18.064 18.314 18.475 C 19.333 19.1 20.18 20.183 20.608 21.302 C 20.876 22.002 20.375 22.808 19.551 22.57 C 19.07 22.432 18.808 21.92 18.561 21.524 C 18.075 20.745 17.618 19.787 16.901 19.196 C 16.34 18.733 15.663 18.917 15.002 18.917 L 15.002 21.126 C 15.002 21.559 15.047 22.038 14.889 22.451 C 14.67 23.026 13.783 23.345 13.359 22.801 C 12.935 22.256 13.147 21.161 13.147 20.507 L 13.147 16.84 C 13.147 15.872 13.102 14.981 13.368 14.056 C 12.254 14.263 10.968 14.364 9.835 14.365 L 9.835 14.41 C 10.948 15.067 11.516 16.32 10.759 17.502 C 10.505 17.899 10.02 18.097 9.791 18.474 C 11.803 18.895 11.984 21.275 10.63 22.536 C 9.52 23.57 7.706 23.43 6.302 23.564 C 5.553 23.635 4.841 23.785 4.138 23.468 C 4.14 23.996 4.639 23.978 5.066 24.093 C 6.035 24.354 7.007 24.608 7.98 24.854 C 12.183 25.919 16.38 27.03 20.567 28.158 C 27.03 29.899 33.51 31.606 39.999 33.25 C 41.651 33.67 43.3 34.104 44.945 34.552 C 45.385 34.671 45.828 34.784 46.27 34.895 C 46.417 34.933 46.646 35.039 46.795 34.985 C 47.023 34.901 47.183 34.487 47.304 34.293 C 47.711 33.642 48.133 33 48.541 32.349 C 50.086 29.88 51.677 27.439 53.222 24.97 C 54.22 23.375 55.216 21.77 56.25 20.198 C 56.718 19.489 57.487 18.637 57.487 17.768 L 57.443 17.768 C 56.692 19.564 54.132 20.133 52.408 19.661 C 51.467 19.403 50.314 18.42 50.446 17.326 C 50.511 16.779 51.196 16.259 51.701 16.638 C 52.172 16.99 52.199 17.667 52.637 18.054 C 53.487 18.804 55.379 18.46 55.803 17.37 C 56.027 16.797 55.795 16.21 55.235 15.952 C 54.074 15.416 52.683 15.669 51.569 14.946 C 49.695 13.728 50.85 11.32 52.541 10.654 C 52.061 10.454 51.074 10.727 50.553 10.779 C 49.047 10.929 47.517 11.119 46.005 11.184 M 57.443 15.426 L 57.487 15.426 L 57.487 12.2 C 57.269 12.273 57.303 12.503 57.204 12.686 C 57.043 12.981 56.692 13.253 56.339 13.206 C 55.657 13.116 55.531 12.042 54.926 11.755 C 54.301 11.458 53.294 11.626 52.762 12.047 C 52.314 12.401 52.146 13.061 52.631 13.464 C 52.952 13.731 53.385 13.788 53.777 13.874 C 54.987 14.14 56.803 14.141 57.443 15.426 M 33.418 12.289 L 34.982 14.542 L 37.481 18.121 L 37.525 18.121 L 37.525 14.277 C 37.525 13.487 37.442 12.678 37.746 11.935 L 33.418 12.289 M 43.134 19.049 C 44.063 19.048 45.403 19.048 46.181 18.484 C 47.251 17.709 47.332 16.041 47.204 14.851 C 47.142 14.265 47.01 13.716 46.61 13.262 C 45.984 12.551 44.86 12.712 44.017 12.771 C 43.826 12.784 43.308 12.727 43.179 12.889 C 43.094 12.998 43.134 13.22 43.134 13.349 L 43.134 19.049 M 25.866 14.63 L 24.542 18.475 L 27.28 18.254 L 26.382 15.867 L 25.866 14.63 M 15.002 15.072 L 15.002 17.591 C 15.942 17.591 17.374 17.608 18.182 17.071 C 18.849 16.628 18.929 15.482 18.182 15.068 C 17.323 14.592 15.939 15.072 15.002 15.072 M 5.772 18.21 C 6.618 18.207 7.94 18.23 8.687 17.796 C 9.231 17.479 9.488 16.636 9.129 16.091 C 8.68 15.408 7.359 15.748 6.7 15.778 C 6.504 15.786 5.949 15.738 5.818 15.901 C 5.709 16.034 5.772 16.368 5.772 16.53 L 5.772 18.21 M 5.772 19.535 L 5.772 22.231 C 6.797 22.149 8.251 22.267 9.128 21.653 C 9.788 21.193 9.896 19.973 9.128 19.554 C 8.188 19.039 6.783 19.532 5.772 19.535 Z" fill="#9CA3AF"></path></svg></defs><use href="#svg368443239_10623"></use></svg>