<svg xmlns:xlink="http://www.w3.org/1999/xlink" xmlns="http://www.w3.org/2000/svg" style="width:100%;height:100%;" preserveAspectRatio="none" width="79" height="27"><defs><svg viewBox="0 0 79 27" overflow="visible" id="svg-1239607651_3109"><g><path d="M 79 14.083 C 79 17.522 76.818 19.843 73.743 19.843 C 70.667 19.843 68.485 17.522 68.485 14.083 C 68.485 10.644 70.667 8.324 73.743 8.324 C 76.818 8.324 79 10.644 79 14.083 Z M 70.999 14.083 C 70.999 16.341 72.059 17.712 73.743 17.712 C 75.426 17.712 76.485 16.341 76.485 14.083 C 76.485 11.826 75.426 10.454 73.743 10.454 C 72.059 10.454 70.999 11.826 70.999 14.084 Z M 64.951 19.611 L 64.951 18.05 C 64.348 19.062 62.894 19.843 60.94 19.843 C 57.075 19.843 54.207 16.678 54.207 12.1 C 54.207 7.501 57.096 4.231 61.107 4.231 C 64.161 4.231 66.218 5.898 67.133 8.577 L 64.597 9.442 C 64.161 7.649 62.914 6.615 61.127 6.615 C 58.613 6.615 56.867 8.788 56.867 12.058 C 56.867 15.328 58.613 17.522 61.169 17.522 C 63.33 17.522 64.743 15.961 64.826 13.809 L 60.899 13.809 L 60.899 11.446 L 67.382 11.446 L 67.382 19.611 Z M 48.703 16.826 L 48.703 10.686 L 47.186 10.686 L 47.186 8.534 L 48.703 8.534 L 48.703 5.286 L 51.155 5.286 L 51.155 8.534 L 53.441 8.534 L 53.441 10.687 L 51.155 10.687 L 51.155 16.425 C 51.155 17.417 51.716 17.522 52.609 17.522 C 53.025 17.522 53.254 17.501 53.628 17.459 L 53.628 19.59 C 53.17 19.674 52.547 19.737 51.903 19.737 C 49.825 19.737 48.703 19.083 48.703 16.826 Z M 43.796 7.058 L 43.796 4.463 L 46.373 4.463 L 46.373 7.058 Z M 46.331 8.535 L 46.331 19.611 L 43.837 19.611 L 43.837 8.535 Z M 31.469 19.611 L 31.469 4.463 L 37.392 4.463 C 40.592 4.463 42.296 5.877 42.296 8.451 C 42.296 10.328 41.215 11.299 40.176 11.721 C 41.735 12.227 42.773 13.535 42.773 15.392 C 42.773 18.05 40.841 19.611 37.765 19.611 Z M 34.025 10.729 L 37.142 10.729 C 38.846 10.729 39.781 10.054 39.781 8.725 C 39.781 7.396 38.846 6.742 37.142 6.742 L 34.025 6.742 Z M 34.025 13.008 L 34.025 17.333 L 37.62 17.333 C 39.303 17.333 40.218 16.446 40.218 15.16 C 40.218 13.894 39.303 13.008 37.62 13.008 Z" fill="#9CA3AF"></path><path d="M 22.721 15.326 C 22.721 21.567 11.361 27 11.361 27 C 11.361 27 0 21.567 0 15.326 C 0 13.705 0.001 12.275 0.002 10.907 C 0.002 8.187 0.004 5.716 0 2.494 C 7.215 -0.834 15.508 -0.831 22.721 2.501 Z M 9.008 4.458 L 9.008 5.924 L 7.542 5.924 L 7.542 18.142 L 9.008 18.142 L 9.008 19.608 L 10.474 19.608 L 10.474 18.142 L 11.94 18.142 L 11.94 19.608 L 13.405 19.608 L 13.405 18.001 C 15.268 17.605 16.337 16.392 16.337 14.592 C 16.337 13.334 15.531 12.197 14.152 11.835 C 15.37 11.473 16.068 10.421 16.068 9.25 C 16.068 7.582 15.069 6.413 13.405 6.047 L 13.405 4.458 L 11.94 4.458 L 11.94 5.924 L 10.474 5.924 L 10.474 4.458 Z M 11.769 7.837 C 13.005 7.837 13.722 8.406 13.722 9.37 C 13.722 10.335 13.041 10.904 11.895 10.904 L 9.835 10.904 L 9.835 7.837 Z M 11.912 12.765 C 13.292 12.765 13.99 13.334 13.99 14.471 C 13.99 15.506 13.148 16.143 11.787 16.143 L 9.835 16.143 L 9.835 12.765 Z" fill="#9CA3AF"></path></g></svg></defs><use href="#svg-1239607651_3109"></use></svg>