<svg xmlns:xlink="http://www.w3.org/1999/xlink" xmlns="http://www.w3.org/2000/svg" style="width:100%;height:100%;" width="161" height="62"><defs><svg viewBox="0 0 161 62" id="svg12151949992"><path d="M 8.658 61.978 C 8.477 61.959 8.223 61.909 8.094 61.867 C 7.789 61.767 7.431 61.703 6.975 61.667 C 6.582 61.636 6.393 61.582 6.311 61.48 C 6.251 61.405 6.019 61.331 5.709 61.289 C 5.572 61.27 5.43 61.212 5.343 61.138 C 5.265 61.072 5.065 60.977 4.898 60.927 C 4.731 60.876 4.568 60.797 4.535 60.75 C 4.502 60.703 4.378 60.621 4.26 60.569 C 3.969 60.44 3.256 59.911 2.919 59.575 C 2.834 59.49 2.732 59.421 2.691 59.421 C 2.651 59.421 2.618 59.4 2.618 59.374 C 2.618 59.347 2.507 59.202 2.371 59.051 C 1.739 58.348 1.302 57.761 1.302 57.615 C 1.302 57.571 1.239 57.47 1.163 57.392 C 1.034 57.259 0.927 56.997 0.926 56.813 C 0.926 56.769 0.863 56.665 0.786 56.58 C 0.692 56.476 0.638 56.357 0.618 56.211 C 0.551 55.703 0.498 55.48 0.413 55.34 C 0.279 55.121 0.221 54.568 0.221 53.523 C 0.221 52.394 0.277 51.841 0.406 51.665 C 0.458 51.594 0.521 51.396 0.548 51.215 C 0.575 51.037 0.608 50.823 0.622 50.74 C 0.636 50.656 0.701 50.523 0.768 50.444 C 0.834 50.365 0.919 50.18 0.957 50.034 C 0.995 49.888 1.086 49.691 1.159 49.597 C 1.232 49.504 1.307 49.374 1.325 49.309 C 1.343 49.244 1.416 49.116 1.487 49.025 C 1.558 48.934 1.643 48.807 1.676 48.742 C 1.832 48.441 2.889 47.341 3.37 46.98 C 3.512 46.873 3.65 46.761 3.675 46.73 C 3.701 46.699 3.798 46.649 3.891 46.62 C 3.984 46.59 4.119 46.503 4.193 46.426 C 4.266 46.349 4.398 46.272 4.485 46.256 C 4.572 46.24 4.728 46.155 4.831 46.069 C 4.958 45.962 5.089 45.902 5.239 45.88 C 5.362 45.862 5.592 45.778 5.751 45.694 C 5.95 45.589 6.14 45.53 6.356 45.507 C 6.542 45.487 6.798 45.415 6.983 45.331 C 7.287 45.193 7.324 45.188 8.54 45.123 C 9.225 45.087 9.829 45.047 9.882 45.034 C 9.935 45.022 10.284 45.033 10.658 45.059 C 11.031 45.085 11.662 45.126 12.059 45.151 C 12.705 45.191 12.814 45.21 13.093 45.336 C 13.285 45.422 13.553 45.495 13.79 45.525 C 14.075 45.561 14.233 45.609 14.401 45.712 C 14.545 45.801 14.726 45.863 14.901 45.885 C 15.077 45.906 15.219 45.956 15.3 46.024 C 15.479 46.173 15.586 46.222 15.818 46.26 C 15.938 46.28 16.084 46.349 16.173 46.428 C 16.257 46.502 16.422 46.587 16.541 46.617 C 16.676 46.651 16.813 46.731 16.911 46.832 C 17.099 47.027 17.198 47.035 17.326 46.864 C 17.51 46.615 17.578 46.568 17.758 46.568 C 17.986 46.568 18.158 46.635 18.218 46.748 C 18.254 46.816 18.238 46.888 18.15 47.055 C 18.087 47.175 18.035 47.303 18.035 47.339 C 18.035 47.376 17.983 47.458 17.919 47.522 C 17.856 47.586 17.759 47.743 17.704 47.871 C 17.65 47.999 17.573 48.122 17.534 48.144 C 17.495 48.166 17.402 48.32 17.328 48.487 C 17.254 48.653 17.173 48.789 17.149 48.789 C 17.125 48.789 17.051 48.905 16.985 49.046 C 16.918 49.188 16.821 49.326 16.769 49.354 C 16.716 49.383 16.652 49.493 16.622 49.605 C 16.527 49.965 16.373 50.043 16.038 49.903 C 15.844 49.822 15.79 49.663 15.867 49.405 C 15.961 49.088 15.937 48.983 15.72 48.78 C 15.61 48.677 15.411 48.53 15.277 48.452 C 15.144 48.375 15.009 48.281 14.977 48.243 C 14.946 48.205 14.809 48.141 14.672 48.101 C 14.535 48.061 14.347 47.968 14.255 47.894 C 14.163 47.821 14.008 47.746 13.911 47.728 C 13.555 47.664 13.38 47.602 13.294 47.509 C 13.234 47.444 13.103 47.399 12.883 47.368 C 12.144 47.262 11.972 47.224 11.754 47.123 C 11.531 47.02 11.484 47.017 9.95 47.017 L 8.376 47.017 L 8.077 47.15 C 7.838 47.256 7.288 47.367 6.984 47.371 C 6.968 47.371 6.877 47.434 6.781 47.511 C 6.678 47.593 6.502 47.672 6.347 47.704 C 6.205 47.734 6.047 47.799 5.997 47.849 C 5.947 47.9 5.793 47.991 5.654 48.052 C 5.516 48.114 5.388 48.188 5.371 48.217 C 5.353 48.246 5.218 48.353 5.071 48.454 C 4.53 48.827 3.717 49.705 3.485 50.169 C 3.441 50.255 3.353 50.382 3.289 50.451 C 3.22 50.525 3.153 50.673 3.129 50.806 C 3.106 50.931 3.022 51.138 2.943 51.266 C 2.816 51.472 2.795 51.561 2.756 52.032 C 2.733 52.326 2.692 52.657 2.667 52.768 C 2.606 53.031 2.606 53.65 2.665 54.011 C 2.691 54.167 2.733 54.525 2.758 54.808 C 2.796 55.238 2.822 55.346 2.919 55.474 C 2.982 55.558 3.069 55.762 3.112 55.929 C 3.155 56.095 3.233 56.272 3.285 56.321 C 3.337 56.37 3.411 56.484 3.448 56.574 C 3.661 57.087 4.993 58.452 5.579 58.759 C 5.644 58.793 5.764 58.879 5.845 58.951 C 5.927 59.022 6.08 59.095 6.185 59.113 C 6.313 59.135 6.415 59.191 6.492 59.283 C 6.589 59.399 6.642 59.421 6.826 59.421 C 6.988 59.421 7.142 59.47 7.42 59.612 L 7.796 59.802 L 8.834 59.871 C 9.743 59.931 10.003 59.931 10.943 59.871 L 12.016 59.802 L 12.392 59.611 C 12.696 59.458 12.819 59.421 13.028 59.421 C 13.225 59.421 13.288 59.404 13.288 59.351 C 13.288 59.267 13.484 59.162 13.725 59.118 C 13.827 59.099 13.979 59.018 14.078 58.929 C 14.173 58.844 14.312 58.759 14.385 58.741 C 14.521 58.708 14.784 58.525 15.376 58.051 C 15.761 57.744 15.868 57.641 15.979 57.471 C 16.082 57.312 16.082 57.288 15.964 57.029 C 15.911 56.911 15.874 56.781 15.882 56.738 C 15.902 56.637 16.279 56.35 16.393 56.35 C 16.448 56.35 16.588 56.482 16.755 56.692 C 16.904 56.881 17.079 57.089 17.143 57.155 C 17.207 57.222 17.482 57.538 17.753 57.859 C 18.024 58.179 18.347 58.559 18.47 58.702 C 18.715 58.989 18.733 59.06 18.611 59.275 C 18.531 59.416 18.518 59.421 18.198 59.421 C 17.927 59.421 17.854 59.404 17.788 59.327 C 17.72 59.248 17.69 59.241 17.589 59.288 C 17.524 59.317 17.471 59.36 17.471 59.381 C 17.471 59.403 17.417 59.421 17.35 59.421 C 17.274 59.421 17.186 59.473 17.11 59.564 C 17.045 59.642 16.9 59.76 16.788 59.826 C 16.677 59.892 16.558 59.978 16.525 60.019 C 16.491 60.059 16.352 60.143 16.215 60.203 C 16.078 60.264 15.954 60.345 15.939 60.383 C 15.925 60.421 15.793 60.501 15.646 60.56 C 15.499 60.619 15.362 60.695 15.342 60.729 C 15.288 60.818 15.081 60.915 14.862 60.954 C 14.759 60.973 14.618 61.042 14.549 61.107 C 14.456 61.196 14.313 61.249 14 61.312 C 13.752 61.362 13.52 61.44 13.44 61.5 C 13.345 61.57 13.186 61.615 12.931 61.645 C 12.115 61.741 11.82 61.793 11.561 61.884 C 11.325 61.967 11.143 61.981 10.138 61.996 C 9.505 62.005 8.839 61.997 8.658 61.978 Z M 66.622 61.706 C 66.61 61.694 65.74 61.681 64.688 61.675 L 62.774 61.666 L 62.684 61.554 C 62.487 61.31 62.635 60.981 62.942 60.981 C 63.153 60.981 63.315 60.845 63.315 60.669 C 63.314 60.125 62.328 57.571 61.839 57.317 C 61.713 57.251 61.227 57.243 57.531 57.246 C 55.24 57.248 53.319 57.262 53.262 57.276 C 52.737 57.408 51.583 60.933 52.068 60.933 C 52.263 60.933 52.395 61.082 52.395 61.301 C 52.395 61.399 52.363 61.525 52.323 61.582 C 52.252 61.684 52.245 61.684 50.389 61.688 C 48.289 61.692 48.352 61.702 48.352 61.348 C 48.352 61.067 48.418 60.981 48.631 60.981 C 48.782 60.981 48.862 60.939 49.097 60.739 C 49.253 60.607 49.403 60.435 49.429 60.358 C 49.456 60.281 49.54 60.139 49.616 60.042 C 49.692 59.946 49.769 59.787 49.788 59.689 C 49.806 59.591 49.85 59.482 49.886 59.446 C 49.921 59.41 49.95 59.361 49.95 59.337 C 49.95 59.314 49.991 59.258 50.04 59.213 C 50.089 59.168 50.143 59.038 50.16 58.922 C 50.177 58.807 50.24 58.654 50.299 58.583 C 50.439 58.413 50.495 58.299 50.531 58.105 C 50.548 58.018 50.621 57.869 50.695 57.774 C 50.769 57.68 50.855 57.497 50.886 57.369 C 50.918 57.241 51.005 57.058 51.08 56.963 C 51.155 56.868 51.239 56.687 51.267 56.562 C 51.295 56.436 51.378 56.265 51.452 56.18 C 51.53 56.09 51.6 55.942 51.62 55.823 C 51.64 55.708 51.721 55.532 51.807 55.419 C 51.893 55.305 51.973 55.133 51.991 55.02 C 52.009 54.904 52.078 54.759 52.157 54.668 C 52.237 54.576 52.312 54.415 52.344 54.268 C 52.376 54.118 52.451 53.959 52.534 53.863 C 52.61 53.776 52.686 53.625 52.704 53.527 C 52.744 53.307 52.808 53.178 52.916 53.101 C 52.962 53.068 53.026 52.92 53.059 52.771 C 53.097 52.6 53.167 52.451 53.248 52.365 C 53.331 52.278 53.396 52.136 53.431 51.968 C 53.464 51.807 53.527 51.667 53.594 51.604 C 53.653 51.549 53.737 51.383 53.779 51.237 C 53.822 51.09 53.917 50.893 53.991 50.799 C 54.065 50.706 54.14 50.545 54.157 50.442 C 54.175 50.34 54.239 50.187 54.301 50.102 C 54.449 49.898 54.497 49.798 54.555 49.563 C 54.582 49.456 54.665 49.292 54.739 49.199 C 54.813 49.105 54.887 48.943 54.904 48.839 C 54.92 48.733 54.992 48.581 55.067 48.495 C 55.14 48.41 55.226 48.234 55.257 48.104 C 55.289 47.974 55.375 47.791 55.449 47.698 C 55.523 47.604 55.599 47.445 55.617 47.343 C 55.658 47.114 55.709 47.012 55.88 46.815 C 55.981 46.698 56.014 46.611 56.014 46.463 C 56.014 46.288 55.988 46.243 55.775 46.045 C 55.582 45.865 55.531 45.786 55.51 45.627 C 55.489 45.465 55.503 45.41 55.593 45.314 L 55.701 45.198 L 57.646 45.198 C 59.293 45.198 59.612 45.209 59.729 45.27 C 59.879 45.348 59.942 45.508 59.896 45.695 C 59.863 45.827 59.606 46.096 59.512 46.096 C 59.422 46.096 59.257 46.329 59.257 46.458 C 59.257 46.524 59.324 46.639 59.418 46.733 C 59.535 46.851 59.593 46.965 59.632 47.153 C 59.664 47.306 59.73 47.456 59.796 47.522 C 59.857 47.584 59.939 47.758 59.979 47.91 C 60.018 48.063 60.103 48.243 60.168 48.311 C 60.233 48.379 60.309 48.541 60.338 48.671 C 60.369 48.806 60.46 48.996 60.553 49.116 C 60.642 49.231 60.714 49.375 60.714 49.437 C 60.714 49.57 60.824 49.797 60.948 49.922 C 60.997 49.971 61.051 50.104 61.068 50.219 C 61.087 50.35 61.157 50.502 61.259 50.631 C 61.347 50.743 61.42 50.879 61.42 50.934 C 61.422 51.067 61.573 51.396 61.671 51.477 C 61.714 51.513 61.763 51.626 61.779 51.73 C 61.795 51.833 61.88 52.02 61.966 52.147 C 62.052 52.273 62.145 52.473 62.171 52.592 C 62.198 52.711 62.28 52.892 62.354 52.995 C 62.428 53.098 62.513 53.28 62.544 53.401 C 62.574 53.521 62.659 53.697 62.732 53.791 C 62.806 53.886 62.881 54.046 62.898 54.148 C 62.916 54.25 63.001 54.425 63.086 54.538 C 63.181 54.662 63.254 54.824 63.273 54.949 C 63.292 55.076 63.347 55.196 63.415 55.261 C 63.539 55.378 63.607 55.532 63.649 55.787 C 63.664 55.88 63.729 56.006 63.792 56.066 C 63.901 56.169 63.96 56.301 64.024 56.596 C 64.04 56.666 64.105 56.781 64.17 56.851 C 64.234 56.921 64.309 57.065 64.335 57.172 C 64.394 57.405 64.442 57.507 64.587 57.706 C 64.647 57.789 64.71 57.94 64.726 58.041 C 64.742 58.142 64.819 58.305 64.896 58.403 C 64.973 58.501 65.05 58.658 65.067 58.753 C 65.103 58.952 65.204 59.169 65.271 59.192 C 65.297 59.201 65.369 59.352 65.432 59.527 C 65.496 59.703 65.6 59.91 65.665 59.987 C 65.73 60.064 65.796 60.189 65.813 60.265 C 65.829 60.34 65.886 60.442 65.939 60.491 C 65.993 60.539 66.115 60.659 66.212 60.756 C 66.358 60.904 66.42 60.933 66.583 60.933 C 66.837 60.933 66.966 61.057 66.966 61.301 C 66.966 61.399 66.935 61.524 66.897 61.578 C 66.831 61.673 66.665 61.75 66.622 61.706 Z M 60.822 55.315 C 60.237 53.863 57.846 48.091 57.529 48.091 C 57.49 48.123 57.417 48.246 57.367 48.363 C 57.101 48.988 53.954 55.151 54.295 55.343 C 54.384 55.393 60.772 55.366 60.822 55.315 Z M 76.448 61.709 C 76.433 61.693 75.703 61.684 74.827 61.687 C 72.953 61.694 72.891 61.683 72.889 61.332 C 72.888 61.145 72.966 61.051 73.175 60.984 C 73.388 60.917 73.513 60.783 73.637 60.492 C 73.734 60.265 73.734 60.233 73.734 53.464 C 73.734 47.495 73.726 46.643 73.663 46.486 C 73.614 46.365 73.501 46.242 73.308 46.1 C 72.864 45.774 72.773 45.456 73.074 45.278 C 73.198 45.204 73.573 45.198 77.859 45.198 C 82.633 45.198 83.29 45.217 84.334 45.39 C 84.644 45.441 85.103 45.501 85.353 45.523 C 85.74 45.556 85.843 45.584 86.035 45.705 C 86.159 45.784 86.345 45.863 86.449 45.882 C 86.807 45.945 87.603 46.547 88.038 47.082 C 88.355 47.474 88.446 47.613 88.446 47.712 C 88.446 47.757 88.511 47.867 88.589 47.957 C 88.712 48.097 88.742 48.187 88.8 48.585 C 88.838 48.84 88.905 49.145 88.949 49.262 C 89.057 49.548 89.062 50.254 88.958 50.514 C 88.89 50.682 88.847 50.89 88.752 51.495 C 88.736 51.593 88.664 51.742 88.592 51.826 C 88.52 51.91 88.447 52.034 88.431 52.102 C 88.348 52.443 87.34 53.444 86.933 53.589 C 86.823 53.628 86.69 53.699 86.638 53.746 C 86.497 53.876 86.387 53.92 86.051 53.985 C 85.864 54.02 85.695 54.087 85.612 54.157 C 85.528 54.228 85.413 54.272 85.305 54.276 C 84.809 54.291 84.592 54.366 84.592 54.523 C 85.538 56.167 87.818 59.749 88.703 60.699 C 88.923 60.936 88.944 60.947 89.159 60.94 C 89.33 60.933 89.408 60.955 89.48 61.027 C 89.594 61.142 89.607 61.433 89.504 61.58 C 89.434 61.68 89.417 61.681 87.53 61.687 C 86.349 61.69 85.592 61.674 85.538 61.645 C 85.49 61.619 85.424 61.533 85.391 61.453 C 85.305 61.245 85.385 61.102 85.659 60.97 C 85.904 60.853 82.689 55.767 81.833 54.533 L 81.628 54.417 L 78.876 54.418 L 76.124 54.419 L 76.057 54.579 C 76.002 54.712 75.99 55.231 75.991 57.565 C 75.991 59.361 76.008 60.454 76.039 60.565 C 76.105 60.802 76.182 60.869 76.434 60.907 C 76.689 60.945 76.742 61.023 76.742 61.353 C 76.742 61.544 76.722 61.604 76.638 61.663 C 76.524 61.743 76.491 61.751 76.448 61.709 Z M 84.263 52.482 C 84.756 52.447 84.824 52.43 85.036 52.294 C 85.164 52.212 85.324 52.144 85.391 52.144 C 85.5 52.144 85.648 52.059 85.864 51.873 C 85.901 51.841 86.001 51.76 86.085 51.692 C 86.169 51.624 86.237 51.544 86.237 51.514 C 86.237 51.484 86.313 51.349 86.406 51.214 C 86.562 50.986 86.578 50.93 86.62 50.457 C 86.662 49.988 86.647 49.356 86.584 48.921 C 86.57 48.822 86.489 48.657 86.399 48.543 C 86.31 48.431 86.238 48.317 86.238 48.289 C 86.237 48.185 85.66 47.704 85.501 47.674 C 85.415 47.658 85.268 47.584 85.176 47.51 C 84.996 47.367 84.98 47.363 84.005 47.276 C 82.692 47.158 82.076 47.14 79.398 47.138 C 77.873 47.137 76.514 47.122 76.379 47.105 L 76.132 47.075 L 76.061 47.245 C 75.958 47.494 75.955 52.357 76.058 52.471 C 76.118 52.538 76.512 52.545 79.924 52.533 C 82.013 52.526 83.966 52.504 84.263 52.482 Z M 146.061 61.709 C 146.046 61.693 145.316 61.683 144.439 61.687 C 142.633 61.694 142.727 61.714 142.721 61.311 C 142.717 61.021 142.787 60.938 143.055 60.915 C 143.316 60.893 143.379 60.831 143.439 60.54 C 143.474 60.371 143.485 58.131 143.477 53.309 L 143.464 46.324 L 143.354 46.234 C 143.294 46.185 143.162 46.122 143.061 46.095 C 142.84 46.035 142.736 45.864 142.736 45.564 C 142.736 45.173 142.551 45.2 145.27 45.196 C 147.276 45.194 147.698 45.204 147.752 45.259 C 147.833 45.341 147.842 45.765 147.765 45.89 C 147.734 45.94 147.637 46.028 147.55 46.085 C 147.29 46.257 147.277 46.557 147.52 46.796 C 147.59 46.866 147.705 46.993 147.775 47.08 C 150.708 50.424 153.63 53.897 156.839 57.488 C 156.996 57.8 157.11 57.89 157.234 57.799 C 157.31 57.743 157.315 57.383 157.309 52.048 L 157.303 46.358 L 157.202 46.25 C 157.147 46.19 157.021 46.12 156.922 46.093 C 156.822 46.066 156.709 45.994 156.668 45.93 C 156.552 45.753 156.529 45.457 156.62 45.318 L 156.697 45.199 L 158.259 45.198 C 159.118 45.198 159.853 45.194 159.892 45.19 C 160.141 45.165 160.252 45.344 160.201 45.687 C 160.166 45.925 160.044 46.058 159.786 46.141 C 159.442 46.252 159.469 45.63 159.469 53.413 C 159.469 58.651 159.483 60.473 159.524 60.612 C 159.585 60.815 159.64 60.858 159.902 60.905 C 160.119 60.945 160.221 61.082 160.221 61.336 C 160.221 61.571 160.137 61.698 159.983 61.697 C 159.92 61.696 159.071 61.696 158.096 61.695 C 156.167 61.693 156.081 61.683 156.019 61.431 C 155.963 61.208 156.031 61.086 156.258 60.998 C 156.663 60.843 156.693 60.599 156.351 60.224 C 153.209 56.779 149.114 52.294 146.059 48.454 C 145.886 48.059 145.685 48.042 145.611 48.416 C 145.594 48.505 145.59 51.277 145.603 54.578 C 145.623 59.598 145.637 60.6 145.692 60.708 C 145.761 60.842 145.792 60.858 146.084 60.908 C 146.297 60.944 146.355 61.039 146.355 61.348 C 146.355 61.513 146.33 61.603 146.269 61.659 C 146.18 61.74 146.109 61.757 146.061 61.709 Z M 25.425 61.649 C 25.344 61.598 25.279 61.352 25.307 61.202 C 25.337 61.047 25.398 60.996 25.681 60.888 C 26.111 60.724 26.074 61.432 26.074 53.457 C 26.074 49.596 26.061 46.405 26.046 46.365 C 26.031 46.325 25.903 46.236 25.762 46.166 C 25.621 46.097 25.472 45.989 25.432 45.928 C 25.318 45.752 25.295 45.456 25.386 45.317 L 25.464 45.198 L 27.195 45.198 C 28.854 45.198 28.929 45.202 29.009 45.291 C 29.113 45.406 29.115 45.729 29.013 45.886 C 28.972 45.948 28.818 46.077 28.669 46.172 C 28.521 46.267 28.384 46.368 28.365 46.397 C 28.312 46.477 28.322 52.155 28.375 52.239 C 28.414 52.301 29.074 52.313 33.697 52.333 C 36.6 52.346 39.01 52.341 39.054 52.322 C 39.22 52.247 39.232 52.035 39.221 49.208 C 39.209 46.093 39.241 46.352 38.842 46.152 C 38.554 46.008 38.471 45.897 38.445 45.622 C 38.427 45.438 38.441 45.364 38.506 45.291 C 38.587 45.202 38.658 45.198 40.315 45.198 C 42.252 45.198 42.195 45.187 42.195 45.547 C 42.195 45.813 42.084 45.976 41.774 46.166 C 41.619 46.26 41.481 46.356 41.467 46.378 C 41.453 46.4 41.442 49.57 41.442 53.422 L 41.441 60.426 L 41.557 60.625 C 41.645 60.776 41.726 60.845 41.892 60.908 C 42.219 61.034 42.321 61.362 42.11 61.607 C 42.044 61.684 41.904 61.691 40.307 61.688 C 38.598 61.686 38.575 61.685 38.482 61.584 C 38.263 61.348 38.421 60.998 38.798 60.884 C 38.95 60.839 39.006 60.787 39.097 60.609 L 39.209 60.39 L 39.219 57.403 L 39.229 54.416 L 39.123 54.331 C 39.021 54.251 38.753 54.248 33.722 54.271 C 29.828 54.288 28.413 54.309 28.374 54.348 C 28.334 54.388 28.321 55.204 28.326 57.415 L 28.333 60.428 L 28.452 60.631 C 28.541 60.783 28.622 60.853 28.781 60.914 C 28.897 60.959 29.023 61.039 29.06 61.093 C 29.159 61.234 29.145 61.483 29.034 61.596 C 28.942 61.688 28.882 61.691 27.212 61.688 C 26.262 61.687 25.458 61.669 25.425 61.649 Z M 96.886 61.584 C 96.789 61.445 96.793 61.203 96.895 61.083 C 96.941 61.03 97.073 60.969 97.189 60.947 C 97.373 60.914 97.413 60.884 97.495 60.72 C 97.587 60.535 97.589 60.425 97.6 53.522 C 97.611 47.281 97.604 46.495 97.54 46.358 C 97.47 46.21 97.416 46.17 97.133 46.057 C 96.846 45.941 96.731 45.464 96.949 45.287 C 97.055 45.201 97.211 45.198 101.507 45.199 C 107.643 45.201 114.177 45.599 114.289 53.16 C 114.404 61.022 108.61 61.688 101.998 61.689 L 96.959 61.689 Z M 107.248 59.736 C 110.2 59.124 111.916 56.9 111.916 53.16 C 111.916 49.421 109.993 47.541 106.019 47.181 C 105.77 47.159 104.354 47.137 102.872 47.133 L 100.178 47.125 L 100.07 47.251 L 99.962 47.377 L 99.962 53.538 L 99.962 59.699 L 100.065 59.771 C 100.216 59.878 106.715 59.846 107.248 59.736 Z M 118.685 61.62 C 118.482 61.475 118.508 61.074 118.728 60.982 C 118.786 60.957 118.924 60.914 119.034 60.886 C 119.182 60.848 119.252 60.798 119.307 60.692 C 120.313 58.739 125.738 48.822 126.119 46.266 C 126.076 46.2 126.003 46.134 125.955 46.119 C 125.758 46.056 125.632 45.904 125.6 45.692 C 125.567 45.469 125.642 45.199 125.738 45.196 C 125.767 45.196 126.7 45.196 127.81 45.196 C 129.438 45.197 129.842 45.21 129.893 45.261 C 129.983 45.351 129.977 45.776 129.884 45.918 C 129.842 45.982 129.757 46.057 129.694 46.086 C 129.631 46.115 129.545 46.192 129.503 46.256 C 130.647 49.222 135.297 58.838 136.296 60.74 C 136.34 60.802 136.475 60.868 136.649 60.913 C 137.097 61.028 137.197 61.134 137.151 61.445 C 137.117 61.677 136.978 61.692 134.89 61.688 C 133.055 61.684 132.965 61.68 132.887 61.593 C 132.764 61.456 132.777 61.128 132.911 61.019 C 133.043 60.912 133.221 60.935 133.375 60.881 C 133.866 60.709 132.16 57.974 132.16 57.543 C 132.16 57.241 124.935 57.236 123.457 57.271 C 123.132 57.397 121.7 60.391 121.912 60.79 C 121.977 60.912 122.108 60.981 122.277 60.981 C 122.492 60.981 122.592 61.084 122.592 61.306 C 122.592 61.677 122.663 61.664 120.607 61.679 C 119.036 61.69 118.774 61.682 118.685 61.62 Z M 130.958 55.331 C 131.362 54.924 128.332 49.152 127.919 48.448 C 127.622 47.942 127.439 47.968 127.373 48.526 C 126.529 50.825 125.333 53.096 124.454 54.961 C 124.424 55.135 124.417 55.295 124.439 55.317 C 124.461 55.339 125.874 55.362 127.579 55.369 C 129.284 55.377 130.725 55.387 130.782 55.393 C 130.838 55.4 130.917 55.371 130.958 55.331 Z M 145.044 35.292 C 144.928 35.21 144.837 34.9 144.879 34.73 C 144.921 34.563 145.098 34.452 145.261 34.493 C 145.331 34.511 145.77 34.524 146.236 34.522 C 147.25 34.518 147.312 34.537 147.333 34.852 C 147.344 35.03 147.327 35.084 147.225 35.18 C 147.105 35.294 147.095 35.295 146.271 35.283 C 145.813 35.277 145.372 35.291 145.29 35.316 C 145.179 35.349 145.117 35.343 145.044 35.292 Z M 5.791 35.228 C 5.744 35.175 5.697 35.032 5.684 34.903 C 5.666 34.712 5.679 34.654 5.762 34.571 C 5.895 34.438 6.201 34.435 6.331 34.566 C 6.471 34.706 6.46 35.034 6.31 35.197 C 6.166 35.353 5.917 35.368 5.791 35.228 Z M 7.228 35.197 C 7.096 35.03 7.095 34.696 7.224 34.566 C 7.357 34.433 7.694 34.436 7.816 34.571 C 7.957 34.727 7.932 35.071 7.769 35.212 C 7.591 35.366 7.355 35.36 7.228 35.197 Z M 10.868 35.209 C 10.703 35.043 10.689 34.693 10.843 34.561 C 10.918 34.496 11.033 34.488 11.628 34.508 C 12.52 34.538 12.536 34.544 12.536 34.849 C 12.536 35.067 12.522 35.095 12.383 35.182 C 12.252 35.264 12.164 35.276 11.76 35.264 C 11.501 35.257 11.222 35.268 11.138 35.29 C 11.01 35.323 10.969 35.311 10.868 35.209 Z M 13.401 35.205 C 13.303 35.054 13.283 34.646 13.37 34.559 C 13.444 34.484 15.407 34.487 15.603 34.562 C 15.719 34.606 15.732 34.633 15.732 34.845 C 15.732 35.049 15.714 35.092 15.596 35.177 C 15.471 35.266 15.398 35.273 14.644 35.268 C 14.195 35.264 13.751 35.278 13.656 35.297 C 13.503 35.329 13.476 35.32 13.401 35.205 Z M 16.698 35.211 C 16.602 35.114 16.578 35.044 16.578 34.857 C 16.578 34.701 16.603 34.604 16.654 34.561 C 16.715 34.511 16.998 34.501 18.052 34.512 C 19.552 34.528 19.519 34.52 19.511 34.883 C 19.507 35.052 19.481 35.122 19.395 35.192 C 19.292 35.276 19.206 35.281 18.178 35.272 C 17.569 35.266 17.014 35.277 16.944 35.296 C 16.843 35.324 16.793 35.307 16.698 35.211 Z M 20.364 35.231 C 20.252 35.106 20.213 34.716 20.301 34.598 C 20.362 34.516 20.492 34.511 22.641 34.511 C 25.232 34.511 25.064 34.483 25.026 34.909 C 24.998 35.213 24.883 35.339 24.668 35.298 C 24.456 35.258 20.727 35.257 20.571 35.297 C 20.484 35.319 20.428 35.301 20.364 35.231 Z M 35.703 35.267 C 35.561 35.217 35.473 35.051 35.474 34.835 C 35.475 34.658 35.509 34.596 35.638 34.538 C 35.693 34.513 38.449 34.505 42.289 34.519 C 46.639 34.534 48.885 34.526 48.963 34.495 C 49.195 34.4 49.129 34.192 48.827 34.065 C 48.5 33.928 48.325 33.679 48.214 33.194 C 47.833 31.531 49.316 29.317 49.387 27.598 C 49.411 26.999 49.444 26.394 49.46 26.253 C 49.489 25.995 49.841 25.179 49.968 25.073 C 50.124 24.943 50.61 24.828 51.194 24.783 C 51.531 24.757 51.902 24.717 52.019 24.694 C 52.135 24.67 52.473 24.626 52.769 24.595 C 53.159 24.554 53.367 24.508 53.521 24.428 C 53.638 24.367 53.913 24.284 54.132 24.243 C 54.368 24.199 54.568 24.133 54.625 24.08 C 54.678 24.032 54.808 23.948 54.913 23.895 C 55.145 23.778 55.685 23.244 56.092 22.729 C 56.257 22.521 56.434 22.298 56.487 22.233 C 56.539 22.168 56.661 22.003 56.756 21.867 C 56.852 21.731 56.957 21.619 56.989 21.619 C 57.022 21.619 57.048 21.592 57.049 21.559 C 57.049 21.527 57.182 21.362 57.344 21.193 C 58.649 19.833 59.846 17.392 60.36 15.594 C 60.404 15.438 60.483 15.233 60.536 15.139 C 60.65 14.933 60.605 14.81 60.372 14.689 C 60.289 14.646 60.136 14.542 60.033 14.458 C 59.929 14.374 59.796 14.291 59.736 14.272 C 59.676 14.254 59.56 14.179 59.477 14.107 C 59.395 14.035 59.254 13.96 59.163 13.94 C 59.073 13.921 58.856 13.831 58.681 13.74 C 58.384 13.586 58.322 13.573 57.741 13.537 C 53.305 13.262 49.276 15.558 45.004 16.185 C 44.804 16.214 44.529 16.277 44.393 16.325 C 44.045 16.448 43.13 16.515 41.818 16.515 C 40.554 16.515 39.81 16.452 39.559 16.324 C 39.466 16.276 39.212 16.202 38.995 16.16 C 38.733 16.108 38.535 16.037 38.411 15.951 C 38.308 15.879 38.144 15.794 38.048 15.762 C 37.75 15.665 36.972 14.972 36.709 14.569 C 36.637 14.459 36.53 14.318 36.472 14.254 C 36.414 14.19 36.324 13.995 36.272 13.82 C 36.22 13.645 36.147 13.476 36.11 13.445 C 35.937 13.301 35.827 11.962 35.899 10.868 C 35.965 9.876 36.004 9.636 36.151 9.36 C 36.218 9.233 36.272 9.079 36.272 9.017 C 36.272 8.719 36.648 8.168 37.034 7.902 C 37.26 7.747 37.329 7.723 37.575 7.72 C 37.886 7.716 37.985 7.754 38.281 7.995 C 38.437 8.122 38.497 8.213 38.556 8.418 C 38.598 8.562 38.621 8.737 38.609 8.806 C 38.514 9.317 38.413 9.683 38.294 9.948 C 38.112 10.353 38.028 11.175 38.098 11.877 C 38.141 12.312 38.16 12.373 38.337 12.646 C 38.442 12.809 38.529 12.957 38.529 12.975 C 38.529 13.06 39.163 13.541 39.337 13.588 C 39.442 13.616 39.614 13.694 39.719 13.76 C 39.85 13.843 40.019 13.894 40.264 13.924 C 40.46 13.947 40.789 13.991 40.996 14.021 C 41.517 14.097 42.442 14.12 42.705 14.064 C 42.825 14.038 43.283 13.994 43.722 13.965 C 48.396 13.663 52.561 11.014 57.283 11.013 C 59.154 11.013 59.2 11.018 59.868 11.261 C 60.01 11.313 60.216 11.379 60.324 11.408 C 60.433 11.438 60.581 11.511 60.653 11.573 C 60.726 11.634 60.954 11.731 61.161 11.789 C 61.368 11.847 61.594 11.924 61.664 11.96 C 61.838 12.05 62.541 12.049 62.669 11.959 C 64.518 10.656 67.386 9.9 69.569 9.9 C 70.199 9.9 70.386 9.946 70.419 10.108 C 70.47 10.361 70.542 10.864 70.589 11.294 C 70.617 11.553 70.686 11.947 70.742 12.168 C 70.835 12.535 70.843 12.687 70.841 13.94 C 70.838 16.129 70.352 19.232 68.932 21.064 C 68.856 21.161 68.762 21.319 68.722 21.413 C 68.683 21.508 68.623 21.613 68.589 21.648 C 68.554 21.682 68.478 21.791 68.418 21.889 C 65.826 26.173 60.963 28.367 56.178 28.662 C 55.687 28.693 55.127 28.747 54.933 28.784 C 54.739 28.821 54.136 28.872 53.593 28.898 C 53.05 28.924 52.561 28.955 52.506 28.967 C 52.442 28.981 52.367 29.072 52.301 29.214 C 52.244 29.338 52.159 29.481 52.112 29.533 C 52.065 29.585 51.983 29.743 51.93 29.883 C 51.878 30.023 51.793 30.182 51.742 30.237 C 51.689 30.293 51.618 30.485 51.578 30.678 C 51.539 30.866 51.464 31.118 51.41 31.239 C 51.348 31.381 51.314 31.559 51.314 31.74 C 51.314 32.012 51.321 32.027 51.537 32.244 C 51.66 32.367 51.797 32.496 51.842 32.53 C 51.972 32.629 52.72 32.814 53.883 33.034 C 54.032 33.063 54.374 33.339 54.475 33.512 C 54.681 33.868 54.823 34.778 54.716 35.06 C 54.63 35.283 55.044 35.274 45.156 35.273 C 40.06 35.273 35.876 35.281 35.858 35.291 C 35.84 35.301 35.771 35.29 35.703 35.267 Z M 77.048 35.277 C 74.168 35.248 74.398 35.281 73.963 34.828 C 73.737 34.592 73.54 34.33 73.177 33.78 C 72.996 33.506 72.656 33.135 72.489 33.029 C 72.411 32.98 72.281 32.883 72.2 32.814 C 72.103 32.731 71.956 32.671 71.769 32.638 C 71.613 32.61 71.278 32.506 71.025 32.407 C 70.491 32.198 70.265 32.006 70.139 31.654 C 70.094 31.527 70.03 31.36 69.998 31.282 C 69.965 31.204 69.927 30.904 69.913 30.616 C 69.898 30.318 69.858 30.022 69.819 29.931 C 69.701 29.657 69.154 29.068 68.238 28.233 C 67.398 27.466 66.998 27.071 66.754 26.768 C 66.625 26.606 66.429 26.37 66.32 26.242 C 66.169 26.067 66.12 25.97 66.12 25.85 C 66.12 25.645 66.286 25.443 66.526 25.356 C 66.626 25.319 66.804 25.208 66.922 25.108 C 67.04 25.008 67.153 24.926 67.173 24.926 C 67.229 24.926 68.23 24.151 68.757 23.701 C 69.213 23.311 70.726 21.762 70.726 21.686 C 70.726 21.649 70.753 21.618 70.785 21.618 C 70.817 21.618 70.891 21.549 70.95 21.464 C 72.391 19.392 73.353 17.421 74.07 14.966 C 74.262 14.306 74.413 11.532 74.293 10.845 C 74.259 10.65 74.238 10.458 74.246 10.419 C 74.269 10.301 74.406 10.178 74.481 10.207 C 74.519 10.222 74.835 10.256 75.181 10.282 C 75.53 10.309 76.003 10.379 76.241 10.441 C 76.759 10.574 77.357 10.641 78.364 10.681 C 78.778 10.697 79.15 10.72 79.191 10.731 C 79.282 10.756 79.35 10.896 79.5 11.365 C 79.665 11.878 79.735 13.195 79.669 14.57 C 79.625 15.48 79.605 15.637 79.493 15.972 C 79.424 16.18 79.338 16.526 79.304 16.742 C 79.269 16.958 79.195 17.212 79.139 17.306 C 79.084 17.401 78.999 17.636 78.951 17.828 C 78.904 18.021 78.814 18.256 78.751 18.351 C 78.689 18.446 78.612 18.63 78.58 18.76 C 78.548 18.89 78.482 19.039 78.434 19.091 C 78.385 19.143 78.293 19.306 78.228 19.453 C 78.164 19.6 78.087 19.735 78.058 19.753 C 78.029 19.771 77.912 19.927 77.798 20.1 C 77.684 20.272 77.556 20.461 77.515 20.518 C 77.473 20.576 77.422 20.698 77.401 20.79 C 77.366 20.945 77.371 20.957 77.476 20.957 C 77.735 20.957 79.558 19.034 80.012 18.283 C 80.066 18.195 80.153 18.075 80.207 18.016 C 80.26 17.957 80.341 17.835 80.387 17.744 C 80.433 17.653 80.541 17.475 80.628 17.349 C 80.714 17.222 80.785 17.084 80.785 17.041 C 80.785 16.999 80.856 16.863 80.944 16.739 C 81.031 16.615 81.127 16.417 81.157 16.299 C 81.187 16.18 81.262 16.005 81.325 15.909 C 81.388 15.814 81.469 15.592 81.506 15.417 C 81.542 15.242 81.607 15.046 81.649 14.98 C 81.748 14.829 81.85 14.411 81.891 13.988 C 81.908 13.807 81.963 13.556 82.012 13.432 C 82.133 13.123 82.211 12.194 82.184 11.4 C 82.157 10.644 82.166 10.625 82.543 10.644 C 82.675 10.65 83.085 10.634 83.454 10.608 C 86.368 10.404 88.369 7.711 91.314 7.705 L 92.277 7.702 L 92.653 7.874 C 92.86 7.968 93.084 8.058 93.15 8.074 C 93.217 8.089 93.428 8.207 93.62 8.336 C 94.197 8.722 94.755 9.306 94.979 9.758 C 95.037 9.875 95.126 10.016 95.176 10.071 C 95.227 10.127 95.308 10.333 95.357 10.53 C 95.406 10.727 95.495 10.979 95.554 11.091 C 95.658 11.287 95.662 11.332 95.66 12.499 C 95.66 13.546 95.648 13.731 95.575 13.916 C 94.379 18.004 92.652 21.099 90.629 24.442 C 90.559 24.591 90.48 24.728 90.452 24.746 C 90.405 24.776 90.258 25.004 89.97 25.493 C 89.901 25.61 89.805 25.759 89.757 25.824 C 88.346 27.718 87.301 29.922 86.263 32.026 L 86.384 32.244 C 86.45 32.365 86.575 32.511 86.661 32.57 C 86.805 32.669 86.854 32.675 87.268 32.651 C 87.515 32.637 87.894 32.639 88.11 32.656 C 88.5 32.688 88.504 32.689 88.802 32.944 C 89.041 33.148 89.112 33.24 89.151 33.398 C 89.178 33.508 89.247 33.714 89.304 33.857 C 89.449 34.222 89.485 35.075 89.359 35.201 C 89.28 35.281 89.143 35.284 87.04 35.262 C 84.732 35.238 84.557 35.223 84.32 35.036 C 84.26 34.988 84.132 34.925 84.037 34.894 C 83.881 34.844 83.511 34.513 83.511 34.423 C 83.511 34.403 83.481 34.376 83.445 34.362 C 83.408 34.347 83.352 34.216 83.319 34.07 C 83.284 33.911 83.216 33.763 83.15 33.701 C 83.09 33.644 82.999 33.465 82.948 33.302 C 82.898 33.14 82.812 32.947 82.758 32.874 C 82.536 32.572 82.532 31.44 82.751 31.126 C 82.87 30.956 82.928 30.748 82.994 30.266 C 83.024 30.045 83.088 29.716 83.137 29.534 C 83.258 29.078 83.323 28.279 83.323 27.236 C 83.323 26.428 83.331 26.347 83.417 26.237 C 83.469 26.17 83.511 26.105 83.511 26.09 C 83.511 26.076 83.555 26.015 83.608 25.956 C 84.745 24.696 86.94 19.306 86.456 17.329 C 86.346 17.218 86.287 17.368 86.21 17.962 C 86.008 19.526 83.658 25.682 81.568 25.682 C 81.539 25.682 81.408 25.755 81.279 25.843 C 81.085 25.976 80.956 26.019 80.55 26.087 C 79.82 26.209 79.673 26.218 79.381 26.16 C 79.235 26.132 78.881 26.077 78.593 26.039 C 78.257 25.995 77.971 25.926 77.794 25.847 C 77.642 25.78 77.349 25.702 77.142 25.674 C 76.924 25.645 76.64 25.567 76.467 25.489 C 76.289 25.408 76.043 25.341 75.856 25.323 C 75.685 25.306 75.436 25.244 75.305 25.185 C 75.02 25.056 74.922 25.038 74.776 25.087 C 74.676 25.121 74.668 25.144 74.694 25.321 C 74.711 25.429 74.736 25.825 74.751 26.202 C 74.772 26.747 74.762 26.946 74.702 27.171 C 74.661 27.327 74.606 27.72 74.579 28.045 C 74.553 28.37 74.475 28.939 74.406 29.31 C 74.283 29.98 74.282 29.986 74.366 30.255 C 74.412 30.404 74.489 30.603 74.537 30.697 C 74.629 30.88 75.484 31.721 75.756 31.895 C 75.847 31.954 75.951 32.038 75.988 32.082 C 76.126 32.25 76.298 32.298 76.657 32.27 C 76.846 32.256 77.319 32.263 77.708 32.287 L 78.415 32.33 L 78.665 32.503 C 78.803 32.598 78.941 32.676 78.974 32.676 C 79.006 32.676 79.16 32.821 79.317 32.999 C 79.553 33.266 79.617 33.375 79.681 33.624 C 79.724 33.79 79.776 33.958 79.797 33.998 C 79.839 34.077 79.986 34.886 79.986 35.039 C 79.986 35.169 79.819 35.324 79.692 35.312 C 79.634 35.307 78.444 35.291 77.048 35.277 Z M 101.88 35.206 C 101.738 35.133 101.689 35.074 101.648 34.923 C 101.525 34.469 101.49 34.393 101.323 34.227 C 101.226 34.13 101.118 34.013 101.083 33.966 C 100.947 33.782 100.852 33.75 100.341 33.715 C 99.958 33.69 99.787 33.657 99.669 33.587 C 99.581 33.535 99.396 33.454 99.256 33.408 C 99.067 33.345 98.93 33.25 98.713 33.031 C 98.318 32.635 98.26 32.508 98.227 31.963 C 98.204 31.582 98.18 31.48 98.078 31.325 C 98.011 31.223 97.917 31.076 97.87 30.998 C 97.822 30.92 97.474 30.538 97.097 30.148 C 96.719 29.758 96.233 29.237 96.016 28.99 C 95.325 28.205 94.878 27.764 94.286 27.284 C 93.969 27.027 93.691 26.816 93.669 26.816 C 93.646 26.816 93.504 26.733 93.352 26.632 C 93.201 26.53 92.981 26.422 92.865 26.391 C 92.749 26.361 92.548 26.276 92.418 26.203 C 92.288 26.13 92.069 26.057 91.925 26.039 C 91.783 26.021 91.465 25.926 91.22 25.828 C 90.832 25.673 90.771 25.634 90.759 25.529 C 90.748 25.435 90.787 25.373 90.932 25.256 C 94.343 22.5 100.059 13.049 98.777 9.729 C 98.736 9.623 98.677 9.368 98.645 9.162 C 98.611 8.94 98.546 8.722 98.483 8.623 C 98.425 8.531 98.319 8.333 98.248 8.181 C 98.107 7.883 97.394 7.124 97.125 6.986 C 97.044 6.944 96.883 6.841 96.766 6.757 C 96.65 6.672 96.481 6.588 96.39 6.569 C 96.3 6.55 96.108 6.472 95.963 6.395 C 95.783 6.3 95.562 6.236 95.258 6.19 C 95.015 6.154 94.615 6.081 94.369 6.028 C 93.765 5.898 93.034 5.857 92.52 5.926 C 92.077 5.986 91.972 5.959 91.972 5.787 C 91.972 5.698 92.223 5.458 92.316 5.458 C 92.347 5.458 92.494 5.383 92.643 5.293 C 92.793 5.202 92.969 5.114 93.035 5.098 C 93.101 5.081 93.166 5.038 93.18 5.001 C 93.213 4.914 93.499 4.77 93.718 4.73 C 93.812 4.713 93.917 4.667 93.95 4.626 C 94.039 4.519 94.217 4.441 94.534 4.373 C 94.689 4.339 94.872 4.264 94.942 4.206 C 95.011 4.147 95.169 4.084 95.292 4.065 C 95.49 4.035 95.561 3.988 95.884 3.673 C 96.085 3.475 96.322 3.27 96.409 3.216 C 96.752 3.005 97.047 2.785 97.072 2.722 C 97.086 2.685 97.074 2.583 97.045 2.495 C 97.004 2.369 97.007 2.298 97.062 2.16 C 97.1 2.063 97.146 1.872 97.165 1.735 C 97.187 1.568 97.251 1.409 97.358 1.252 C 97.446 1.123 97.518 0.999 97.518 0.975 C 97.518 0.876 97.979 0.427 98.175 0.335 C 98.292 0.281 98.473 0.183 98.576 0.118 C 98.747 0.011 98.811 0 99.283 0 L 99.802 0 L 100.105 0.243 C 100.272 0.376 100.513 0.6 100.64 0.739 C 101.55 1.736 101.996 2.185 102.227 2.337 C 102.481 2.503 102.526 2.515 103.097 2.57 C 103.501 2.609 103.842 2.673 104.135 2.767 C 104.374 2.843 104.618 2.906 104.677 2.906 C 104.736 2.906 104.878 2.957 104.994 3.02 C 105.109 3.083 105.313 3.187 105.446 3.252 C 105.804 3.426 106.139 3.71 106.617 4.247 C 107.103 4.791 107.297 4.961 108.024 5.48 C 108.601 5.893 108.786 6.044 109.439 6.634 C 109.959 7.104 110.212 7.465 110.368 7.957 C 110.442 8.189 110.481 8.394 110.463 8.453 C 110.416 8.604 110.084 9.006 109.905 9.128 C 109.713 9.26 109.682 9.345 109.738 9.592 C 109.771 9.736 109.764 9.815 109.71 9.923 C 109.67 10.001 109.597 10.174 109.547 10.306 C 109.483 10.476 109.358 10.645 109.13 10.873 C 108.758 11.245 108.701 11.389 108.683 12.002 C 108.676 12.245 108.626 12.545 108.541 12.841 C 108.413 13.292 108.404 13.307 108.117 13.561 C 107.956 13.703 107.763 13.843 107.689 13.872 C 107.49 13.95 106.476 13.983 106.105 13.925 C 105.901 13.893 105.703 13.824 105.564 13.738 C 105.415 13.645 105.199 13.573 104.895 13.516 C 104.292 13.402 104.198 13.444 103.912 13.949 L 103.708 14.309 L 103.713 14.987 C 103.717 15.615 103.727 15.686 103.846 15.96 C 103.916 16.122 104.023 16.323 104.084 16.406 C 104.144 16.488 104.193 16.61 104.193 16.676 C 104.193 16.855 104.046 16.911 103.665 16.875 C 103.334 16.844 103.196 16.795 102.84 16.58 C 102.711 16.503 102.539 16.45 102.366 16.434 C 101.977 16.398 101.913 16.489 101.869 17.14 C 101.851 17.407 101.797 17.796 101.748 18.004 C 101.7 18.212 101.626 18.584 101.586 18.831 C 101.476 19.497 101.469 19.523 101.372 19.634 C 101.324 19.691 101.228 19.884 101.16 20.064 C 101.091 20.243 101.017 20.39 100.994 20.39 C 100.971 20.39 100.91 20.471 100.86 20.57 C 100.776 20.737 100.474 21.135 100.228 21.403 C 99.958 21.699 99.788 21.934 99.681 22.159 C 99.616 22.295 99.527 22.442 99.482 22.487 C 99.35 22.619 99.292 22.932 99.317 23.382 C 99.338 23.753 99.356 23.821 99.486 24.003 C 100.756 26.518 101.819 29.055 103.195 31.597 C 103.319 31.735 103.479 31.929 103.551 32.026 C 103.793 32.356 103.955 32.403 104.992 32.441 C 105.767 32.469 105.952 32.491 106.191 32.579 C 106.461 32.679 106.684 32.835 106.684 32.923 C 106.684 32.946 106.746 33.043 106.822 33.139 C 106.96 33.314 107.013 33.518 107.083 34.146 C 107.108 34.368 107.131 34.42 107.23 34.465 C 107.316 34.505 109.694 34.519 116.201 34.519 C 126.074 34.519 125.204 34.487 125.204 34.851 C 125.204 35.028 125.124 35.275 125.067 35.275 C 125.052 35.275 119.869 35.28 113.55 35.287 C 102.241 35.298 102.058 35.297 101.88 35.206 Z M 126.037 35.236 C 126.009 35.202 125.977 35.063 125.966 34.926 C 125.929 34.48 125.512 34.519 130.371 34.519 C 135.171 34.519 134.776 34.486 134.76 34.883 C 134.756 34.998 134.724 35.135 134.69 35.186 C 134.629 35.278 134.555 35.28 130.358 35.289 C 126.886 35.297 126.079 35.287 126.037 35.236 Z M 135.835 35.268 C 135.712 35.222 135.605 35.077 135.57 34.91 C 135.543 34.785 135.559 34.736 135.658 34.637 L 135.778 34.516 L 138.015 34.529 C 140.167 34.542 140.255 34.546 140.319 34.634 C 140.419 34.772 140.401 35.015 140.28 35.157 L 140.174 35.28 L 138.044 35.289 C 136.873 35.294 135.879 35.285 135.835 35.268 Z M 141.292 35.216 C 141.251 35.171 141.208 35.033 141.197 34.909 C 141.179 34.727 141.192 34.668 141.268 34.599 C 141.354 34.521 141.467 34.515 142.687 34.528 C 143.949 34.542 144.016 34.547 144.083 34.637 C 144.173 34.758 144.137 35.069 144.02 35.183 C 143.943 35.258 143.803 35.269 142.65 35.283 C 141.478 35.297 141.36 35.291 141.292 35.216 Z M 148.21 35.211 C 148.124 35.087 148.12 34.707 148.204 34.592 C 148.261 34.515 148.339 34.507 148.982 34.515 C 149.376 34.519 149.747 34.542 149.807 34.564 C 150.004 34.64 150.039 34.963 149.869 35.15 C 149.767 35.262 149.737 35.267 149.022 35.288 C 148.309 35.31 148.277 35.307 148.21 35.211 Z M 150.798 35.212 C 150.755 35.146 150.716 34.993 150.711 34.872 C 150.701 34.592 150.843 34.447 151.075 34.501 C 151.155 34.52 151.252 34.533 151.291 34.53 C 151.673 34.501 151.721 34.505 151.797 34.582 C 151.903 34.689 151.898 35.036 151.788 35.206 C 151.716 35.316 151.684 35.328 151.533 35.302 C 151.439 35.286 151.33 35.273 151.291 35.273 C 151.252 35.273 151.143 35.286 151.048 35.302 C 150.899 35.327 150.865 35.315 150.798 35.212 Z M 152.865 35.216 C 152.691 35.065 152.652 34.757 152.789 34.619 C 152.908 34.499 153.288 34.48 153.432 34.586 C 153.579 34.694 153.552 35.069 153.387 35.212 C 153.226 35.351 153.023 35.352 152.865 35.216 Z M 154.319 35.206 C 154.277 35.142 154.232 35.006 154.219 34.904 C 154.199 34.757 154.215 34.698 154.293 34.619 C 154.396 34.516 154.557 34.49 154.667 34.56 C 154.766 34.623 154.788 34.949 154.706 35.146 C 154.616 35.362 154.439 35.389 154.319 35.206 Z M 8.884 35.227 C 8.828 35.204 8.759 35.143 8.731 35.091 C 8.654 34.946 8.671 34.684 8.764 34.602 C 8.924 34.461 9.818 34.477 9.911 34.623 C 9.956 34.695 9.962 34.952 9.921 35.06 C 9.869 35.196 9.642 35.275 9.306 35.272 C 9.131 35.27 8.941 35.25 8.884 35.227 Z M 25.969 35.201 C 25.758 35.087 25.732 34.673 25.929 34.567 C 25.982 34.539 27.606 34.52 30.231 34.517 C 34.004 34.513 34.459 34.521 34.561 34.588 C 34.717 34.691 34.715 34.936 34.554 35.127 L 34.434 35.27 L 30.265 35.27 C 26.702 35.27 26.078 35.26 25.969 35.201 Z" fill="#9CA3AF"></path></svg></defs><use href="#svg12151949992"></use></svg>