<svg xmlns:xlink="http://www.w3.org/1999/xlink" xmlns="http://www.w3.org/2000/svg" style="width:100%;height:100%;" preserveAspectRatio="none" width="121" height="23"><defs><svg viewBox="0 0 121 23" overflow="visible" id="svg685328561_4950"><g><path d="M 31.515 16.891 C 28.856 16.891 26.892 14.834 26.892 12.308 C 26.892 9.781 28.857 7.674 31.531 7.674 C 33.225 7.674 34.275 8.293 35.105 9.197 L 33.835 10.551 C 33.208 9.899 32.548 9.448 31.515 9.448 C 30.024 9.448 28.94 10.719 28.94 12.274 C 28.94 13.863 30.041 15.135 31.616 15.135 C 32.582 15.135 33.292 14.683 33.936 14.031 L 35.172 15.235 C 34.292 16.205 33.259 16.891 31.515 16.891 Z M 39.061 16.891 L 37.012 16.891 L 37.012 7.691 L 39.061 7.691 L 39.061 9.849 C 39.619 8.527 40.653 7.624 42.227 7.691 L 42.227 9.832 L 42.109 9.832 C 40.314 9.832 39.061 10.987 39.061 13.328 Z M 52.953 7.674 L 48.425 19.368 L 46.348 19.368 L 47.337 16.894 L 43.458 7.674 L 45.642 7.674 L 48.289 14.484 L 50.83 7.674 Z M 58.998 9.431 C 57.61 9.431 56.39 10.551 56.39 12.274 C 56.39 13.998 57.61 15.118 58.998 15.118 C 60.404 15.118 61.555 14.031 61.555 12.274 C 61.555 10.534 60.387 9.431 58.998 9.431 Z M 59.472 16.875 C 57.999 16.875 57.068 16.138 56.441 15.319 L 56.441 19.368 L 54.393 19.368 L 54.393 7.674 L 56.441 7.674 L 56.441 9.33 C 57.102 8.41 58.034 7.674 59.473 7.674 C 61.59 7.674 63.639 9.33 63.639 12.274 C 63.639 15.219 61.607 16.875 59.473 16.875 Z M 68.129 9.598 L 68.129 13.929 C 68.129 14.715 68.533 15.033 69.229 15.033 L 70.033 15.033 L 70.033 16.841 L 68.632 16.841 C 67.14 16.836 66.081 16.181 66.081 14.247 L 66.081 9.598 L 64.943 9.598 L 64.943 7.86 L 66.081 7.86 L 66.081 5.434 L 68.129 5.434 L 68.129 7.859 L 70.033 7.859 L 70.033 9.598 Z M 76.515 9.447 C 74.872 9.447 73.822 10.718 73.822 12.274 C 73.822 13.847 74.956 15.135 76.548 15.135 C 78.207 15.135 79.258 13.864 79.258 12.308 C 79.258 10.735 78.123 9.448 76.515 9.448 Z M 76.515 16.891 C 73.788 16.891 71.772 14.834 71.772 12.308 C 71.772 9.765 73.805 7.674 76.548 7.674 C 79.291 7.674 81.307 9.731 81.307 12.274 C 81.307 14.801 79.274 16.891 76.515 16.891 Z M 85.057 16.055 C 85.058 16.098 85.035 16.137 84.997 16.158 L 84.103 16.667 C 84.067 16.689 84.021 16.689 83.985 16.667 L 83.089 16.157 C 83.052 16.136 83.029 16.097 83.029 16.054 L 83.029 15.035 C 83.029 14.994 83.053 14.954 83.089 14.932 L 83.985 14.422 C 84.021 14.401 84.067 14.401 84.103 14.422 L 84.997 14.933 C 85.034 14.954 85.057 14.993 85.057 15.035 Z M 100.895 9.447 C 99.253 9.447 98.203 10.718 98.203 12.274 C 98.203 13.847 99.338 15.135 100.93 15.135 C 102.588 15.135 103.638 13.864 103.638 12.308 C 103.638 10.735 102.504 9.448 100.895 9.448 Z M 100.895 16.891 C 98.169 16.891 96.154 14.834 96.154 12.308 C 96.154 9.765 98.186 7.674 100.93 7.674 C 103.673 7.674 105.688 9.731 105.688 12.274 C 105.688 14.801 103.656 16.891 100.895 16.891 Z M 91.295 16.881 C 88.637 16.831 86.713 14.736 86.763 12.21 C 86.812 9.685 88.816 7.616 91.491 7.666 C 93.184 7.698 94.222 8.336 95.034 9.256 L 93.738 10.586 C 93.124 9.921 92.473 9.458 91.44 9.438 C 89.95 9.41 88.841 10.66 88.811 12.216 C 88.78 13.805 89.856 15.097 91.431 15.126 C 92.396 15.145 93.116 14.707 93.772 14.067 L 94.985 15.294 C 94.086 16.248 93.04 16.914 91.295 16.881 Z M 117.867 7.674 C 119.815 7.674 121 8.895 121 11.053 L 121 16.891 L 118.952 16.891 L 118.952 11.672 C 118.952 10.267 118.291 9.515 117.14 9.515 C 116.023 9.515 115.226 10.284 115.226 11.706 L 115.226 16.892 L 113.177 16.892 L 113.177 11.655 C 113.177 10.284 112.499 9.515 111.364 9.515 C 110.231 9.515 109.451 10.351 109.451 11.722 L 109.451 16.891 L 107.402 16.891 L 107.402 7.674 L 109.451 7.674 L 109.451 9.197 C 110.027 8.41 110.806 7.674 112.178 7.674 C 113.465 7.674 114.362 8.293 114.836 9.23 C 115.565 8.294 116.513 7.674 117.867 7.674 Z" fill="#9CA3AF"></path><path d="M 10.029 0 L 20.057 5.75 L 20.057 17.249 L 10.029 23 L 0 17.249 L 0 5.75 Z M 10.029 21.99 L 19.177 16.745 L 19.177 6.256 L 10.03 1.009 L 0.883 6.256 L 0.883 16.745 Z" fill="#9CA3AF"></path><path d="M 14.853 9.122 L 5.109 9.122 L 6.022 5.132 L 13.903 5.132 Z M 9.185 16.294 L 9.185 17.084 L 7.484 18.657 L 6.046 18.657 L 2.445 12.438 L 5.086 10.488 L 7.421 11.962 L 7.421 14.613 Z" fill="#9CA3AF"></path><path d="M 12.437 9.66 L 7.334 9.66 L 8.194 11.889 L 7.932 14.387 L 9.877 14.387 L 11.84 14.378 L 11.596 11.889 Z" fill="#9CA3AF"></path><path d="M 15.072 10.264 L 12.765 11.756 L 12.765 14.407 L 11.001 16.088 L 11.001 16.879 L 12.701 18.434 L 14.122 18.434 L 17.705 12.232 L 15.072 10.264 Z" fill="#9CA3AF"></path></g></svg></defs><use href="#svg685328561_4950"></use></svg>