<svg xmlns="http://www.w3.org/2000/svg" width="635" height="300" viewBox="0 0 635 300" fill="none"><path fill-rule="evenodd" clip-rule="evenodd" d="M89.8464 0.255739C87.3684 0.884608 84.8003 2.38273 83.1568 4.15811C81.9704 5.43968 18.7798 99.9906 16.516 103.871C6.84658 120.447 2.37734 132.891 0.494092 148.481C-0.156873 153.87 -0.166213 164.598 0.475615 169.856C1.54587 178.625 3.39318 186.054 6.43115 193.807C8.66282 199.502 12.3241 206.444 15.3408 210.701C18.1154 214.615 54.1916 262.877 54.5185 263.112C54.821 263.329 54.9499 263.312 55.2951 263.01C55.9822 262.409 70.7771 239.998 70.7771 239.558C70.7771 239.113 67.9926 235.32 49.968 211.21C43.3926 202.414 37.5191 194.459 36.916 193.531C33.3662 188.07 30.1187 179.852 28.6679 172.658C27.0539 164.655 26.9061 156.071 28.245 148.115C29.8553 138.546 32.8697 130.704 39.3075 119.334C40.2275 117.71 55.3694 94.8497 72.9562 68.5344C90.543 42.2192 105.194 20.1263 105.513 19.439C106.51 17.2924 106.773 15.8546 106.672 13.1034C106.572 10.3647 106.087 8.61357 104.852 6.52161C103.347 3.97232 100.338 1.56807 97.3761 0.549089C95.6939 -0.0296656 91.5995 -0.189175 89.8464 0.255739ZM94.2165 49.2055C94.0982 49.2894 90.5491 54.5277 86.3298 60.8459C80.1633 70.0802 78.6744 72.4382 78.7404 72.8651C78.7871 73.1671 85.9118 82.8934 95.2458 95.3977C104.278 107.498 112.217 118.27 112.887 119.334C116.027 124.322 118.706 130.866 120.316 137.482C123.703 151.396 122.326 166.794 116.465 180.551C115.223 183.466 112.056 189.677 109.885 193.457C109.026 194.953 92.8791 219.319 74.0037 247.603C49.6409 284.109 39.7036 299.158 39.7489 299.478C39.8127 299.928 39.8127 299.928 55.7786 299.98C70.7564 300.029 71.7698 300.01 72.1572 299.674C72.6665 299.233 130.477 212.591 132.339 209.478C135.608 204.012 139.684 196.104 141.867 190.989C144.408 185.037 146.808 176.944 148.014 170.263C150.059 158.94 150.023 146.304 147.914 135.251C145.675 123.513 140.991 111.853 134.809 102.63C132.209 98.7494 95.0843 49.1615 94.7365 49.1036C94.569 49.0757 94.3351 49.1215 94.2165 49.2055ZM192.111 95.8196C191.823 96.1091 191.792 101.335 191.792 150.299C191.792 199.263 191.823 204.489 192.111 204.778C192.399 205.067 196.359 205.098 232.67 205.098C258.18 205.098 273.913 205.021 275.65 204.889C283.636 204.282 290.275 202.55 296.665 199.409C306.622 194.515 313.69 187.39 318.404 177.495C321.019 172.006 322.534 166.648 323.502 159.466C324.032 155.531 324.032 145.067 323.502 141.132C321.898 129.224 318.059 120.074 311.456 112.415C304.104 103.89 292.975 98.0666 280.521 96.2288C275.936 95.5525 272.686 95.5032 232.568 95.5014C196.349 95.4997 192.399 95.5307 192.111 95.8196ZM336.071 95.8196C335.782 96.1091 335.752 101.335 335.752 150.299C335.752 199.263 335.782 204.489 336.071 204.778C336.354 205.063 337.87 205.098 349.726 205.095C357.775 205.093 363.182 205.016 363.366 204.899C363.634 204.729 363.683 199.922 363.772 164.312C363.873 124.112 363.876 123.918 364.28 123.859C364.592 123.815 373.189 133.191 401.319 164.257C421.468 186.508 438.114 204.8 438.311 204.906C438.528 205.023 445.978 205.098 457.247 205.098C473.865 205.098 475.858 205.065 476.143 204.778C476.432 204.489 476.462 199.263 476.462 150.299C476.462 101.335 476.432 96.1091 476.143 95.8196C475.86 95.535 474.344 95.5 462.489 95.5026C454.439 95.5046 449.032 95.5823 448.848 95.699C448.58 95.8693 448.532 100.687 448.442 136.385C448.349 173.711 448.315 176.883 448.007 176.943C447.784 176.986 435.739 163.82 411.388 136.915C391.43 114.865 374.792 96.5259 374.414 96.1616L373.727 95.4995H355.059C338.358 95.4995 336.356 95.5334 336.071 95.8196ZM541.113 95.8748C540.937 96.0814 528.328 120.489 513.095 150.114C494.454 186.364 485.413 204.145 485.447 204.487L485.498 204.996L500.303 205.049C513.134 205.094 515.17 205.061 515.57 204.798C515.869 204.601 518.005 200.546 521.63 193.292C524.969 186.611 527.386 182.006 527.619 181.881C528.161 181.59 592.072 181.589 592.614 181.88C592.844 182.003 595.287 186.656 598.608 193.294C602.195 200.467 604.377 204.609 604.67 204.801C605.063 205.06 607.183 205.094 620.033 205.049C634.94 204.996 634.94 204.996 635 204.573C635.059 204.16 579.808 96.6786 579.127 95.8807C578.813 95.5134 578.122 95.4995 560.117 95.4995C542.217 95.4995 541.42 95.5152 541.113 95.8748ZM64.327 98.6671C63.9075 98.9619 52.451 115.85 52.1674 116.592C52.0935 116.785 52.1597 117.008 52.3211 117.111C52.6943 117.348 96.7788 117.348 97.152 117.111C97.3134 117.008 97.3796 116.785 97.3057 116.592C97.022 115.85 85.5656 98.9619 85.1461 98.6671C84.7552 98.3925 83.4023 98.3516 74.7365 98.3516C66.0707 98.3516 64.7178 98.3925 64.327 98.6671ZM571.377 138.718C580.655 157.292 582.091 160.286 581.859 160.568C581.614 160.864 579.593 160.889 560.063 160.842C541.188 160.797 538.513 160.753 538.345 160.485C538.203 160.258 540.909 154.691 548.836 138.905C554.712 127.204 559.623 117.506 559.749 117.353C559.875 117.201 560.124 117.103 560.302 117.136C560.506 117.173 564.575 125.103 571.377 138.718ZM267.854 119.334C277.743 120.105 284.14 122.418 288.57 126.827C293.625 131.858 295.955 139.264 295.955 150.299C295.955 168.963 289.125 178.103 273.297 180.624C268.45 181.396 265.88 181.467 242.832 181.467C222.756 181.467 220.418 181.434 220.132 181.147C219.845 180.859 219.813 177.78 219.813 150.299C219.813 122.818 219.845 119.739 220.132 119.451C220.418 119.164 222.757 119.131 242.843 119.131C255.91 119.131 266.326 119.215 267.854 119.334ZM71.1832 138.59C65.7367 139.711 61.2535 143.177 58.8033 148.16C57.4616 150.889 57.1599 152.12 57.0301 155.396C56.9473 157.485 56.9999 158.533 57.248 159.737C58.6496 166.536 63.8316 171.928 70.5317 173.557C72.8192 174.113 76.4884 174.142 78.6941 173.622C84.1404 172.338 88.4334 168.849 90.8663 163.729C92.1767 160.972 92.4023 159.848 92.3962 156.105C92.3897 152.248 92.1595 151.188 90.6701 148.16C88.1534 143.044 83.4259 139.494 77.7956 138.494C76.1782 138.206 72.8078 138.255 71.1832 138.59ZM52.6393 195.251C52.5643 195.326 52.503 195.555 52.503 195.759C52.503 196.166 63.6701 212.925 64.3254 213.502C64.6998 213.831 65.4969 213.858 74.7365 213.858C83.9763 213.858 84.7733 213.831 85.1469 213.502C85.3694 213.305 88.1256 209.307 91.2718 204.616C95.1345 198.857 96.9721 195.946 96.9302 195.652C96.8685 195.218 96.8685 195.218 74.822 195.166C62.6965 195.138 52.7142 195.176 52.6393 195.251Z" fill="#9CA3AF"></path></svg>