<svg xmlns:xlink="http://www.w3.org/1999/xlink" xmlns="http://www.w3.org/2000/svg" style="width:100%;height:100%;" preserveAspectRatio="none" width="83" height="13"><defs><svg viewBox="0 0 83 13" overflow="visible" id="svg2089736740_3234"><g><path d="M 72.609 12.642 L 72.609 0.358 L 74.678 0.358 L 74.678 1.932 C 75.36 0.74 76.794 0 78.416 0 C 81.073 0 83 1.431 83 5.128 L 83 12.642 L 80.884 12.642 L 80.884 5.439 C 80.884 3.149 79.779 2.028 77.946 2.028 C 75.877 2.028 74.725 3.459 74.725 5.51 L 74.725 12.642 Z M 65.321 13 C 61.583 13 59.209 10.447 59.209 6.44 C 59.209 2.6 61.63 0 65.133 0 C 68.612 0 71.057 2.386 71.057 5.796 C 71.057 6.774 71.057 6.989 71.01 7.204 L 61.419 7.204 C 61.56 9.613 63.041 11.091 65.344 11.091 C 66.967 11.091 68.095 10.376 68.659 9.064 L 70.845 9.064 C 70.211 11.521 68.166 13 65.321 13 Z M 61.419 5.439 L 68.824 5.439 C 68.73 3.245 67.32 1.885 65.133 1.885 C 63.041 1.885 61.654 3.196 61.419 5.439 Z M 40.571 13 C 38.126 13 36.339 11.664 36.339 9.35 C 36.339 7.037 37.962 5.987 39.866 5.629 L 42.828 5.057 C 43.839 4.866 44.427 4.604 44.427 3.674 C 44.427 2.6 43.533 1.885 41.746 1.885 C 40.289 1.885 39.019 2.481 38.855 3.84 L 36.668 3.84 C 36.81 1.431 38.972 0 41.77 0 C 45.156 0 46.543 1.718 46.543 3.745 L 46.543 10.042 C 46.543 10.614 46.801 10.901 47.271 10.901 C 47.671 10.901 47.906 10.805 48.118 10.662 L 48.118 12.403 C 47.789 12.69 47.225 12.88 46.543 12.88 C 45.555 12.88 44.709 12.236 44.497 11.187 C 43.933 11.998 42.758 13 40.572 13 Z M 38.526 9.279 C 38.526 10.519 39.56 11.115 40.947 11.115 C 42.898 11.115 44.427 9.994 44.427 8.253 L 44.427 6.273 C 44.192 6.536 43.463 6.75 42.593 6.917 L 40.618 7.299 C 39.207 7.561 38.526 8.181 38.526 9.279 Z M 29.983 12.642 L 29.983 0.358 L 32.052 0.358 L 32.052 2.41 C 32.64 0.954 33.698 0.096 35.367 0.096 C 35.668 0.101 35.968 0.141 36.26 0.215 L 36.26 2.409 C 35.937 2.333 35.605 2.293 35.273 2.29 C 33.204 2.29 32.099 3.936 32.099 6.56 L 32.099 12.642 L 29.984 12.642 Z M 26.276 0.358 L 29.003 0.358 L 24.113 5.224 L 29.261 12.642 L 26.793 12.642 L 22.679 6.703 L 20.657 8.659 L 20.657 12.642 L 18.542 12.642 L 18.542 0.358 L 20.658 0.358 L 20.658 5.987 L 26.276 0.358 Z" fill="#9CA3AF"></path><path d="M 57.007 0.358 L 59.734 0.358 L 54.844 5.224 L 59.992 12.641 L 57.524 12.641 L 53.41 6.702 L 51.388 8.658 L 51.388 12.641 L 49.273 12.641 L 49.273 0.358 L 51.388 0.358 L 51.388 5.987 Z M 8.049 0 C 3.604 0 0 3.704 0 8.273 L 0 11.818 C 0 12.471 0.514 12.999 1.149 12.999 C 1.784 12.999 2.302 12.471 2.302 11.818 L 2.302 8.273 C 2.302 7.619 2.814 7.09 3.451 7.09 C 4.086 7.09 4.6 7.619 4.6 8.273 L 4.6 11.818 C 4.6 12.471 5.114 12.999 5.749 12.999 C 6.386 12.999 6.9 12.471 6.9 11.818 L 6.9 8.273 C 6.9 7.619 7.414 7.09 8.049 7.09 C 8.686 7.09 9.202 7.619 9.202 8.273 L 9.202 11.818 C 9.202 12.471 9.716 12.999 10.351 12.999 C 10.986 12.999 11.5 12.471 11.5 11.818 L 11.5 8.273 C 11.5 7.619 12.014 7.09 12.653 7.09 C 13.288 7.09 13.802 7.619 13.802 8.273 L 13.802 11.818 C 13.802 12.471 14.316 12.999 14.953 12.999 C 15.587 12.999 16.102 12.471 16.102 11.818 L 16.102 8.273 C 16.102 3.704 12.496 0 8.049 0 Z" fill="#9CA3AF"></path></g></svg></defs><use href="#svg2089736740_3234"></use></svg>