<svg xmlns="http://www.w3.org/2000/svg" width="155" height="44" viewBox="0 0 155 44" fill="none"><g clip-path="url(#clip0_2033_5)"><path d="M114.297 33.3281C109.004 33.3281 105.715 30.2621 105.715 25.3201C105.715 20.1911 108.75 17.0001 113.637 17.0001H114.047C114.66 17.0001 115.504 17.0201 116.657 17.1641V10.9731H120.109V32.7701C120.109 32.7701 116.829 33.3281 114.297 33.3281ZM114.266 19.7181C110.922 19.7181 109.296 21.5231 109.296 25.2341C109.296 28.5661 111.258 30.6371 114.41 30.6371C115.016 30.6371 115.71 30.5971 116.656 30.5161V19.9401C115.711 19.7881 114.949 19.7181 114.266 19.7181ZM67.0121 32.8281L57.6871 16.5551L57.6841 32.8281H54.4341V12.2271H58.9841L68.3091 28.3551L68.3051 12.2271H71.5981V32.8281H67.0121ZM96.7151 33.1451C95.1451 33.1451 93.5081 32.9691 91.5591 32.5941L91.3481 32.5541V29.6761L91.6561 29.7421C93.3751 30.1091 94.8591 30.4221 96.3441 30.4221C97.5431 30.4221 100.336 30.2341 100.336 28.4691C100.336 26.9891 98.4061 26.6171 96.8561 26.3201L96.7581 26.3001C96.4681 26.2461 96.1951 26.1911 95.9651 26.1331C93.6911 25.5431 91.2651 24.6561 91.2651 21.6091C91.2651 18.6371 93.6171 16.9341 97.7191 16.9341C99.6881 16.9341 101.117 17.1441 102.266 17.3161L102.824 17.3981V20.1911L102.527 20.1371C101.227 19.8981 99.7031 19.6521 98.2381 19.6521C96.6091 19.6521 94.6761 19.9571 94.6761 21.4061C94.6761 22.6091 96.2581 22.9531 98.0901 23.3521C100.652 23.9061 103.828 24.6021 103.828 28.0981C103.828 31.3051 101.238 33.1451 96.7151 33.1451ZM129.8 33.1451C126.227 33.1451 122.918 32.5151 122.918 27.9531C122.918 22.9881 128.035 22.9881 131.094 22.9881C131.398 22.9881 132.836 23.0551 133.277 23.0741C133.273 20.2891 133.238 19.6251 129.199 19.6251C127.598 19.6251 125.82 19.9411 124.25 20.2231L123.95 20.2771V17.5271L124.152 17.4841C125.972 17.1141 127.727 16.9341 129.516 16.9341C133.43 16.9341 136.746 17.3281 136.746 22.1841V32.7741L136.508 32.8011C133.797 33.1051 131.644 33.1451 129.8 33.1451ZM131.008 25.4451C128.058 25.4451 126.23 25.8791 126.23 28.0391C126.23 30.5391 128.562 30.7461 130.75 30.7461C131.566 30.7461 133.035 30.6411 133.484 30.6091V25.5311C132.852 25.5041 131.207 25.4451 131.008 25.4451ZM81.3631 33.1451C77.7851 33.1451 74.4771 32.5151 74.4771 27.9531C74.4771 22.9881 79.5941 22.9881 82.6521 22.9881C82.9571 22.9881 84.3981 23.0551 84.8401 23.0741C84.8361 20.2891 84.7971 19.6251 80.7581 19.6251C79.1561 19.6251 77.3781 19.9411 75.8081 20.2231L75.5081 20.2771V17.5271L75.7151 17.4841C77.4785 17.1195 79.2744 16.9352 81.0751 16.9341C84.9881 16.9341 88.3051 17.3281 88.3051 22.1841V32.7741L88.0661 32.8011C85.3561 33.1051 83.2031 33.1451 81.3631 33.1451ZM82.5661 25.4451C79.6171 25.4451 77.7931 25.8791 77.7931 28.0391C77.7931 30.5391 80.1211 30.7461 82.3091 30.7461C83.1291 30.7461 84.5981 30.6411 85.0471 30.6091V25.5311C84.4101 25.5041 82.7651 25.4451 82.5661 25.4451Z" fill="#9CA3AF"></path><mask id="mask0_2033_5" style="mask-type:luminance" maskUnits="userSpaceOnUse" x="139" y="16" width="16" height="24"><path d="M139 16H154.027V40H139V16Z" fill="white"></path></mask><g mask="url(#mask0_2033_5)"><path d="M150.492 39.8282V33.0702C149.145 33.2582 148.43 33.2582 147.852 33.2582C146.484 33.2582 144.965 32.9612 143.789 32.4652C141.156 31.3702 139.586 28.5902 139.586 25.0232C139.586 23.2432 140.02 19.9882 142.922 18.2342C144.379 17.3642 146.098 16.9922 148.684 16.9922C149.609 16.9922 150.859 17.0622 152.066 17.1322L154.027 17.2342V38.2622L150.492 39.8282ZM148.426 19.7112C144.918 19.7102 143.14 21.5002 143.14 25.0232C143.14 29.5592 145.792 30.5122 148.022 30.5122C148.565 30.5122 149.175 30.5122 150.526 30.3402V19.8092C149.468 19.7392 148.98 19.7112 148.426 19.7112Z" fill="#9CA3AF"></path></g><mask id="mask1_2033_5" style="mask-type:luminance" maskUnits="userSpaceOnUse" x="25" y="0" width="27" height="33"><path d="M25 0.0161133H52V33.0001H25V0.0161133Z" fill="white"></path></mask><g mask="url(#mask1_2033_5)"><path d="M39.0121 0.0161133L27.5941 31.3861C27.4529 31.7724 27.2058 32.1111 26.8811 32.3634C26.5564 32.6158 26.1672 32.7716 25.7581 32.8131V32.8281H37.8281C38.7731 32.8281 39.5821 32.2271 39.8831 31.3871L51.3051 0.0161133H39.0121Z" fill="#9CA3AF"></path></g><path d="M24.7731 32.3521C25.4731 32.3521 26.0861 32.0041 26.4611 31.4771C26.5001 31.4221 26.6371 31.2301 26.7341 30.9691L30.9221 19.4571L28.4721 12.7341C28.3294 12.3937 28.0982 12.0976 27.8026 11.8765C27.5069 11.6555 27.1576 11.5175 26.7907 11.4769C26.4237 11.4363 26.0527 11.4946 25.7158 11.6456C25.379 11.7967 25.0887 12.0351 24.8751 12.3361C24.8351 12.3911 24.6721 12.6361 24.6021 12.8441L20.4141 24.3521L22.8751 31.1021C23.0347 31.4731 23.2995 31.7892 23.6369 32.0114C23.9742 32.2335 24.3692 32.352 24.7731 32.3521Z" fill="#9CA3AF"></path><mask id="mask2_2033_5" style="mask-type:luminance" maskUnits="userSpaceOnUse" x="-1" y="10" width="27" height="34"><path d="M-1 10H26V43.797H-1V10Z" fill="white"></path></mask><g mask="url(#mask2_2033_5)"><path d="M25.668 10.9839H13.465C12.52 10.9839 11.711 11.5819 11.406 12.4259L-0.0119629 43.7959H12.281L23.7 12.4269C23.8482 12.0188 24.1144 11.664 24.4649 11.4077C24.8154 11.1515 25.2342 11.0053 25.668 10.9879V10.9839Z" fill="#9CA3AF"></path></g></g><defs><clipPath id="clip0_2033_5"><rect width="155" height="44" fill="white"></rect></clipPath></defs></svg>