<svg xmlns="http://www.w3.org/2000/svg" width="341" height="90" viewBox="0 0 341 90" fill="none"><g clip-path="url(#clip0_2042_35)"><path d="M12.9 47.5C7.10002 47.1 4.90002 46.1 4.90002 43.8C4.90002 41.1 7.50002 39.6 11.8 39.6C15 39.5 18.1 40.4 20.7 42.3L20.9 42.4L22.5 39.4L22.4 39.3C19.4 37.2 15.7 36.1 12 36.2C5.20002 36.2 1.10002 39.1 1.10002 43.9C1.10002 48.5 4.20003 50.5 12.1 51.1C18 51.5 20.1 52.5 20.1 54.8C20.1 58.4 15.9 59.2 12.3 59.2C8.60002 59.3 4.90002 58.1 1.90002 55.8L1.70002 55.7L-0.0999756 58.7L2.44156e-05 58.8C3.50002 61.4 7.80002 62.7 12.2 62.6C19.7 62.6 23.8 59.8 23.8 54.7C23.9 50.1 20.8 48.1 12.9 47.5ZM54 36.7H48.8L32.4 50.3V36.7H28.7V62.1H32.4V54.5L39.8 48.4L49.7 62V62.1H54.2L42.5 46.1L54 36.7ZM69.9 47L61.4 36.8V36.7H56.7L68 50.4V62.1H71.7V50.4L83 36.7H78.5L69.9 47ZM139.7 44.2C139.7 39.4 136.7 36.7 131.3 36.7H116.1V62.1H119.8V51.8H129.2L136.6 62.1H141L133.4 51.6C137.4 51 139.7 48.3 139.7 44.2ZM119.7 48.6V39.9H130.6C134.1 39.9 135.8 41.3 135.8 44.2C135.8 47.1 134.1 48.5 130.6 48.5C130.7 48.6 119.7 48.6 119.7 48.6ZM237.6 39.9V36.7H215.4V62.1H237.6V58.9H219V50.9H235.2V47.7H219V40H237.6V39.9ZM197.6 51.5H206.2V57.4C204.1 58.6 201.6 59.2 199.2 59.1C192.5 59.1 188.3 55.3 188.3 49.3C188.3 43.3 192.4 39.5 198.8 39.5C201.7 39.5 204.5 40.3 206.9 41.9L207 42L208.4 38.8L208.3 38.7C205.5 36.9 202.2 35.9 198.8 36C190.1 36 184.5 41.2 184.5 49.2C184.5 57.2 190.2 62.4 199 62.4C202.9 62.6 206.6 61.4 209.7 59.1H209.8V48.3H197.6V51.5ZM106.4 49.1C108.7 48.2 110.2 45.9 110 43.5C110 39.1 107 36.8 101.4 36.8H86.6V62.2H102C107.8 62.2 110.8 59.8 110.8 55.2C111 52.3 109.1 49.8 106.4 49.1ZM90.3 39.9H101.4C104.7 39.9 106.4 41.2 106.4 43.8C106.4 46.4 104.7 47.6 101.4 47.6H90.3V39.9ZM101.8 58.9H90.3V50.9H101.8C105.4 50.9 107.1 52.2 107.1 54.9C107.1 57.6 105.3 58.9 101.8 58.9ZM145.7 62.2H149.4V36.7H145.7V62.2ZM167.5 36.7H156.1V62.1H167.5C175.5 62.1 180.6 57.1 180.6 49.4C180.6 41.7 175.5 36.7 167.5 36.7ZM167.2 58.9H159.8V39.9H167.2C173.2 39.9 176.9 43.5 176.9 49.4C176.9 55.3 173.1 58.9 167.2 58.9Z" fill="#9CA3AF"></path><path d="M267.1 73.5C262.4 78.5 257.9 83.7 253.8 88.9L257.5 89.5C260.5 85.7 263.8 82 267.1 78.3V73.5Z" fill="#9CA3AF"></path><path d="M335.6 18C329 21.9 321.7 26.7 314.2 32.2V27.8C321.5 23.7 328.3 20.3 334.3 17.7L328.5 16.8C324.1 18.9 319.3 21.3 314.3 24.1V3L296 0C295.5 1.9 294.9 3.7 294.2 5.5C293.2 7.9 291.9 10.2 290.4 12.3C285.8 19 279.3 24.2 272.4 28.4C266.6 31.7 260.6 34.5 254.3 36.6V65.4C246.8 71.7 239.6 78.4 232.8 85.4L236.7 86C246.3 76.3 256.4 67.3 267.2 59.1V55C263.9 57.5 260.7 60.1 257.5 62.7V39.7L269.6 41.7V81.7L272.9 82.2V72.2C284 60.8 295.9 50.2 308.5 40.5V36.4C295.8 46 284 56.4 272.8 67.6V54.8C284.2 46.3 296.1 38.4 308.4 31.1V27.3C305.2 29.1 302 31.1 298.7 33.1V27C303.6 23.1 307.8 18.2 310.8 12.7V45.8L314.1 46.3V36.2C322.6 29.9 331.4 24 340.6 18.8L335.6 18ZM295.4 35.2C288 39.9 280.3 45.2 272.8 50.7V41.4C280.8 38.5 288.4 34.5 295.4 29.6V35.2ZM303 18.3C301.7 19.9 300.2 21.4 298.7 22.7C297.7 23.6 296.6 24.6 295.4 25.5C293.5 27 291.5 28.5 289.4 29.8C283.6 33.4 277.4 36.3 270.9 38.6L261.9 37.1C272.3 32.7 287.9 24.2 295.4 10.3V22C296.6 21 297.7 20 298.7 18.9V3.8L310.4 5.7C308.8 10.3 306.3 14.6 303 18.3Z" fill="#9CA3AF"></path></g><defs><clipPath id="clip0_2042_35"><rect width="340.7" height="89.5" fill="white"></rect></clipPath></defs></svg>